<svg xmlns="http://www.w3.org/2000/svg" viewBox="0 0 121 111">
  <g fill="none" fill-rule="evenodd">
    <g>
      <path fill="#FFD700" d="M23 68.547C23 91.404 40.96 110 63.038 110c2.002 0 3.97-.158 5.894-.452h11.203c21.98 0 39.865-18.515 39.865-41.274C120 45.514 102.116 27 80.135 27H64.667v.138c-.54-.023-1.083-.042-1.63-.042C40.962 27.094 23 45.69 23 68.546zm4.43-32.887v.022c0 .096-.008.193-.015.29V36h4.173l-.003-.035c-.007-.093-.014-.188-.016-.28.35-8.293 7.1-14.793 15.43-14.956v-5.46C38.67 15.11 31.92 8.61 31.57.34c0-.117.008-.212.015-.305 0-.012 0-.023.003-.035h-4.174v.03c.008.095.015.192.017.288C27.08 8.61 20.33 15.11 12 15.273v5.456c8.33.16 15.08 6.66 15.43 14.93zM13.21 55.833c0-.085-.007-.17-.012-.254l-.01-.16c.218-5.21 4.454-9.29 9.643-9.29H23v-4.27h-.17c-5.188 0-9.424-4.08-9.642-9.28.002-.057.006-.113.01-.168.005-.085.012-.17.012-.256l-.042-.17H9.793v.17c0 .083.005.165.01.247.004.057.01.114.01.16-.218 5.21-4.453 9.29-9.643 9.29H0v4.267h.17c5.187 0 9.42 4.08 9.642 9.28-.002.06-.006.115-.01.17-.005.085-.01.168-.01.25l.04.17h3.378v-.17z"/>
      <path fill="#FFAE00" fill-rule="nonzero" d="M23 68.547C23 91.404 40.96 110 63.038 110c2.002 0 3.97-.158 5.894-.452h11.203c21.98 0 39.865-18.515 39.865-41.274C120 45.514 102.116 27 80.135 27H64.667v.138c-.54-.023-1.083-.042-1.63-.042C40.962 27.094 23 45.69 23 68.546zm58.063 36.996c2.51-1.316 4.867-2.894 7.04-4.705h9.474c-4.913 2.86-10.532 4.545-16.514 4.705zm22.06-8.684h-10.88c2.243-2.48 4.195-5.24 5.8-8.23h12.1c-1.942 3.09-4.31 5.86-7.02 8.22zm9.204-12.21h-12.4c1.07-2.62 1.88-5.37 2.412-8.23h12.76c-.62 2.88-1.56 5.635-2.78 8.223zm3.653-16.38c0 1.41-.083 2.8-.23 4.18h-12.86c.117-1.29.184-2.59.184-3.91 0-1.46-.075-2.9-.22-4.32h12.91c.138 1.33.214 2.68.214 4.043zm-.845-8.03h-12.867c-.564-2.86-1.42-5.61-2.52-8.228h12.646c1.21 2.59 2.132 5.346 2.74 8.225zm-4.91-12.208h-12.41c-1.654-2.99-3.654-5.75-5.95-8.22h11.412c2.685 2.37 5.028 5.14 6.95 8.22zM80.135 30.97c6.423 0 12.453 1.777 17.672 4.87H87.6c-2.36-1.906-4.93-3.544-7.667-4.87h.2zm-17.097.097c19.86 0 36.02 16.81 36.02 37.476 0 20.664-16.16 37.474-36.02 37.474-19.86 0-36.02-16.81-36.02-37.475s16.16-37.473 36.02-37.473z"/>
      <path fill="#FFAE00" fill-rule="nonzero" d="M63.5 96C78.112 96 90 83.663 90 68.5 90 53.335 78.112 41 63.5 41S37 53.337 37 68.5C37 83.665 48.887 96 63.5 96zm0-51.022c12.404 0 22.496 10.553 22.496 23.523 0 12.97-10.092 23.53-22.496 23.53-12.404 0-22.496-10.55-22.496-23.52S51.096 44.99 63.5 44.99zM27.43 35.66v.022c0 .096-.008.193-.015.29V36h4.173l-.003-.035c-.007-.093-.014-.188-.016-.28.35-8.293 7.1-14.793 15.43-14.956v-5.46C38.67 15.11 31.92 8.61 31.57.34c0-.117.008-.212.015-.305 0-.012 0-.023.003-.035h-4.174v.03c.008.095.015.192.017.288C27.08 8.61 20.33 15.11 12 15.273v5.456c8.33.16 15.08 6.66 15.43 14.93zM18.967 18l.672-.29c4.07-1.76 7.47-4.852 9.58-8.707l.28-.516.28.516c2.11 3.855 5.51 6.948 9.58 8.706l.67.29-.67.29c-4.07 1.76-7.47 4.85-9.58 8.7l-.29.51-.286-.516c-2.11-3.855-5.51-6.946-9.58-8.706l-.67-.29zM13.21 55.833c0-.085-.007-.17-.012-.254l-.01-.16c.218-5.21 4.454-9.29 9.643-9.29H23v-4.27h-.17c-5.188 0-9.424-4.08-9.642-9.28.002-.057.006-.113.01-.168.005-.085.012-.17.012-.256l-.042-.17H9.793v.17c0 .083.005.165.01.247.004.057.01.114.01.16-.218 5.21-4.453 9.29-9.643 9.29H0v4.267h.17c5.187 0 9.42 4.08 9.642 9.28-.002.06-.006.115-.01.17-.005.085-.01.168-.01.25l.04.17h3.378v-.17zm-7.49-11.83c2.42-1.148 4.453-3.036 5.78-5.364 1.325 2.32 3.36 4.21 5.78 5.36-2.42 1.15-4.454 3.03-5.78 5.36-1.327-2.33-3.36-4.22-5.78-5.37z"/>
    </g>
  </g>
</svg>
