<svg xmlns="http://www.w3.org/2000/svg" viewBox="0 0 329 1244">
    <g id="esteban-chestnut-copy-2">
      <g id="Group" fill="#692E7D">
        <path id="Shape" d="M325.44 728.48c.49 3.695-.038 7.073-1.337 10.016-.435.995-.963 1.935-1.567 2.827 0 0 0 .004-.003.005-.127 3.17-1.18 6.1-2.895 8.525-.01.013-.014.025-.025.035-.263.372-.545.728-.84 1.074-.03.035-.052.07-.083.102-.254.294-.523.576-.8.85-2.367 2.356-5.463 3.977-8.93 4.48 1.99 9.416 11.44 7.384 11.487 7.374 8.515-11.02 9.475-23.337 4.992-35.288z"/>
        <path id="Shape-Copy-2" d="M213.973 753.01c28.14 57.88 88.033 21.986 89.077 3.15-2.175-.516-4.176-1.468-5.907-2.764-.416-.318-.678-.537-.934-.76-.46-.408-.68-.622-.89-.84-.51-.526-.76-.812-1-1.11-.48-.623-.59-.77-.7-.925-.47-.71-.55-.84-.62-.96-1.28-1.19-2.12-1.63-2.93-2.14-1.68-1.05-3.29-2.32-4.82-3.82-.77-.76-1.56-1.49-2.34-2.21-1.31-1.18-1.97-1.76-2.64-2.32-1.23-1.03-2.04-1.67-2.85-2.3-1.27-.96-1.94-1.45-2.61-1.93-1.43-1.01-2.27-1.57-3.11-2.13-1.16-.74-1.88-1.2-2.62-1.64-2.4-1.43-4.16-2.41-5.93-3.32-1.43-.72-2.22-1.11-3.01-1.49-1.24-.59-2.15-1-3.06-1.4-1.32-.57-2.1-.89-2.88-1.22-1.42-.57-2.35-.93-3.28-1.28-1.13-.42-1.97-.73-2.82-1.02-2.41-.83-4.28-1.44-6.16-2.02-1.39-.42-2.27-.68-3.14-.93 1.04 1.87 1.72 4.09 1.72 6.48-.01 6.9-5.6 12.49-12.51 12.48-6.89 0-12.48-5.6-12.47-12.49 0-4.58 2.48-8.57 6.15-10.74-4.71-1.06-9.3-2.04-13.69-3.07-.88-.21-1.32-.31-1.76-.42l-1.84-.45c-1.06-.26-1.44-.36-1.82-.46l-1.81-.47c-1.14-.31-1.47-.4-1.8-.5-1.14-.32-1.46-.42-1.77-.51-1.14-.34-1.44-.44-1.75-.53-1.13-.36-1.42-.45-1.72-.55-1.11-.38-1.39-.48-1.68-.58-1.1-.4-1.37-.5-1.64-.61-1.07-.41-1.34-.52-1.61-.63-1.05-.44-1.3-.55-1.56-.66-1.02-.46-1.27-.58-1.52-.69-1-.49-1.23-.61-1.47-.73-.97-.52-1.2-.64-1.42-.77-.94-.54-1.16-.67-1.38-.81-.9-.57-1.11-.71-1.32-.85-.87-.61-1.08-.75-1.27-.89-.84-.64-1.03-.79-1.22-.94-.8-.68-.99-.83-1.16-.99-.77-.72-.94-.88-1.11-1.04-.74-.77-.9-.93-1.05-1.1-.71-.81-.85-.97-.99-1.15-.68-.88-.81-1.04-.93-1.2-.2-.28-.39-.56-.57-.84-.57-.86-.83-1.3-1.09-1.75.22-.33.41-.61.62-.89.47-.58.58-.73.72-.89.63-.69.72-.79.81-.88.36-.36.54-.54.73-.72.72-.66.91-.82 1.11-.98.75-.61.97-.78 1.19-.95.82-.6 1.1-.8 1.39-1 .7-.47 1.03-.69 1.37-.9.68-.42 1.21-.74 1.76-1.05.73-.41 1.3-.72 1.88-1.03.77-.4 1.39-.71 2.03-1.01 2.47-1.17 5.06-2.23 7.84-3.2-.97-3.14-2.55-6.37-4.73-9.44-7.23-10.19-18.23-14.8-24.56-10.3-6.34 4.49-5.61 16.39 1.62 26.57 1.65 2.32 3.5 4.33 5.45 6.03-29.51 29.03-1.04 83.32-1.04 83.32-25.84 18.5-34.89 40.86-40.15 63.57.37-1.58.75-3.25 1.12-4.95-1.72 6.44-3.58 13.07-5.6 19.93 0-.4-77.46 25.65-31.75-103.51 21.32-60.29-.33-123.08-51.7-94.98 9.17-13.99 69.04-33.21 94.22 16.87-9.22-30.36-28.47-51.39-64.5-49.43-44.84 2.43-66.46 54.97-70.54 88.6 73.79-31.16 17.29 68.46 6.27 114.9-26.79 118 109.6 100.51 117.54 71.41.4 13.02 101.29-.88 98.69-.2.56-3.41.97-6.65 1.25-9.75 2.76-.68 5.91-.98 9.25-.79 3.64.21 7 .98 9.81 2.12 11.87-20.24 8.45-37.56 5.33-46.13 15.09-1.1 31.95-15.35 25.59-28.5-3.98-8.22-14.22-8.72-26.63-4.49-5.25 1.79-9.74 4.41-13.01 7.35-7.99-4.11-7.67-15.99-7.67-15.99 52.3-5.26 81.31-18.69 93.89-34.95-2.57 3.37-9.3 5.73-13.78-2.31-1.84 19.36-74.25 51.12-92.69-8.46z"/>
        <path id="Shape-Copy" d="M122.58 870.487c-4.294 12.298-5.56 22.233-5.56 22.233l91.247 35.063c1.228.48 1.954.758 2.693 1.018.537.19.744.3.98.4 14.964 6.16 27.14 4 29.67-1.55 2.517-5.55-4.746-14.61-16.585-19.09-3.388-1.29-7.56-2.58-10.238-2.88 1.75-2.98 3.288-5.86 4.66-8.65 3.325 1.5 7.336 6.58 9.553 8.66 18.335-14.64 21.84-31.04 22-40.16"/>
      </g>
      <path id="Rectangle-path" fill="#692E7D" d="M320.207 763.47l-.678.737-.74-.678.68-.74z"/>
      <g id="Group" fill="#835CA4">
        <path id="Shape" d="M284.89 695.173c6.267 0 11.337 5.06 11.334 11.305-.004 6.235-5.075 11.293-11.34 11.292-6.263-.003-11.337-5.064-11.333-11.3.01-6.244 5.08-11.3 11.34-11.297zm-96.094-17.56c-.574.232-1.138.47-1.692.707l-.078.033c-.714.31-1.41.625-2.086.948l-.114.06c-.638.31-1.26.61-1.862.92l-.175.09c-.59.31-1.15.61-1.7.93-.06.04-.13.07-.18.11-.55.31-1.08.63-1.59.95l-.18.11c-.04.02-.07.05-.11.07-.31.19-.6.39-.89.58-.13.08-.26.17-.38.25-.05.04-.1.07-.15.1-.24.17-.48.34-.71.51-.18.13-.37.26-.54.4-.23.18-.45.35-.66.52-.19.15-.36.29-.54.44-.2.16-.39.32-.57.49-.01 0-.01.01-.01.01-.19.17-.36.33-.54.5-.14.13-.27.26-.4.38l-.16.16c-.15.16-.3.31-.45.47-.08.09-.17.18-.25.27l-.19.21c-.17.19-.33.39-.49.58l-.11.14c-.06.08-.13.16-.19.24-.24.32-.47.63-.67.95.25.45.52.9.8 1.33.09.15.19.28.28.42.19.29.38.57.58.84.12.17.25.33.37.49.18.24.36.49.55.72.14.17.28.33.42.5.18.22.37.44.56.65.15.17.31.33.47.5l.58.6c.16.16.33.32.5.48.2.19.39.38.6.56.17.16.36.31.54.47.2.17.41.35.62.52.19.15.38.3.57.44.22.17.43.34.65.5.2.15.4.29.6.43l.67.47c.2.14.42.28.63.41l.69.44c.22.14.44.27.66.4.23.14.47.28.71.42.22.13.45.26.69.38.24.13.48.26.73.39l.71.36c.25.13.5.25.75.37s.5.24.75.35c.25.12.51.24.77.35l.77.34c.26.11.52.22.79.33.26.11.53.22.8.32.26.11.53.21.8.32.27.1.54.2.82.31l.82.3.85.3c.27.09.55.19.82.28.29.1.59.19.88.29l.84.26c.3.1.61.19.91.28l.83.25.95.28.82.23c.33.1.66.19.99.28l.81.22 1.05.28c.25.06.5.13.76.2.37.1.75.2 1.13.29l.68.17 1.23.3.61.15c.44.11.88.217 1.33.32.14.04.28.07.42.1 4.4 1.03 9 2.01 13.71 3.07 1.86-1.095 4.02-1.73 6.33-1.73 4.51 0 8.45 2.386 10.65 5.95l.13.04c.87.25 1.75.51 2.62.77l.52.157c1.87.58 3.75 1.18 5.62 1.83l.53.19c.85.3 1.69.61 2.54.92.09.04.18.07.28.1.93.35 1.86.71 2.78 1.09l.49.2c.79.32 1.57.648 2.35.98l.53.23c.91.4 1.82.81 2.73 1.24.11.05.22.11.33.16.79.38 1.58.767 2.37 1.16l.64.33c1.77.91 3.53 1.88 5.27 2.91.22.13.44.268.66.4.73.44 1.46.9 2.18 1.36.14.1.29.18.43.28.84.55 1.68 1.12 2.51 1.7l.6.43c.67.48 1.34.97 2 1.47.21.16.41.31.61.46.81.63 1.62 1.27 2.42 1.93.14.12.28.25.43.37.67.565 1.33 1.146 1.99 1.74.22.19.43.39.65.58.78.72 1.57 1.45 2.34 2.21 1.52 1.5 3.14 2.77 4.81 3.82.81.51 1.65.95 2.49 1.36-1.14-2.19-1.8-4.67-1.8-7.31 0-8.76 7.13-15.85 15.92-15.85 8.78 0 15.91 7.1 15.91 15.86 0 .21-.03.42-.04.63.61-.89 1.14-1.83 1.57-2.83 1.3-2.94 1.83-6.31 1.34-9.99l-.01-.01h.01c-27.7-62.87-96.94-64.5-133.24-51.83-1.28.45-2.52.92-3.72 1.4l-.15.06z"/>
        <path id="Shape" d="M41.193 652.44c14.693-22.367 159.496-58.08 83.52 198.07 0-.395-77.524 25.593-31.778-103.295 21.34-60.167-.327-122.817-51.742-94.776z"/>
      </g>
      <path id="Shape" fill="#FFF" d="M284.495 714.633c-3.933 0-7.125-3.2-7.122-7.132-.002-3.94 3.195-7.13 7.128-7.13 3.94 0 7.14 3.2 7.14 7.14 0 3.94-3.2 7.13-7.14 7.13zm.008-18.633c-6.352-.004-11.5 5.143-11.503 11.5-.004 6.346 5.143 11.497 11.495 11.5 6.357 0 11.5-5.146 11.505-11.492.004-6.357-5.14-11.508-11.497-11.508z"/>
      <path id="Shape" fill="#FFF" d="M228.487 732.312c-4.3-.003-7.797-3.5-7.797-7.82.003-4.314 3.502-7.816 7.803-7.813 4.326 0 7.818 3.5 7.818 7.81 0 4.32-3.49 7.81-7.82 7.81zm.007-20.312c-6.894-.002-12.492 5.593-12.494 12.493-.004 6.903 5.592 12.506 12.483 12.507 6.914.002 12.513-5.595 12.517-12.5.004-6.898-5.594-12.498-12.506-12.5z"/>
      <path id="Shape" fill="#481F59" d="M179.053 668.01c3.553 5.065 3.947 10.956.89 13.16-3.08 2.198-8.44-.12-12.002-5.185-3.54-5.06-3.94-10.95-.87-13.154 3.07-2.2 8.43.12 11.99 5.18z"/>
      <path id="Shape" fill="#481F59" d="M236 724.004c-.004 4.418-3.584 7.996-8.014 7.996-4.405-.003-7.986-3.583-7.986-8.003.004-4.416 3.587-8 7.992-7.997 4.43 0 8.008 3.587 8.008 8.004z"/>
      <path id="Shape" fill="#481F59" d="M291 707.006c-.002 3.86-3.144 6.994-7.008 6.994-3.86 0-6.996-3.14-6.992-7-.002-3.87 3.137-7 6.998-7 3.863 0 7.004 3.136 7.002 7.006z"/>
      <path id="Shape" fill="#481F59" d="M309.345 756.774c7.71-1.122 13.653-7.75 13.655-15.79.002-8.826-7.144-15.982-15.955-15.984-8.812-.002-15.957 7.148-15.964 15.973 0 7.577 5.27 13.905 12.33 15.554-1.03 18.938-61.16 55.056-89.41-3.16 18.51 59.91 91.19 27.978 93.03 8.508 4.5 8.102 11.28 5.706 13.85 2.312 0 0-9.52 2.076-11.52-7.413z"/>
      <path id="Shape" fill="#481F59" d="M234.18 815c3.27-2.954 7.747-5.59 12.992-7.39 5.925-2.034 11.342-2.965 15.828-2.495-2.716-4.337-11.332-5.444-20.3-2.367-5.7 1.955-10.254 5.17-12.7 8.56 1.048 1.47 2.41 2.776 4.18 3.692z"/>
      <path id="Shape" fill="#481F59" d="M212.045 903.994c-.077-.008-.147-.016-.205-.02.06.005.126.01.205.02zm.387.05c-.088-.013-.168-.022-.244-.032l.244.032zm.476.072c-.093-.017-.19-.032-.276-.046l.276.046zm.525.09l-.27-.05.27.05zm.937.18c-.055-.01-.103-.022-.154-.03l.154.03zm.71.157c-.06-.016-.12-.028-.177-.04.057.013.116.024.177.04zm.75.173c-.05-.015-.1-.024-.15-.035.05.02.1.02.15.04zm-4.075-.746c-.078-.005-.142-.007-.183-.005.04-.002.104 0 .183.005zm25.56 21.903c.012-.093-.048-1.49-.034-1.585.12-2.602-.55-5.72-1.71-7.72.18-.26 1.62 2.717 1.75 2.432 2.29-5.085-4.77-15.876-14.19-20.125-2.51-1.134-5.03-1.906-7.42-2.344 19.78-37.93 11.13-61-17.67-74.44-44.39-15.52-67.58 12.93-77.4 38.49 4.85-12.62 31-47.14 71.88-32.85 29.16 13.6 40.73 36.88 17.01 77.22 2.69.31 6.87 1.61 10.27 2.9 11.79 4.47 19.05 13.43 16.7 18.99.09-.16.2-.32.27-.49.07-.15.15-.3.2-.46.07-.17.08-.25.1-.33.1-.32.24.66.28.33z"/>
      <path id="Shape" fill="#481F59" d="M247.933 671c.048-.776.08-1.56.062-2.364-.198-9.856-5.275-17.758-11.35-17.635-6.07.12-10.834 8.22-10.64 18.09.01.29.03.57.045.86 7.088-.28 14.46.02 21.883 1.06z"/>
    </g>
    <g id="esteban-chestnut">
      <g id="Group" fill="#692E7D">
        <path id="Shape" d="M325.44 423.48c.49 3.695-.038 7.073-1.337 10.016-.435.995-.963 1.935-1.567 2.827 0 0 0 .004-.003.005-.127 3.17-1.18 6.1-2.895 8.525-.01.013-.014.025-.025.035-.263.372-.545.728-.84 1.074-.03.035-.052.07-.083.102-.254.294-.523.576-.8.85-2.367 2.356-5.463 3.977-8.93 4.48 1.99 9.416 11.44 7.384 11.487 7.374 8.515-11.02 9.475-23.337 4.992-35.288z"/>
        <path id="Shape-Copy-2" d="M213.973 448.01c28.14 57.88 88.033 21.986 89.077 3.15-2.175-.516-4.176-1.468-5.907-2.764-.416-.318-.678-.537-.934-.76-.46-.408-.68-.622-.89-.84-.51-.526-.76-.812-1-1.11-.48-.623-.59-.77-.7-.925-.47-.71-.55-.84-.62-.96-1.28-1.19-2.12-1.63-2.93-2.14-1.68-1.05-3.29-2.32-4.82-3.82-.77-.76-1.56-1.49-2.34-2.21-1.31-1.18-1.97-1.76-2.64-2.32-1.23-1.03-2.04-1.67-2.85-2.3-1.27-.96-1.94-1.45-2.61-1.93-1.43-1.01-2.27-1.57-3.11-2.13-1.16-.74-1.88-1.2-2.62-1.64-2.4-1.43-4.16-2.41-5.93-3.32-1.43-.72-2.22-1.11-3.01-1.49-1.24-.59-2.15-1-3.06-1.4-1.32-.57-2.1-.89-2.88-1.22-1.42-.57-2.35-.93-3.28-1.28-1.13-.42-1.97-.73-2.82-1.02-2.41-.83-4.28-1.44-6.16-2.02-1.39-.42-2.27-.68-3.14-.93 1.04 1.87 1.72 4.09 1.72 6.48-.01 6.9-5.6 12.49-12.51 12.48-6.89 0-12.48-5.6-12.47-12.49 0-4.58 2.48-8.57 6.15-10.74-4.71-1.06-9.3-2.04-13.69-3.07-.88-.21-1.32-.31-1.76-.42l-1.84-.45c-1.06-.26-1.44-.36-1.82-.46l-1.81-.47c-1.14-.31-1.47-.4-1.8-.5-1.14-.32-1.46-.42-1.77-.51-1.14-.34-1.44-.44-1.75-.53-1.13-.36-1.42-.45-1.72-.55-1.11-.38-1.39-.48-1.68-.58-1.1-.4-1.37-.5-1.64-.61-1.07-.41-1.34-.52-1.61-.63-1.05-.44-1.3-.55-1.56-.66-1.02-.46-1.27-.58-1.52-.69-1-.49-1.23-.61-1.47-.73-.97-.52-1.2-.64-1.42-.77-.94-.54-1.16-.67-1.38-.81-.9-.57-1.11-.71-1.32-.85-.87-.61-1.08-.75-1.27-.89-.84-.64-1.03-.79-1.22-.94-.8-.68-.99-.83-1.16-.99-.77-.72-.94-.88-1.11-1.04-.74-.77-.9-.93-1.05-1.1-.71-.81-.85-.97-.99-1.15-.68-.88-.81-1.04-.93-1.2-.2-.28-.39-.56-.57-.84-.57-.86-.83-1.3-1.09-1.75.22-.33.41-.61.62-.89.47-.58.58-.73.72-.89.63-.69.72-.79.81-.88.36-.36.54-.54.73-.72.72-.66.91-.82 1.11-.98.75-.61.97-.78 1.19-.95.82-.6 1.1-.8 1.39-1 .7-.47 1.03-.69 1.37-.9.68-.42 1.21-.74 1.76-1.05.73-.41 1.3-.72 1.88-1.03.77-.4 1.39-.71 2.03-1.01 2.47-1.17 5.06-2.23 7.84-3.2-.97-3.14-2.55-6.37-4.73-9.44-7.23-10.19-18.23-14.8-24.56-10.3-6.34 4.49-5.61 16.39 1.62 26.57 1.65 2.32 3.5 4.33 5.45 6.03-29.51 29.03-1.04 83.32-1.04 83.32-25.84 18.5-34.89 40.86-40.15 63.57.37-1.58.75-3.25 1.12-4.95-1.72 6.44-3.58 13.07-5.6 19.93 0-.4-77.46 25.65-31.75-103.51 21.32-60.29-.33-123.08-51.7-94.98 9.17-13.99 69.04-33.21 94.22 16.87-9.22-30.36-28.47-51.39-64.5-49.43-44.84 2.43-66.46 54.97-70.54 88.6 73.79-31.16 17.29 68.46 6.27 114.9-26.79 118 109.6 100.51 117.54 71.41.4 13.02 101.29-.88 98.69-.2.56-3.41.97-6.65 1.25-9.75 2.76-.68 5.91-.98 9.25-.79 3.64.21 7 .98 9.81 2.12 11.87-20.24 8.45-37.56 5.33-46.13 15.09-1.1 31.95-15.35 25.59-28.5-3.98-8.22-14.22-8.72-26.63-4.49-5.25 1.79-9.74 4.41-13.01 7.35-7.99-4.11-7.67-15.99-7.67-15.99 52.3-5.26 81.31-18.69 93.89-34.95-2.57 3.37-9.3 5.73-13.78-2.31-1.84 19.36-74.25 51.12-92.69-8.46z"/>
        <path id="Shape-Copy" d="M123.937 590.13c.397 13.022 2.775 22.75 2.775 22.75l97.753.035c1.32.008 2.095.007 2.88-.015.57-.015.8.01 1.053.016 16.178.384 26.77-5.997 27.144-12.084.36-6.087-9.666-11.937-22.327-11.884-3.624.01-7.983.3-10.592.975.566-3.41.97-6.648 1.25-9.748 2.757-.68 5.913-.984 9.25-.794 3.644.21 6.998.98 9.81 2.12 11.87-20.24 8.447-37.56 5.33-46.13"/>
      </g>
      <path id="Rectangle-path" fill="#692E7D" d="M320.207 458.47l-.678.737-.74-.678.68-.74z"/>
      <g id="Group" fill="#835CA4">
        <path id="Shape" d="M284.89 390.173c6.267 0 11.337 5.06 11.334 11.305-.004 6.235-5.075 11.293-11.34 11.292-6.263-.003-11.337-5.064-11.333-11.3.01-6.244 5.08-11.3 11.34-11.297zm-96.094-17.56c-.574.232-1.138.47-1.692.707l-.078.033c-.714.31-1.41.625-2.086.948l-.114.06c-.638.31-1.26.61-1.862.92l-.175.09c-.59.31-1.15.61-1.7.93-.06.04-.13.07-.18.11-.55.31-1.08.63-1.59.95l-.18.11c-.04.02-.07.05-.11.07-.31.19-.6.39-.89.58-.13.08-.26.17-.38.25-.05.04-.1.07-.15.1-.24.17-.48.34-.71.51-.18.13-.37.26-.54.4-.23.18-.45.35-.66.52-.19.15-.36.29-.54.44-.2.16-.39.32-.57.49-.01 0-.01.01-.01.01-.19.17-.36.33-.54.49l-.4.38-.16.16c-.15.15-.3.31-.45.47-.08.09-.17.18-.25.26l-.19.21-.49.58-.11.14c-.06.08-.13.16-.19.24-.24.32-.47.64-.67.95.25.46.52.9.8 1.33.09.15.19.28.28.42.19.29.38.57.58.84.12.17.25.33.37.49.18.24.36.49.55.72.14.17.28.33.42.5.18.22.37.44.56.65.15.17.31.33.47.5l.58.6c.16.16.33.32.5.48.2.19.39.38.6.56.17.16.36.31.54.47.2.18.41.35.62.53l.57.45c.22.17.43.34.65.5l.6.42.67.47c.2.14.42.28.63.41.23.15.46.3.69.44.22.14.44.27.66.4.23.14.47.28.71.42.22.13.45.26.69.38.24.14.48.26.73.39.23.12.47.25.71.37l.75.37.75.35c.25.12.51.23.77.35l.77.34c.26.11.52.22.79.33.26.11.53.22.8.32.26.11.53.21.8.32.27.1.54.2.82.31.27.1.55.2.82.3l.85.3c.27.1.55.19.82.28.29.1.59.2.88.29.28.1.56.18.84.27.3.09.61.19.91.28l.83.25.95.28.82.23.99.28.81.22 1.05.28.76.2c.37.1.75.2 1.13.29.22.06.45.11.68.17l1.23.3.61.15c.44.1.88.21 1.33.31.14.04.28.07.42.1 4.4 1.03 9 2.01 13.71 3.07 1.86-1.1 4.02-1.73 6.33-1.73 4.51 0 8.45 2.38 10.65 5.95.04.01.08.02.13.04.87.25 1.75.51 2.62.77l.52.15c1.87.58 3.75 1.18 5.62 1.83l.53.19c.85.3 1.69.61 2.54.92.09.04.18.07.28.1.93.35 1.86.71 2.78 1.09l.49.2c.79.32 1.57.65 2.35.98l.53.23c.91.4 1.82.81 2.73 1.24.11.05.22.11.33.16.79.37 1.58.76 2.37 1.16.21.11.42.21.64.33 1.77.91 3.53 1.88 5.27 2.91.22.13.44.27.66.4.73.44 1.46.9 2.18 1.36.14.1.29.18.43.28.84.55 1.68 1.12 2.51 1.7l.6.43c.67.48 1.34.97 2 1.47l.61.46c.81.63 1.62 1.27 2.42 1.93.14.12.28.25.43.37.67.56 1.33 1.14 1.99 1.74l.65.59c.78.72 1.57 1.45 2.34 2.21 1.52 1.5 3.14 2.77 4.81 3.82.81.51 1.65.95 2.49 1.36-1.14-2.19-1.8-4.67-1.8-7.31 0-8.76 7.13-15.85 15.92-15.85 8.78 0 15.91 7.1 15.91 15.86 0 .21-.03.42-.04.63.61-.89 1.14-1.83 1.57-2.82 1.3-2.93 1.83-6.31 1.34-9.99l-.01-.01h.01c-27.7-62.87-96.94-64.5-133.24-51.83-1.28.45-2.52.92-3.72 1.4l-.15.06z"/>
        <path id="Shape" d="M41.193 347.44c14.693-22.367 159.496-58.08 83.52 198.07 0-.395-77.524 25.593-31.778-103.295 21.34-60.167-.327-122.817-51.742-94.776z"/>
      </g>
      <path id="Shape" fill="#FFF" d="M284.495 409.633c-3.933 0-7.125-3.2-7.122-7.132-.002-3.94 3.195-7.13 7.128-7.13 3.94 0 7.14 3.2 7.14 7.14 0 3.94-3.2 7.13-7.14 7.13zm.008-18.633c-6.352-.004-11.5 5.143-11.503 11.5-.004 6.346 5.143 11.497 11.495 11.5 6.357 0 11.5-5.146 11.505-11.492.004-6.357-5.14-11.508-11.497-11.508z"/>
      <path id="Shape" fill="#FFF" d="M228.487 427.312c-4.3-.003-7.797-3.5-7.797-7.82.003-4.314 3.502-7.816 7.803-7.813 4.326 0 7.818 3.5 7.818 7.81 0 4.32-3.49 7.81-7.82 7.81zm.007-20.312c-6.894-.002-12.492 5.593-12.494 12.493-.004 6.903 5.592 12.506 12.483 12.507 6.914.002 12.513-5.595 12.517-12.5.004-6.898-5.594-12.498-12.506-12.5z"/>
      <path id="Shape" fill="#481F59" d="M179.053 363.01c3.553 5.065 3.947 10.956.89 13.16-3.08 2.198-8.44-.12-12.002-5.185-3.54-5.06-3.94-10.95-.87-13.154 3.07-2.2 8.43.12 11.99 5.18z"/>
      <path id="Shape" fill="#481F59" d="M236 419.004c-.004 4.418-3.584 7.996-8.014 7.996-4.405-.003-7.986-3.583-7.986-8.003.004-4.416 3.587-8 7.992-7.997 4.43 0 8.008 3.587 8.008 8.004z"/>
      <path id="Shape" fill="#481F59" d="M291 402.006c-.002 3.86-3.144 6.994-7.008 6.994-3.86 0-6.996-3.14-6.992-7-.002-3.87 3.137-7 6.998-7 3.863 0 7.004 3.136 7.002 7.006z"/>
      <path id="Shape" fill="#481F59" d="M309.345 451.774c7.71-1.122 13.653-7.75 13.655-15.79.002-8.826-7.144-15.982-15.955-15.984-8.812-.002-15.957 7.148-15.964 15.973 0 7.577 5.27 13.905 12.33 15.554-1.03 18.938-61.16 55.056-89.41-3.16 18.51 59.91 91.19 27.978 93.03 8.508 4.5 8.102 11.28 5.706 13.85 2.312 0 0-9.52 2.076-11.52-7.413z"/>
      <path id="Shape" fill="#481F59" d="M234.18 510c3.27-2.954 7.747-5.59 12.992-7.39 5.925-2.034 11.342-2.965 15.828-2.495-2.716-4.337-11.332-5.444-20.3-2.367-5.7 1.955-10.254 5.17-12.7 8.56 1.048 1.47 2.41 2.776 4.18 3.692z"/>
      <path id="Shape" fill="#481F59" d="M224.913 588.437l-.198.056c.057-.017.12-.036.198-.056zm.38-.09c-.087.017-.165.038-.24.056.075-.02.153-.04.24-.057zm.47-.105c-.094.017-.19.038-.275.056l.274-.056zm.52-.105c-.088.017-.18.035-.268.05.088-.015.18-.03.27-.05zm.94-.168c-.053.01-.103.01-.154.02l.15-.03zm.72-.11c-.062 0-.12.01-.18.02l.18-.03zm.76-.11c-.05 0-.1.01-.15.02.05-.01.1-.02.15-.02zm-4.07.76c-.073.02-.134.04-.17.06.036-.02.095-.04.17-.06zm31.33 11.08c-.024-.33-.066-.66-.142-.99-.02-.09-.05-.19-.07-.28-.07-.27-.18-.53-.27-.8-.86-2.46-2.3-4.35-4.09-5.8.07-.31.13-.61.14-.93.32-5.57-7.78-10.54-18.1-11.13-2.75-.16-5.38.02-7.77.47 4.87-42.51-11.47-60.95-43.18-63.17-47 1.41-58.46 36.29-58.47 63.66.01-13.53 12.04-55.13 55.33-56.43 32.1 2.24 51.25 19.82 43.56 65.99 2.62-.68 6.99-.97 10.63-.98 12.61-.05 22.6 5.7 22.39 11.74.03-.19.07-.37.07-.56.02-.17.03-.34.02-.5 0-.04.01-.08.01-.12 0-.08-.03-.16-.03-.23z"/>
      <path id="Shape" fill="#481F59" d="M247.933 366c.048-.776.08-1.56.062-2.364-.198-9.856-5.275-17.758-11.35-17.635-6.07.12-10.834 8.22-10.64 18.09.01.29.03.57.045.86 7.088-.28 14.46.02 21.883 1.06z"/>
    </g>
    <g id="esteban-chestnut">
      <g id="Group" fill="#692E7D">
        <path id="Shape" d="M325.44 1045.48c.49 3.695-.038 7.073-1.337 10.016-.435.995-.963 1.935-1.567 2.827 0 0 0 .004-.003.005-.127 3.17-1.18 6.1-2.895 8.525-.01.013-.014.025-.025.035-.263.372-.545.728-.84 1.074-.03.035-.052.07-.083.102-.254.294-.523.576-.8.85-2.367 2.356-5.463 3.977-8.93 4.48 1.99 9.416 11.44 7.384 11.487 7.374 8.515-11.02 9.475-23.337 4.992-35.288z"/>
        <path id="Shape-Copy-2" d="M213.973 1070.01c28.14 57.88 88.033 21.986 89.077 3.15-2.175-.516-4.176-1.468-5.907-2.764-.416-.318-.678-.537-.934-.76-.46-.408-.68-.622-.89-.84-.51-.526-.76-.812-1-1.11-.48-.623-.59-.77-.7-.925-.47-.71-.55-.84-.62-.96-1.28-1.19-2.12-1.63-2.93-2.14-1.68-1.05-3.29-2.32-4.82-3.82-.77-.76-1.56-1.49-2.34-2.21-1.31-1.18-1.97-1.76-2.64-2.32-1.23-1.03-2.04-1.67-2.85-2.3-1.27-.96-1.94-1.45-2.61-1.93-1.43-1.01-2.27-1.57-3.11-2.13-1.16-.74-1.88-1.2-2.62-1.64-2.4-1.43-4.16-2.41-5.93-3.32-1.43-.72-2.22-1.11-3.01-1.49-1.24-.59-2.15-1-3.06-1.4-1.32-.57-2.1-.89-2.88-1.22-1.42-.57-2.35-.93-3.28-1.28-1.13-.42-1.97-.73-2.82-1.02-2.41-.83-4.28-1.44-6.16-2.02-1.39-.42-2.27-.68-3.14-.93 1.04 1.87 1.72 4.09 1.72 6.48-.01 6.9-5.6 12.49-12.51 12.48-6.89 0-12.48-5.6-12.47-12.49 0-4.58 2.48-8.57 6.15-10.74-4.71-1.06-9.3-2.04-13.69-3.07-.88-.21-1.32-.31-1.76-.42l-1.84-.45c-1.06-.26-1.44-.36-1.82-.46l-1.81-.47c-1.14-.31-1.47-.4-1.8-.5-1.14-.32-1.46-.42-1.77-.51-1.14-.34-1.44-.44-1.75-.53-1.13-.36-1.42-.45-1.72-.55-1.11-.38-1.39-.48-1.68-.58-1.1-.4-1.37-.5-1.64-.61-1.07-.41-1.34-.52-1.61-.63-1.05-.44-1.3-.55-1.56-.66-1.02-.46-1.27-.58-1.52-.69-1-.49-1.23-.61-1.47-.73-.97-.52-1.2-.64-1.42-.77-.94-.54-1.16-.67-1.38-.81-.9-.57-1.11-.71-1.32-.85-.87-.61-1.08-.75-1.27-.89-.84-.64-1.03-.79-1.22-.94-.8-.68-.99-.83-1.16-.99-.77-.72-.94-.88-1.11-1.04-.74-.77-.9-.93-1.05-1.1-.71-.81-.85-.97-.99-1.15-.68-.88-.81-1.04-.93-1.2-.2-.28-.39-.56-.57-.84-.57-.86-.83-1.3-1.09-1.75.22-.33.41-.61.62-.89.47-.58.58-.73.72-.89.63-.69.72-.79.81-.88.36-.36.54-.54.73-.72.72-.66.91-.82 1.11-.98.75-.61.97-.78 1.19-.95.82-.6 1.1-.8 1.39-1 .7-.47 1.03-.69 1.37-.9.68-.42 1.21-.74 1.76-1.05.73-.41 1.3-.72 1.88-1.03.77-.4 1.39-.71 2.03-1.01 2.47-1.17 5.06-2.23 7.84-3.2-.97-3.14-2.55-6.37-4.73-9.44-7.23-10.19-18.23-14.8-24.56-10.3-6.34 4.49-5.61 16.39 1.62 26.57 1.65 2.32 3.5 4.33 5.45 6.03-29.51 29.03-1.04 83.32-1.04 83.32-25.84 18.5-34.89 40.86-40.15 63.57.37-1.58.75-3.25 1.12-4.95-1.72 6.44-3.58 13.07-5.6 19.93 0-.4-77.46 25.65-31.75-103.51 21.32-60.29-.33-123.08-51.7-94.98 9.17-13.99 69.04-33.21 94.22 16.87-9.22-30.36-28.47-51.39-64.5-49.43-44.84 2.43-66.46 54.97-70.54 88.6 73.78-31.15 17.29 68.47 6.27 114.91-26.81 118.01 109.58 100.51 117.51 71.42.4 13.02 101.29-.88 98.68-.21.57-3.41.97-6.65 1.25-9.75 2.76-.68 5.92-.99 9.25-.8 3.65.21 7 .97 9.81 2.11 11.87-20.24 8.45-37.56 5.33-46.13 15.1-1.1 31.96-15.35 25.6-28.5-3.97-8.22-14.21-8.72-26.63-4.49-5.25 1.79-9.74 4.41-13.01 7.35-7.99-4.11-7.67-15.99-7.67-15.99 52.29-5.26 81.31-18.69 93.88-34.95-2.57 3.37-9.3 5.73-13.78-2.31-1.84 19.36-74.24 51.11-92.68-8.46z"/>
        <path id="Shape-Copy" d="M123.937 1212.13c.397 13.022 2.775 22.75 2.775 22.75l97.753.035c1.32.008 2.095.007 2.88-.015.57-.015.8.01 1.053.016 16.178.384 26.77-5.997 27.144-12.084.36-6.087-9.666-11.937-22.327-11.884-3.624.01-7.983.3-10.592.975.566-3.41.97-6.648 1.25-9.748 2.757-.68 5.913-.984 9.25-.794 3.644.21 6.998.98 9.81 2.12 11.87-20.24 8.447-37.56 5.33-46.13"/>
      </g>
      <path id="Rectangle-path" fill="#692E7D" d="M320.207 1080.47l-.678.737-.74-.678.68-.74z"/>
      <g id="Group" fill="#835CA4">
        <path id="Shape" d="M284.89 1012.173c6.267 0 11.337 5.06 11.334 11.305-.004 6.235-5.075 11.293-11.34 11.292-6.263-.003-11.337-5.064-11.333-11.3.01-6.244 5.08-11.3 11.34-11.297zm-96.094-17.56c-.574.232-1.138.47-1.692.707l-.078.033c-.714.31-1.41.625-2.086.948l-.114.06c-.638.31-1.26.61-1.862.92l-.175.09c-.59.31-1.15.61-1.7.93-.06.04-.13.07-.18.11-.55.31-1.08.63-1.59.95l-.18.11c-.04.02-.07.05-.11.07-.31.19-.6.39-.89.58-.13.08-.26.17-.38.25-.05.04-.1.07-.15.1-.24.17-.48.34-.71.51-.18.13-.37.26-.54.4-.23.18-.45.35-.66.52-.19.15-.36.29-.54.44-.2.16-.39.32-.57.49-.01 0-.01.01-.01.01-.19.17-.36.33-.54.5-.14.13-.27.26-.4.38l-.16.16c-.15.16-.3.31-.45.47-.08.09-.17.18-.25.27l-.19.21c-.17.19-.33.39-.49.58l-.11.14c-.06.08-.13.16-.19.24-.24.32-.47.63-.67.95.25.45.52.9.8 1.33.09.15.19.28.28.42.19.29.38.57.58.84.12.17.25.33.37.49.18.24.36.49.55.72.14.17.28.33.42.5.18.22.37.44.56.65.15.17.31.33.47.5l.58.6c.16.16.33.32.5.48.2.19.39.38.6.56.17.16.36.31.54.47.2.17.41.35.62.52.19.15.38.3.57.44.22.17.43.34.65.5.2.15.4.29.6.43l.67.47c.2.14.42.28.63.41l.69.44c.22.14.44.27.66.4.23.14.47.28.71.42.22.13.45.26.69.38.24.13.48.26.73.39l.71.36c.25.13.5.25.75.37s.5.24.75.35c.25.12.51.24.77.35l.77.34c.26.11.52.22.79.33.26.11.53.22.8.32.26.11.53.21.8.32.27.1.54.2.82.31l.82.3.85.3c.27.09.55.19.82.28.29.1.59.19.88.29l.84.26c.3.1.61.19.91.28l.83.25.95.28.82.23c.33.1.66.19.99.28l.81.22 1.05.28c.25.06.5.13.76.2.37.1.75.2 1.13.29l.68.17 1.23.3.61.15c.44.11.88.217 1.33.32.14.04.28.07.42.1 4.4 1.03 9 2.01 13.71 3.07 1.86-1.095 4.02-1.73 6.33-1.73 4.51 0 8.45 2.386 10.65 5.95l.13.04c.87.25 1.75.51 2.62.77l.52.157c1.87.58 3.75 1.18 5.62 1.83l.53.19c.85.3 1.69.61 2.54.92.09.04.18.07.28.1.93.35 1.86.71 2.78 1.09l.49.2c.79.32 1.57.648 2.35.98l.53.23c.91.4 1.82.81 2.73 1.24.11.05.22.11.33.16.79.38 1.58.767 2.37 1.16l.64.33c1.77.91 3.53 1.88 5.27 2.91.22.13.44.268.66.4.73.44 1.46.9 2.18 1.36.14.1.29.18.43.28.84.55 1.68 1.12 2.51 1.7l.6.43c.67.48 1.34.97 2 1.47.21.16.41.31.61.46.81.63 1.62 1.27 2.42 1.93.14.12.28.25.43.37.67.565 1.33 1.146 1.99 1.74.22.19.43.39.65.58.78.72 1.57 1.45 2.34 2.21 1.52 1.5 3.14 2.77 4.81 3.82.81.51 1.65.95 2.49 1.36-1.14-2.19-1.8-4.67-1.8-7.31 0-8.76 7.13-15.85 15.92-15.85 8.78 0 15.91 7.1 15.91 15.86 0 .21-.03.42-.04.63.61-.89 1.14-1.83 1.57-2.83 1.3-2.94 1.83-6.31 1.34-9.99l-.01-.01h.01c-27.7-62.87-96.94-64.5-133.24-51.83-1.28.45-2.52.92-3.72 1.4l-.15.06z"/>
        <path id="Shape" d="M41.193 969.44c14.693-22.367 159.496-58.08 83.52 198.07 0-.395-77.524 25.593-31.778-103.295 21.34-60.167-.327-122.817-51.742-94.776z"/>
      </g>
      <path id="Shape" fill="#FFF" d="M284.495 1031.633c-3.933 0-7.125-3.2-7.122-7.132-.002-3.94 3.195-7.13 7.128-7.13 3.94 0 7.14 3.2 7.14 7.14 0 3.94-3.2 7.13-7.14 7.13zm.008-18.633c-6.352-.004-11.5 5.143-11.503 11.5-.004 6.346 5.143 11.497 11.495 11.5 6.357 0 11.5-5.146 11.505-11.492.004-6.357-5.14-11.508-11.497-11.508z"/>
      <path id="Shape" fill="#FFF" d="M228.487 1049.312c-4.3-.003-7.797-3.5-7.797-7.82.003-4.314 3.502-7.816 7.803-7.813 4.326 0 7.818 3.5 7.818 7.81 0 4.32-3.49 7.81-7.82 7.81zm.007-20.312c-6.894-.002-12.492 5.593-12.494 12.493-.004 6.903 5.592 12.506 12.483 12.507 6.914.002 12.513-5.595 12.517-12.5.004-6.898-5.594-12.498-12.506-12.5z"/>
      <path id="Shape" fill="#481F59" d="M179.053 985.01c3.553 5.065 3.947 10.956.89 13.16-3.08 2.198-8.44-.12-12.002-5.185-3.54-5.06-3.94-10.95-.87-13.154 3.07-2.2 8.43.12 11.99 5.18z"/>
      <path id="Shape" fill="#481F59" d="M236 1041.004c-.004 4.418-3.584 7.996-8.014 7.996-4.405-.003-7.986-3.583-7.986-8.003.004-4.416 3.587-8 7.992-7.997 4.43 0 8.008 3.587 8.008 8.004z"/>
      <path id="Shape" fill="#481F59" d="M291 1024.006c-.002 3.86-3.144 6.994-7.008 6.994-3.86 0-6.996-3.14-6.992-7-.002-3.87 3.137-7 6.998-7 3.863 0 7.004 3.136 7.002 7.006z"/>
      <path id="Shape" fill="#481F59" d="M309.345 1073.774c7.71-1.122 13.653-7.75 13.655-15.79.002-8.826-7.144-15.982-15.955-15.984-8.812-.002-15.957 7.148-15.964 15.973 0 7.577 5.27 13.905 12.33 15.554-1.03 18.938-61.16 55.056-89.41-3.16 18.51 59.91 91.19 27.978 93.03 8.508 4.5 8.102 11.28 5.706 13.85 2.312 0 0-9.52 2.076-11.52-7.413z"/>
      <path id="Shape" fill="#481F59" d="M234.18 1132c3.27-2.954 7.747-5.59 12.992-7.39 5.925-2.034 11.342-2.965 15.828-2.495-2.716-4.337-11.332-5.444-20.3-2.367-5.7 1.955-10.254 5.17-12.7 8.56 1.048 1.47 2.41 2.776 4.18 3.692z"/>
      <path id="Shape" fill="#481F59" d="M224.913 1210.437l-.198.056c.057-.017.12-.036.198-.056zm.38-.09c-.087.017-.165.038-.24.056.075-.02.153-.04.24-.057zm.47-.105c-.094.017-.19.038-.275.056l.274-.056zm.52-.105c-.088.017-.18.035-.268.05.088-.015.18-.03.27-.05zm.94-.168c-.053.01-.103.01-.154.02l.15-.03zm.72-.11c-.062 0-.12.01-.18.02l.18-.03zm.76-.11c-.05 0-.1.01-.15.02.05-.01.1-.02.15-.02zm-4.07.76c-.073.02-.134.04-.17.06.036-.02.095-.04.17-.06zm31.33 11.08c-.024-.33-.066-.66-.142-.99-.02-.09-.05-.19-.07-.28-.07-.27-.18-.53-.27-.8-.86-2.46-2.3-4.35-4.09-5.8.07-.31.13-.61.14-.93.32-5.57-7.78-10.54-18.1-11.13-2.75-.16-5.38.02-7.77.47 4.87-42.51-11.47-60.95-43.18-63.17-47 1.41-58.46 36.29-58.47 63.66.01-13.53 12.04-55.13 55.33-56.43 32.1 2.24 51.25 19.82 43.56 65.99 2.62-.68 6.99-.97 10.63-.98 12.61-.05 22.6 5.7 22.39 11.74.03-.19.07-.37.07-.56.02-.17.03-.34.02-.5 0-.04.01-.08.01-.12 0-.08-.03-.16-.03-.23z"/>
      <path id="Shape" fill="#481F59" d="M247.933 988c.048-.776.08-1.56.062-2.364-.198-9.856-5.275-17.758-11.35-17.635-6.07.12-10.834 8.22-10.64 18.09.01.29.03.57.045.86 7.088-.28 14.46.02 21.883 1.06z"/>
    </g>
    <g id="esteban-chestnut-up">
      <g id="Group" fill="#692E7D">
        <path id="Shape" d="M325.44 108.48c.49 3.695-.038 7.073-1.337 10.016-.435.995-.963 1.935-1.567 2.827 0 0 0 .004-.003.005-.127 3.17-1.18 6.1-2.895 8.525-.01.013-.014.025-.025.035-.263.372-.545.728-.84 1.074-.03.035-.052.07-.083.102-.254.294-.523.576-.8.85-2.367 2.356-5.463 3.977-8.93 4.48 1.99 9.416 11.44 7.384 11.487 7.374 8.515-11.02 9.475-23.337 4.992-35.288z"/>
        <path id="Shape-Copy-2" d="M213.973 133.01c28.14 57.88 88.033 21.986 89.077 3.15-2.175-.516-4.176-1.468-5.907-2.764-.416-.318-.678-.537-.934-.76-.46-.408-.68-.622-.89-.84-.51-.526-.76-.812-1-1.11-.48-.623-.59-.77-.7-.925-.47-.71-.55-.84-.62-.96-1.28-1.19-2.12-1.63-2.93-2.14-1.68-1.05-3.29-2.32-4.82-3.82-.77-.76-1.56-1.49-2.34-2.21-1.31-1.18-1.97-1.76-2.64-2.32-1.23-1.03-2.04-1.67-2.85-2.3-1.27-.96-1.94-1.45-2.61-1.93-1.43-1.01-2.27-1.57-3.11-2.13-1.16-.74-1.88-1.2-2.62-1.64-2.4-1.43-4.16-2.41-5.93-3.32-1.43-.72-2.22-1.11-3.01-1.49-1.24-.59-2.15-1-3.06-1.4-1.32-.57-2.1-.89-2.88-1.22-1.42-.57-2.35-.93-3.28-1.28-1.13-.42-1.97-.73-2.82-1.02-2.41-.83-4.28-1.44-6.16-2.02-1.39-.42-2.27-.68-3.14-.93 1.04 1.87 1.72 4.09 1.72 6.48-.01 6.9-5.6 12.49-12.51 12.48-6.89 0-12.48-5.6-12.47-12.49 0-4.58 2.48-8.57 6.15-10.74-4.71-1.06-9.3-2.04-13.69-3.07-.88-.21-1.32-.31-1.76-.42l-1.84-.45c-1.06-.26-1.44-.36-1.82-.46l-1.81-.47c-1.14-.31-1.47-.4-1.8-.5-1.14-.32-1.46-.42-1.77-.51-1.14-.34-1.44-.44-1.75-.53-1.13-.36-1.42-.45-1.72-.55-1.11-.38-1.39-.48-1.68-.58-1.1-.4-1.37-.5-1.64-.61-1.07-.41-1.34-.52-1.61-.63-1.05-.44-1.3-.55-1.56-.66-1.02-.46-1.27-.58-1.52-.69-1-.49-1.23-.61-1.47-.73-.97-.52-1.2-.64-1.42-.77-.94-.54-1.16-.67-1.38-.81-.9-.57-1.11-.71-1.32-.85-.87-.61-1.08-.75-1.27-.89-.84-.64-1.03-.79-1.22-.94-.8-.68-.99-.83-1.16-.99-.77-.72-.94-.88-1.11-1.04-.74-.77-.9-.93-1.05-1.1-.71-.81-.85-.97-.99-1.15-.68-.88-.81-1.04-.93-1.2-.2-.28-.39-.56-.57-.84-.57-.86-.83-1.3-1.09-1.75.22-.33.41-.61.62-.89.47-.58.58-.73.72-.89.63-.69.72-.79.81-.88.36-.36.54-.54.73-.72.72-.66.91-.82 1.11-.98.75-.61.97-.78 1.19-.95.82-.6 1.1-.8 1.39-1 .7-.47 1.03-.69 1.37-.9.68-.42 1.21-.74 1.76-1.05.73-.41 1.3-.72 1.88-1.03.77-.4 1.39-.71 2.03-1.01 2.47-1.17 5.06-2.23 7.84-3.2-.97-3.14-2.55-6.37-4.73-9.44-7.23-10.19-18.23-14.8-24.56-10.3-6.34 4.49-5.61 16.39 1.62 26.57 1.65 2.32 3.5 4.33 5.45 6.03-29.51 29.03-1.04 83.32-1.04 83.32-25.84 18.5-34.89 40.86-40.15 63.57.37-1.58.75-3.25 1.12-4.95-1.72 6.44-3.58 13.07-5.6 19.93 0-.4-77.46 25.65-31.75-103.51C114 67.45 92.35 4.67 40.98 32.77c9.17-13.998 69.042-33.21 94.22 16.865C125.974 19.275 106.727-1.75 70.7.203 25.86 2.63 4.24 55.175.153 88.803c73.784-31.157 17.29 68.468 6.27 114.906C-20.387 321.72 116 304.22 123.937 275.13c.397 13.022 101.295-.883 98.686-.207.566-3.41.97-6.648 1.25-9.748 2.757-.68 5.913-.984 9.25-.794 3.644.21 6.998.98 9.81 2.12 11.87-20.24 8.447-37.56 5.33-46.13 15.094-1.1 31.954-15.35 25.596-28.5-3.98-8.22-14.22-8.72-26.63-4.49-5.26 1.79-9.74 4.41-13.01 7.35-8-4.1-7.68-15.98-7.68-15.98 52.29-5.26 81.31-18.69 93.88-34.95-2.57 3.37-9.3 5.73-13.78-2.31-1.84 19.36-74.25 51.12-92.69-8.46z"/>
        <path id="Shape-Copy" d="M128.5 274.5c2.653 12.753 5.896 33.738 5.896 33.738l96.273-16.94c1.3-.222 2.06-.358 2.83-.516.56-.113.79-.13 1.04-.167 16-2.43 28.14-10.056 27.46-16.115-.3-2.597-3.04-6.706-7-8.326-5.28-2.158-12.76-1.286-19.88 0-3.57.64-5.67 1.207-8.13 2.326-.04-3.457.26-6.722 0-9.823 2.59-1.148 3.05-1.516 6.37-1.908 3.62-.43 7.06-.26 10.02.38 8.17-22 1.79-38.46-2.76-46.36"/>
      </g>
      <path id="Rectangle-path" fill="#692E7D" d="M320.207 143.47l-.678.737-.74-.678.68-.74z"/>
      <g id="Group" fill="#835CA4">
        <path id="Shape" d="M284.89 75.173c6.267 0 11.337 5.06 11.334 11.305-.004 6.235-5.075 11.293-11.34 11.292-6.263-.003-11.337-5.064-11.333-11.3.01-6.244 5.08-11.3 11.34-11.297zm-96.094-17.56c-.574.232-1.138.47-1.692.707l-.078.033c-.714.31-1.41.625-2.086.948l-.114.06c-.638.31-1.26.61-1.862.92l-.175.09c-.59.31-1.15.61-1.7.93-.06.04-.13.07-.18.11-.55.31-1.08.63-1.59.95l-.18.11c-.04.02-.07.05-.11.07-.31.19-.6.39-.89.58-.13.08-.26.17-.38.25-.05.04-.1.07-.15.1-.24.17-.48.34-.71.51-.18.13-.37.26-.54.4-.23.18-.45.35-.66.52-.19.15-.36.29-.54.44-.2.16-.39.32-.57.49-.01 0-.01.01-.01.01-.19.17-.36.33-.54.49l-.4.38-.16.16c-.15.15-.3.31-.45.47-.08.09-.17.18-.25.26l-.19.21-.49.58-.11.14c-.06.08-.13.16-.19.24-.24.32-.47.64-.67.95.25.46.52.9.8 1.33.09.15.19.28.28.42.19.29.38.57.58.84.12.17.25.33.37.49.18.24.36.49.55.72.14.17.28.33.42.5.18.22.37.44.56.65.15.17.31.33.47.5l.58.6c.16.16.33.32.5.48.2.19.39.38.6.56.17.16.36.31.54.47.2.18.41.35.62.53l.57.45c.22.17.43.34.65.5l.6.42.67.47c.2.14.42.28.63.41.23.15.46.3.69.44.22.14.44.27.66.4.23.14.47.28.71.42.22.13.45.26.69.38.24.14.48.26.73.39.23.12.47.25.71.37l.75.37.75.35c.25.12.51.23.77.35l.77.34c.26.11.52.22.79.33.26.11.53.22.8.32.26.11.53.21.8.32.27.1.54.2.82.31.27.1.55.2.82.3l.85.3c.27.1.55.19.82.28.29.1.59.2.88.29.28.1.56.18.84.27.3.09.61.19.91.28l.83.25.95.28.82.23.99.28.81.22 1.05.28.76.2c.37.1.75.2 1.13.29.22.06.45.11.68.17l1.23.3.61.15c.44.1.88.21 1.33.31.14.04.28.07.42.1 4.4 1.03 9 2.01 13.71 3.07 1.86-1.1 4.02-1.73 6.33-1.73 4.51 0 8.45 2.38 10.65 5.95.04.01.08.02.13.04.87.25 1.75.51 2.62.77l.52.15c1.87.58 3.75 1.18 5.62 1.83l.53.19c.85.3 1.69.61 2.54.92.09.04.18.07.28.1.93.35 1.86.71 2.78 1.09l.49.2c.79.32 1.57.65 2.35.98l.53.23c.91.4 1.82.81 2.73 1.24.11.05.22.11.33.16.79.37 1.58.76 2.37 1.16.21.11.42.21.64.33 1.77.91 3.53 1.88 5.27 2.91.22.13.44.27.66.4.73.44 1.46.9 2.18 1.36.14.1.29.18.43.28.84.55 1.68 1.12 2.51 1.7l.6.43c.67.48 1.34.97 2 1.47l.61.46c.81.63 1.62 1.27 2.42 1.93.14.12.28.25.43.37.67.56 1.33 1.14 1.99 1.74l.65.59c.78.72 1.57 1.45 2.34 2.21 1.52 1.5 3.14 2.77 4.81 3.82.81.51 1.65.95 2.49 1.36-1.14-2.19-1.8-4.67-1.8-7.31 0-8.76 7.13-15.85 15.92-15.85 8.78 0 15.91 7.1 15.91 15.86 0 .21-.03.42-.04.63.61-.89 1.14-1.83 1.57-2.82 1.3-2.93 1.83-6.31 1.34-9.99l-.01-.01h.01c-27.6-62.96-96.85-64.59-133.15-51.92-1.28.45-2.52.92-3.72 1.4l-.15.056z"/>
        <path id="Shape" d="M41.193 32.44c14.693-22.367 159.496-58.08 83.52 198.07 0-.395-77.524 25.593-31.778-103.295 21.34-60.167-.327-122.817-51.742-94.776z"/>
      </g>
      <path id="Shape" fill="#FFF" d="M284.495 94.633c-3.933 0-7.125-3.2-7.122-7.132-.002-3.94 3.195-7.13 7.128-7.13 3.94 0 7.14 3.2 7.14 7.14 0 3.94-3.2 7.13-7.14 7.13zM284.503 76c-6.352-.004-11.5 5.143-11.503 11.5-.004 6.346 5.143 11.497 11.495 11.5 6.357 0 11.5-5.146 11.505-11.492C296.004 81.15 290.86 76 284.503 76z"/>
      <path id="Shape" fill="#FFF" d="M228.487 112.312c-4.3-.003-7.797-3.5-7.797-7.82.003-4.314 3.502-7.816 7.803-7.813 4.326 0 7.818 3.5 7.818 7.81 0 4.32-3.49 7.81-7.82 7.81zM228.494 92c-6.894-.002-12.492 5.593-12.494 12.493-.004 6.903 5.592 12.506 12.483 12.507 6.914.002 12.513-5.595 12.517-12.5.004-6.898-5.594-12.498-12.506-12.5z"/>
      <path id="Shape" fill="#481F59" d="M179.053 48.01c3.553 5.065 3.947 10.956.89 13.16-3.08 2.198-8.44-.12-12.002-5.185-3.54-5.06-3.94-10.95-.87-13.154 3.07-2.2 8.43.12 11.99 5.18z"/>
      <path id="Shape" fill="#481F59" d="M236 104.004c-.004 4.418-3.584 7.996-8.014 7.996-4.405-.003-7.986-3.583-7.986-8.003.004-4.416 3.587-8 7.992-7.997 4.43 0 8.008 3.587 8.008 8.004z"/>
      <path id="Shape" fill="#481F59" d="M291 87.006c-.002 3.86-3.144 6.994-7.008 6.994-3.86 0-6.996-3.14-6.992-7-.002-3.87 3.137-7 6.998-7 3.863 0 7.004 3.136 7.002 7.006z"/>
      <path id="Shape" fill="#481F59" d="M309.345 136.774c7.71-1.122 13.653-7.75 13.655-15.79.002-8.826-7.144-15.982-15.955-15.984-8.812-.002-15.957 7.148-15.964 15.973 0 7.577 5.27 13.905 12.33 15.554-1.03 18.938-61.16 55.056-89.41-3.16 18.51 59.91 91.19 27.978 93.03 8.508 4.5 8.102 11.28 5.706 13.85 2.312 0 0-9.52 2.076-11.52-7.413z"/>
      <path id="Shape" fill="#481F59" d="M234.18 195c3.27-2.954 7.747-5.59 12.992-7.39 5.925-2.034 11.342-2.965 15.828-2.495-2.716-4.337-11.332-5.444-20.3-2.367-5.7 1.955-10.254 5.17-12.7 8.56 1.048 1.47 2.41 2.776 4.18 3.692z"/>
      <path id="Shape" fill="#481F59" d="M229.494 266.928c-.07.032-.133.062-.185.09.05-.028.11-.058.18-.09zm.358-.156c-.082.033-.155.067-.226.097.07-.04.144-.07.226-.1zm.445-.184c-.09.033-.18.07-.26.102.08-.032.17-.068.26-.102zm.496-.194l-.257.096c.084-.03.172-.063.257-.096zm.896-.33l-.15.055.15-.06zm.69-.228c-.06.016-.12.036-.18.055.05-.01.11-.03.17-.05zm.73-.24c-.05.014-.1.033-.15.05.05-.016.09-.036.14-.05zm-3.88 1.46c-.07.036-.13.068-.16.09.03-.022.09-.053.16-.09zm32.78 5.472c-.08-.322-.18-.637-.31-.943-.04-.086-.09-.172-.13-.26-.12-.25-.27-.487-.41-.737-1.28-2.27-3.02-3.877-5.04-5 .01-.312.01-.622-.02-.933-.66-5.537-9.5-9.03-19.77-7.82-2.74.324-5.3.96-7.57 1.815-2.59-42.7-21.88-58.026-53.49-54.704-46.05 9.556-51.27 45.89-46.53 72.85-2.35-13.322 2.28-56.375 44.69-65.176 32-3.363 53.9 10.63 54.35 57.424 2.46-1.12 6.71-2.163 10.29-2.805 12.4-2.24 23.24 1.69 24.09 7.67-.01-.19 0-.38-.03-.57-.02-.17-.03-.33-.07-.49-.01-.04-.01-.08-.01-.12-.02-.08-.06-.15-.08-.22z"/>
      <path id="Shape" fill="#481F59" d="M247.933 51c.048-.776.08-1.56.062-2.364-.198-9.856-5.275-17.758-11.35-17.635-6.07.12-10.834 8.22-10.64 18.09.01.29.03.57.045.86 7.088-.28 14.46.02 21.883 1.06z"/>
    </g>
</svg>
