<svg xmlns="http://www.w3.org/2000/svg" viewBox="1 0 4001 1348">
    <g id="tree1">
      <g transform="translate(1478 70)">
        <path id="Tree-Stump" fill="#AB6333" d="M220.598 325.112L188.985 882h106.65L252.56 325.112z"/>
        <ellipse id="Leaf1" cx="331.418" cy="282.434" fill="#249024" rx="162.582" ry="168.281"/>
        <ellipse id="Leaf2" cx="228.935" cy="327.02" fill="#86B62D" rx="130.274" ry="123.695"/>
        <ellipse id="Leaf3" cx="87.023" cy="267.341" fill="#5B9B12" rx="87.023" ry="91.08"/>
        <ellipse id="Leaf4" cx="276.703" cy="162.556" fill="#249024" rx="189.506" ry="162.556"/>
        <ellipse id="Leaf5" cx="324.991" cy="307.59" fill="#5B9B12" rx="96.056" ry="94.897"/>
        <ellipse id="Leaf6" cx="124.195" cy="390.863" fill="#249024" rx="64.79" ry="59.852"/>
        <ellipse id="Leaf7" cx="391.344" cy="233.338" fill="#A6D452" rx="74.864" ry="70.609"/>
        <ellipse id="Leaf8" cx="325.165" cy="391.036" fill="#A6D452" rx="31.266" ry="28.452"/>
      </g>
    </g>
    <g id="tree1">
      <g transform="translate(2978 253)">
        <path id="Tree-Stump" fill="#AB6333" d="M220.598 325.112L188.985 882h106.65L252.56 325.112z"/>
        <ellipse id="Leaf1" cx="331.418" cy="282.434" fill="#249024" rx="162.582" ry="168.281"/>
        <ellipse id="Leaf2" cx="228.935" cy="327.02" fill="#86B62D" rx="130.274" ry="123.695"/>
        <ellipse id="Leaf3" cx="87.023" cy="267.341" fill="#5B9B12" rx="87.023" ry="91.08"/>
        <ellipse id="Leaf4" cx="276.703" cy="162.556" fill="#249024" rx="189.506" ry="162.556"/>
        <ellipse id="Leaf5" cx="324.991" cy="307.59" fill="#5B9B12" rx="96.056" ry="94.897"/>
        <ellipse id="Leaf6" cx="124.195" cy="390.863" fill="#249024" rx="64.79" ry="59.852"/>
        <ellipse id="Leaf7" cx="391.344" cy="233.338" fill="#A6D452" rx="74.864" ry="70.609"/>
        <ellipse id="Leaf8" cx="325.165" cy="391.036" fill="#A6D452" rx="31.266" ry="28.452"/>
      </g>
    </g>
    <path id="grass" fill="#86B62D" d="M1 1156c603.825-149.48 1160.647-221.016 1670.464-214.606 764.725 9.615 693.194 132.165 1121.21 145.293 114.44 3.51 249.593 8.716 405.457 15.618 155.18 6.872 434.14 24.77 836.87 53.695v192.152H1V1156z"/>
    <g id="bush3" fill="#A6D452">
      <g>
        <path d="M1059.917 843.654c64.974-16.385 124.987.088 137.823 39.593 6.303 19.4.137 40.995-15.138 60.903 9.243 8.382 14.36 17.613 14.36 27.308 0 38.36-80.122 69.458-178.96 69.458-98.837 0-178.96-31.097-178.96-69.458 0-12.75 8.85-24.698 24.3-34.968 1.907-19.32 11.888-36.92 28.803-47.084 7.47-4.488 15.585-7.102 23.865-7.985-5.38-37.42 6.956-71.54 34.31-85.48 34.864-17.76 81.906 3.48 109.597 47.72z"/>
      </g>
    </g>
    <g id="bush4" fill="#5B9B12">
      <g>
        <path d="M1370.094 882.68C1390.21 893.892 1402 907.512 1402 922.2c0 38.292-80.14 69.333-179 69.333s-179-31.04-179-69.333c0-13.146 9.446-25.438 25.853-35.913 2.18-18.882 12.115-36.012 28.723-45.992 11.17-6.71 23.776-9.24 36.217-8.064 4.41-40.1 36.778-71.23 76.054-71.23 41.563 0 75.39 34.87 76.535 78.33 23.69-8.57 50.053-4.07 67.37 13.86 8.074 8.36 13.163 18.59 15.342 29.5z"/>
      </g>
    </g>
    <g id="bush2" fill="#249024">
      <g>
        <path d="M2979.458 989.855c66.02 11.46 114.145 50.917 109.803 92.227-2.13 20.287-16.54 37.507-38.6 49.48 5.04 11.418 5.96 21.932 2.02 30.79-15.6 35.043-101.45 30.863-191.74-9.338-90.29-40.2-150.84-101.2-135.24-136.243 5.19-11.64 18.13-18.96 36.42-22.06 9.6-16.87 25.88-28.89 45.47-31.29 8.65-1.06 17.13-.15 25.05 2.41 10.31-36.38 35.46-62.53 66.12-64.13 39.08-2.05 73.41 36.49 80.72 88.17z"/>
      </g>
    </g>
    <g id="bush1" fill="#5B9B12">
      <g>
        <path d="M2835.134 1084.13c19.285 12.588 30.097 26.998 29.072 41.65-2.67 38.2-84.782 63.574-183.4 56.678-98.618-6.896-176.4-43.452-173.728-81.65.917-13.115 11.198-24.718 28.296-34.023 3.49-18.683 14.597-35.08 31.86-43.876 11.61-5.92 24.363-7.56 36.692-5.52 7.196-39.7 41.658-68.49 80.837-65.75 41.462 2.89 72.776 40.03 70.886 83.47 24.23-6.91 50.21-.57 66.23 18.52 7.47 8.9 11.83 19.46 13.25 30.49z"/>
      </g>
    </g>
    <g id="flower1">
      <g transform="translate(1323 887)">
        <path id="leaves1" fill="#F76E54" d="M15.667 30.53c-1.417.3-2.998.47-4.667.47-6.075 0-11-2.24-11-5s4.925-5 11-5c2.49 0 4.788.376 6.632 1.01-1.285-1.084-2.57-2.49-3.728-4.142C10.42 12.89 9.43 7.573 11.69 5.988c2.263-1.583 6.92 1.168 10.406 6.144.35.5.674 1.003.973 1.506-.08-.9-.1-1.843-.07-2.812.21-6.072 2.62-10.916 5.38-10.82 2.76.097 4.82 5.097 4.61 11.168-.06 1.504-.24 2.93-.54 4.228.69-.762 1.46-1.514 2.32-2.232 4.65-3.905 9.86-5.356 11.64-3.24 1.77 2.115-.56 6.995-5.21 10.9-.53.44-1.06.85-1.59 1.227.42-.03.85-.05 1.29-.056 6.07-.1 11.04 2.05 11.09 4.81.05 2.76-4.84 5.09-10.91 5.19-1.85.04-3.59-.14-5.13-.48 1.08 1 2.15 2.22 3.13 3.62 3.48 4.98 4.47 10.3 2.21 11.88-2.24 1.57-6.83-1.11-10.31-6 0 .06-.01.11-.01.17-.21 6.07-2.62 10.92-5.38 10.82-2.76-.09-4.83-5.09-4.62-11.17.04-1.09.15-2.15.32-3.15-.86 1.08-1.91 2.15-3.11 3.16-4.66 3.91-9.87 5.36-11.64 3.24-1.78-2.11.56-6.99 5.21-10.9 1.28-1.07 2.6-1.96 3.88-2.64zm4.025-1.466c1.65-.28 2.993-.02 3.734.865.3.35.483.79.557 1.29.73-.81 1.55-1.25 2.4-1.22.458.01.895.16 1.307.43.195-.63.526-1.12 1-1.45.485-.34 1.08-.48 1.75-.45-.278-.43-.43-.89-.438-1.36-.014-.8.387-1.57 1.112-2.25-.64-.14-1.167-.43-1.54-.87-.518-.62-.686-1.47-.55-2.47-.452.26-.924.4-1.408.38-.762-.03-1.47-.43-2.094-1.12.026 1.42-.365 2.54-1.213 3.14-.79.54-1.85.57-3.06.17.48.56.74 1.17.74 1.81 0 1.15-.86 2.21-2.31 3.06z"/>
        <ellipse id="nectar1" cx="25.5" cy="27" fill="#FEEEC5" rx="6.5" ry="6"/>
      </g>
    </g>
    <g id="flower2">
      <g transform="rotate(-29 2217.885 -1554.648)">
        <path id="leaves2" fill="#6DE5EA" d="M15.667 30.53c-1.417.3-2.998.47-4.667.47-6.075 0-11-2.24-11-5s4.925-5 11-5c2.49 0 4.788.376 6.632 1.01-1.285-1.084-2.57-2.49-3.728-4.142C10.42 12.89 9.43 7.573 11.69 5.988c2.263-1.583 6.92 1.168 10.406 6.144.35.5.674 1.003.973 1.506-.08-.9-.1-1.843-.07-2.812.21-6.072 2.62-10.916 5.38-10.82 2.76.097 4.82 5.097 4.61 11.168-.06 1.504-.24 2.93-.54 4.228.69-.762 1.46-1.514 2.32-2.232 4.65-3.905 9.86-5.356 11.64-3.24 1.77 2.115-.56 6.995-5.21 10.9-.53.44-1.06.85-1.59 1.227.42-.03.85-.05 1.29-.056 6.07-.1 11.04 2.05 11.09 4.81.05 2.76-4.84 5.09-10.91 5.19-1.85.04-3.59-.14-5.13-.48 1.08 1 2.15 2.22 3.13 3.62 3.48 4.98 4.47 10.3 2.21 11.88-2.24 1.57-6.83-1.11-10.31-6 0 .06-.01.11-.01.17-.21 6.07-2.62 10.92-5.38 10.82-2.76-.09-4.83-5.09-4.62-11.17.04-1.09.15-2.15.32-3.15-.86 1.08-1.91 2.15-3.11 3.16-4.66 3.91-9.87 5.36-11.64 3.24-1.78-2.11.56-6.99 5.21-10.9 1.28-1.07 2.6-1.96 3.88-2.64zm4.025-1.466c1.65-.28 2.993-.02 3.734.865.3.35.483.79.557 1.29.73-.81 1.55-1.25 2.4-1.22.458.01.895.16 1.307.43.195-.63.526-1.12 1-1.45.485-.34 1.08-.48 1.75-.45-.278-.43-.43-.89-.438-1.36-.014-.8.387-1.57 1.112-2.25-.64-.14-1.167-.43-1.54-.87-.518-.62-.686-1.47-.55-2.47-.452.26-.924.4-1.408.38-.762-.03-1.47-.43-2.094-1.12.026 1.42-.365 2.54-1.213 3.14-.79.54-1.85.57-3.06.17.48.56.74 1.17.74 1.81 0 1.15-.86 2.21-2.31 3.06z"/>
        <ellipse id="nectar2" cx="25.5" cy="27" fill="#FEEEC5" rx="6.5" ry="6"/>
      </g>
    </g>
    <g id="flower3">
      <g transform="rotate(-29 3064.234 -3692.77)">
        <path id="leaves3" fill="#CD4963" d="M15.667 30.53c-1.417.3-2.998.47-4.667.47-6.075 0-11-2.24-11-5s4.925-5 11-5c2.49 0 4.788.376 6.632 1.01-1.285-1.084-2.57-2.49-3.728-4.142C10.42 12.89 9.43 7.573 11.69 5.988c2.263-1.583 6.92 1.168 10.406 6.144.35.5.674 1.003.973 1.506-.08-.9-.1-1.843-.07-2.812.21-6.072 2.62-10.916 5.38-10.82 2.76.097 4.82 5.097 4.61 11.168-.06 1.504-.24 2.93-.54 4.228.69-.762 1.46-1.514 2.32-2.232 4.65-3.905 9.86-5.356 11.64-3.24 1.77 2.115-.56 6.995-5.21 10.9-.53.44-1.06.85-1.59 1.227.42-.03.85-.05 1.29-.056 6.07-.1 11.04 2.05 11.09 4.81.05 2.76-4.84 5.09-10.91 5.19-1.85.04-3.59-.14-5.13-.48 1.08 1 2.15 2.22 3.13 3.62 3.48 4.98 4.47 10.3 2.21 11.88-2.24 1.57-6.83-1.11-10.31-6 0 .06-.01.11-.01.17-.21 6.07-2.62 10.92-5.38 10.82-2.76-.09-4.83-5.09-4.62-11.17.04-1.09.15-2.15.32-3.15-.86 1.08-1.91 2.15-3.11 3.16-4.66 3.91-9.87 5.36-11.64 3.24-1.78-2.11.56-6.99 5.21-10.9 1.28-1.07 2.6-1.96 3.88-2.64zm4.025-1.466c1.65-.28 2.993-.02 3.734.865.3.35.483.79.557 1.29.73-.81 1.55-1.25 2.4-1.22.458.01.895.16 1.307.43.195-.63.526-1.12 1-1.45.485-.34 1.08-.48 1.75-.45-.278-.43-.43-.89-.438-1.36-.014-.8.387-1.57 1.112-2.25-.64-.14-1.167-.43-1.54-.87-.518-.62-.686-1.47-.55-2.47-.452.26-.924.4-1.408.38-.762-.03-1.47-.43-2.094-1.12.026 1.42-.365 2.54-1.213 3.14-.79.54-1.85.57-3.06.17.48.56.74 1.17.74 1.81 0 1.15-.86 2.21-2.31 3.06z"/>
        <ellipse id="nectar3" cx="25.5" cy="27" fill="#FEEEC5" rx="6.5" ry="6"/>
      </g>
    </g>
    <g id="flower4">
      <g transform="rotate(-29 3446.4 -4891.35)">
        <path id="leaves4" fill="#A83A55" d="M15.667 30.53c-1.417.3-2.998.47-4.667.47-6.075 0-11-2.24-11-5s4.925-5 11-5c2.49 0 4.788.376 6.632 1.01-1.285-1.084-2.57-2.49-3.728-4.142C10.42 12.89 9.43 7.573 11.69 5.988c2.263-1.583 6.92 1.168 10.406 6.144.35.5.674 1.003.973 1.506-.08-.9-.1-1.843-.07-2.812.21-6.072 2.62-10.916 5.38-10.82 2.76.097 4.82 5.097 4.61 11.168-.06 1.504-.24 2.93-.54 4.228.69-.762 1.46-1.514 2.32-2.232 4.65-3.905 9.86-5.356 11.64-3.24 1.77 2.115-.56 6.995-5.21 10.9-.53.44-1.06.85-1.59 1.227.42-.03.85-.05 1.29-.056 6.07-.1 11.04 2.05 11.09 4.81.05 2.76-4.84 5.09-10.91 5.19-1.85.04-3.59-.14-5.13-.48 1.08 1 2.15 2.22 3.13 3.62 3.48 4.98 4.47 10.3 2.21 11.88-2.24 1.57-6.83-1.11-10.31-6 0 .06-.01.11-.01.17-.21 6.07-2.62 10.92-5.38 10.82-2.76-.09-4.83-5.09-4.62-11.17.04-1.09.15-2.15.32-3.15-.86 1.08-1.91 2.15-3.11 3.16-4.66 3.91-9.87 5.36-11.64 3.24-1.78-2.11.56-6.99 5.21-10.9 1.28-1.07 2.6-1.96 3.88-2.64zm4.025-1.466c1.65-.28 2.993-.02 3.734.865.3.35.483.79.557 1.29.73-.81 1.55-1.25 2.4-1.22.458.01.895.16 1.307.43.195-.63.526-1.12 1-1.45.485-.34 1.08-.48 1.75-.45-.278-.43-.43-.89-.438-1.36-.014-.8.387-1.57 1.112-2.25-.64-.14-1.167-.43-1.54-.87-.518-.62-.686-1.47-.55-2.47-.452.26-.924.4-1.408.38-.762-.03-1.47-.43-2.094-1.12.026 1.42-.365 2.54-1.213 3.14-.79.54-1.85.57-3.06.17.48.56.74 1.17.74 1.81 0 1.15-.86 2.21-2.31 3.06z"/>
        <ellipse id="nectar4" cx="25.5" cy="27" fill="#FEEEC5" rx="6.5" ry="6"/>
      </g>
    </g>
    <g id="flower1">
      <g transform="translate(2571 1072)">
        <path id="leaves1" fill="#F76E54" d="M15.667 30.53c-1.417.3-2.998.47-4.667.47-6.075 0-11-2.24-11-5s4.925-5 11-5c2.49 0 4.788.376 6.632 1.01-1.285-1.084-2.57-2.49-3.728-4.142C10.42 12.89 9.43 7.573 11.69 5.988c2.263-1.583 6.92 1.168 10.406 6.144.35.5.674 1.003.973 1.506-.08-.9-.1-1.843-.07-2.812.21-6.072 2.62-10.916 5.38-10.82 2.76.097 4.82 5.097 4.61 11.168-.06 1.504-.24 2.93-.54 4.228.69-.762 1.46-1.514 2.32-2.232 4.65-3.905 9.86-5.356 11.64-3.24 1.77 2.115-.56 6.995-5.21 10.9-.53.44-1.06.85-1.59 1.227.42-.03.85-.05 1.29-.056 6.07-.1 11.04 2.05 11.09 4.81.05 2.76-4.84 5.09-10.91 5.19-1.85.04-3.59-.14-5.13-.48 1.08 1 2.15 2.22 3.13 3.62 3.48 4.98 4.47 10.3 2.21 11.88-2.24 1.57-6.83-1.11-10.31-6 0 .06-.01.11-.01.17-.21 6.07-2.62 10.92-5.38 10.82-2.76-.09-4.83-5.09-4.62-11.17.04-1.09.15-2.15.32-3.15-.86 1.08-1.91 2.15-3.11 3.16-4.66 3.91-9.87 5.36-11.64 3.24-1.78-2.11.56-6.99 5.21-10.9 1.28-1.07 2.6-1.96 3.88-2.64zm4.025-1.466c1.65-.28 2.993-.02 3.734.865.3.35.483.79.557 1.29.73-.81 1.55-1.25 2.4-1.22.458.01.895.16 1.307.43.195-.63.526-1.12 1-1.45.485-.34 1.08-.48 1.75-.45-.278-.43-.43-.89-.438-1.36-.014-.8.387-1.57 1.112-2.25-.64-.14-1.167-.43-1.54-.87-.518-.62-.686-1.47-.55-2.47-.452.26-.924.4-1.408.38-.762-.03-1.47-.43-2.094-1.12.026 1.42-.365 2.54-1.213 3.14-.79.54-1.85.57-3.06.17.48.56.74 1.17.74 1.81 0 1.15-.86 2.21-2.31 3.06z"/>
        <ellipse id="nectar1" cx="25.5" cy="27" fill="#FEEEC5" rx="6.5" ry="6"/>
      </g>
    </g>
    <g id="flower2">
      <g transform="rotate(-29 3961.725 -6064.37)">
        <path id="leaves2" fill="#6DE5EA" d="M15.667 30.53c-1.417.3-2.998.47-4.667.47-6.075 0-11-2.24-11-5s4.925-5 11-5c2.49 0 4.788.376 6.632 1.01-1.285-1.084-2.57-2.49-3.728-4.142C10.42 12.89 9.43 7.573 11.69 5.988c2.263-1.583 6.92 1.168 10.406 6.144.35.5.674 1.003.973 1.506-.08-.9-.1-1.843-.07-2.812.21-6.072 2.62-10.916 5.38-10.82 2.76.097 4.82 5.097 4.61 11.168-.06 1.504-.24 2.93-.54 4.228.69-.762 1.46-1.514 2.32-2.232 4.65-3.905 9.86-5.356 11.64-3.24 1.77 2.115-.56 6.995-5.21 10.9-.53.44-1.06.85-1.59 1.227.42-.03.85-.05 1.29-.056 6.07-.1 11.04 2.05 11.09 4.81.05 2.76-4.84 5.09-10.91 5.19-1.85.04-3.59-.14-5.13-.48 1.08 1 2.15 2.22 3.13 3.62 3.48 4.98 4.47 10.3 2.21 11.88-2.24 1.57-6.83-1.11-10.31-6 0 .06-.01.11-.01.17-.21 6.07-2.62 10.92-5.38 10.82-2.76-.09-4.83-5.09-4.62-11.17.04-1.09.15-2.15.32-3.15-.86 1.08-1.91 2.15-3.11 3.16-4.66 3.91-9.87 5.36-11.64 3.24-1.78-2.11.56-6.99 5.21-10.9 1.28-1.07 2.6-1.96 3.88-2.64zm4.025-1.466c1.65-.28 2.993-.02 3.734.865.3.35.483.79.557 1.29.73-.81 1.55-1.25 2.4-1.22.458.01.895.16 1.307.43.195-.63.526-1.12 1-1.45.485-.34 1.08-.48 1.75-.45-.278-.43-.43-.89-.438-1.36-.014-.8.387-1.57 1.112-2.25-.64-.14-1.167-.43-1.54-.87-.518-.62-.686-1.47-.55-2.47-.452.26-.924.4-1.408.38-.762-.03-1.47-.43-2.094-1.12.026 1.42-.365 2.54-1.213 3.14-.79.54-1.85.57-3.06.17.48.56.74 1.17.74 1.81 0 1.15-.86 2.21-2.31 3.06z"/>
        <ellipse id="nectar2" cx="25.5" cy="27" fill="#FEEEC5" rx="6.5" ry="6"/>
      </g>
    </g>
    <g id="flower3">
      <g transform="rotate(-29 2412.166 -1641.978)">
        <path id="leaves3" fill="#CD4963" d="M15.667 30.53c-1.417.3-2.998.47-4.667.47-6.075 0-11-2.24-11-5s4.925-5 11-5c2.49 0 4.788.376 6.632 1.01-1.285-1.084-2.57-2.49-3.728-4.142C10.42 12.89 9.43 7.573 11.69 5.988c2.263-1.583 6.92 1.168 10.406 6.144.35.5.674 1.003.973 1.506-.08-.9-.1-1.843-.07-2.812.21-6.072 2.62-10.916 5.38-10.82 2.76.097 4.82 5.097 4.61 11.168-.06 1.504-.24 2.93-.54 4.228.69-.762 1.46-1.514 2.32-2.232 4.65-3.905 9.86-5.356 11.64-3.24 1.77 2.115-.56 6.995-5.21 10.9-.53.44-1.06.85-1.59 1.227.42-.03.85-.05 1.29-.056 6.07-.1 11.04 2.05 11.09 4.81.05 2.76-4.84 5.09-10.91 5.19-1.85.04-3.59-.14-5.13-.48 1.08 1 2.15 2.22 3.13 3.62 3.48 4.98 4.47 10.3 2.21 11.88-2.24 1.57-6.83-1.11-10.31-6 0 .06-.01.11-.01.17-.21 6.07-2.62 10.92-5.38 10.82-2.76-.09-4.83-5.09-4.62-11.17.04-1.09.15-2.15.32-3.15-.86 1.08-1.91 2.15-3.11 3.16-4.66 3.91-9.87 5.36-11.64 3.24-1.78-2.11.56-6.99 5.21-10.9 1.28-1.07 2.6-1.96 3.88-2.64zm4.025-1.466c1.65-.28 2.993-.02 3.734.865.3.35.483.79.557 1.29.73-.81 1.55-1.25 2.4-1.22.458.01.895.16 1.307.43.195-.63.526-1.12 1-1.45.485-.34 1.08-.48 1.75-.45-.278-.43-.43-.89-.438-1.36-.014-.8.387-1.57 1.112-2.25-.64-.14-1.167-.43-1.54-.87-.518-.62-.686-1.47-.55-2.47-.452.26-.924.4-1.408.38-.762-.03-1.47-.43-2.094-1.12.026 1.42-.365 2.54-1.213 3.14-.79.54-1.85.57-3.06.17.48.56.74 1.17.74 1.81 0 1.15-.86 2.21-2.31 3.06z"/>
        <ellipse id="nectar3" cx="25.5" cy="27" fill="#FEEEC5" rx="6.5" ry="6"/>
      </g>
    </g>
    <g id="flower1">
      <g transform="translate(111 1164)">
        <path id="leaves1" fill="#F76E54" d="M15.667 30.53c-1.417.3-2.998.47-4.667.47-6.075 0-11-2.24-11-5s4.925-5 11-5c2.49 0 4.788.376 6.632 1.01-1.285-1.084-2.57-2.49-3.728-4.142C10.42 12.89 9.43 7.573 11.69 5.988c2.263-1.583 6.92 1.168 10.406 6.144.35.5.674 1.003.973 1.506-.08-.9-.1-1.843-.07-2.812.21-6.072 2.62-10.916 5.38-10.82 2.76.097 4.82 5.097 4.61 11.168-.06 1.504-.24 2.93-.54 4.228.69-.762 1.46-1.514 2.32-2.232 4.65-3.905 9.86-5.356 11.64-3.24 1.77 2.115-.56 6.995-5.21 10.9-.53.44-1.06.85-1.59 1.227.42-.03.85-.05 1.29-.056 6.07-.1 11.04 2.05 11.09 4.81.05 2.76-4.84 5.09-10.91 5.19-1.85.04-3.59-.14-5.13-.48 1.08 1 2.15 2.22 3.13 3.62 3.48 4.98 4.47 10.3 2.21 11.88-2.24 1.57-6.83-1.11-10.31-6 0 .06-.01.11-.01.17-.21 6.07-2.62 10.92-5.38 10.82-2.76-.09-4.83-5.09-4.62-11.17.04-1.09.15-2.15.32-3.15-.86 1.08-1.91 2.15-3.11 3.16-4.66 3.91-9.87 5.36-11.64 3.24-1.78-2.11.56-6.99 5.21-10.9 1.28-1.07 2.6-1.96 3.88-2.64zm4.025-1.466c1.65-.28 2.993-.02 3.734.865.3.35.483.79.557 1.29.73-.81 1.55-1.25 2.4-1.22.458.01.895.16 1.307.43.195-.63.526-1.12 1-1.45.485-.34 1.08-.48 1.75-.45-.278-.43-.43-.89-.438-1.36-.014-.8.387-1.57 1.112-2.25-.64-.14-1.167-.43-1.54-.87-.518-.62-.686-1.47-.55-2.47-.452.26-.924.4-1.408.38-.762-.03-1.47-.43-2.094-1.12.026 1.42-.365 2.54-1.213 3.14-.79.54-1.85.57-3.06.17.48.56.74 1.17.74 1.81 0 1.15-.86 2.21-2.31 3.06z"/>
        <ellipse id="nectar1" cx="25.5" cy="27" fill="#FEEEC5" rx="6.5" ry="6"/>
      </g>
    </g>
    <g id="flower2">
      <g transform="rotate(-29 2424.723 -719.405)">
        <path id="leaves2" fill="#6DE5EA" d="M15.667 30.53c-1.417.3-2.998.47-4.667.47-6.075 0-11-2.24-11-5s4.925-5 11-5c2.49 0 4.788.376 6.632 1.01-1.285-1.084-2.57-2.49-3.728-4.142C10.42 12.89 9.43 7.573 11.69 5.988c2.263-1.583 6.92 1.168 10.406 6.144.35.5.674 1.003.973 1.506-.08-.9-.1-1.843-.07-2.812.21-6.072 2.62-10.916 5.38-10.82 2.76.097 4.82 5.097 4.61 11.168-.06 1.504-.24 2.93-.54 4.228.69-.762 1.46-1.514 2.32-2.232 4.65-3.905 9.86-5.356 11.64-3.24 1.77 2.115-.56 6.995-5.21 10.9-.53.44-1.06.85-1.59 1.227.42-.03.85-.05 1.29-.056 6.07-.1 11.04 2.05 11.09 4.81.05 2.76-4.84 5.09-10.91 5.19-1.85.04-3.59-.14-5.13-.48 1.08 1 2.15 2.22 3.13 3.62 3.48 4.98 4.47 10.3 2.21 11.88-2.24 1.57-6.83-1.11-10.31-6 0 .06-.01.11-.01.17-.21 6.07-2.62 10.92-5.38 10.82-2.76-.09-4.83-5.09-4.62-11.17.04-1.09.15-2.15.32-3.15-.86 1.08-1.91 2.15-3.11 3.16-4.66 3.91-9.87 5.36-11.64 3.24-1.78-2.11.56-6.99 5.21-10.9 1.28-1.07 2.6-1.96 3.88-2.64zm4.025-1.466c1.65-.28 2.993-.02 3.734.865.3.35.483.79.557 1.29.73-.81 1.55-1.25 2.4-1.22.458.01.895.16 1.307.43.195-.63.526-1.12 1-1.45.485-.34 1.08-.48 1.75-.45-.278-.43-.43-.89-.438-1.36-.014-.8.387-1.57 1.112-2.25-.64-.14-1.167-.43-1.54-.87-.518-.62-.686-1.47-.55-2.47-.452.26-.924.4-1.408.38-.762-.03-1.47-.43-2.094-1.12.026 1.42-.365 2.54-1.213 3.14-.79.54-1.85.57-3.06.17.48.56.74 1.17.74 1.81 0 1.15-.86 2.21-2.31 3.06z"/>
        <ellipse id="nectar2" cx="25.5" cy="27" fill="#FEEEC5" rx="6.5" ry="6"/>
      </g>
    </g>
    <g id="flower3">
      <g transform="rotate(-29 2333.068 -666.167)">
        <path id="leaves3" fill="#CD4963" d="M15.667 30.53c-1.417.3-2.998.47-4.667.47-6.075 0-11-2.24-11-5s4.925-5 11-5c2.49 0 4.788.376 6.632 1.01-1.285-1.084-2.57-2.49-3.728-4.142C10.42 12.89 9.43 7.573 11.69 5.988c2.263-1.583 6.92 1.168 10.406 6.144.35.5.674 1.003.973 1.506-.08-.9-.1-1.843-.07-2.812.21-6.072 2.62-10.916 5.38-10.82 2.76.097 4.82 5.097 4.61 11.168-.06 1.504-.24 2.93-.54 4.228.69-.762 1.46-1.514 2.32-2.232 4.65-3.905 9.86-5.356 11.64-3.24 1.77 2.115-.56 6.995-5.21 10.9-.53.44-1.06.85-1.59 1.227.42-.03.85-.05 1.29-.056 6.07-.1 11.04 2.05 11.09 4.81.05 2.76-4.84 5.09-10.91 5.19-1.85.04-3.59-.14-5.13-.48 1.08 1 2.15 2.22 3.13 3.62 3.48 4.98 4.47 10.3 2.21 11.88-2.24 1.57-6.83-1.11-10.31-6 0 .06-.01.11-.01.17-.21 6.07-2.62 10.92-5.38 10.82-2.76-.09-4.83-5.09-4.62-11.17.04-1.09.15-2.15.32-3.15-.86 1.08-1.91 2.15-3.11 3.16-4.66 3.91-9.87 5.36-11.64 3.24-1.78-2.11.56-6.99 5.21-10.9 1.28-1.07 2.6-1.96 3.88-2.64zm4.025-1.466c1.65-.28 2.993-.02 3.734.865.3.35.483.79.557 1.29.73-.81 1.55-1.25 2.4-1.22.458.01.895.16 1.307.43.195-.63.526-1.12 1-1.45.485-.34 1.08-.48 1.75-.45-.278-.43-.43-.89-.438-1.36-.014-.8.387-1.57 1.112-2.25-.64-.14-1.167-.43-1.54-.87-.518-.62-.686-1.47-.55-2.47-.452.26-.924.4-1.408.38-.762-.03-1.47-.43-2.094-1.12.026 1.42-.365 2.54-1.213 3.14-.79.54-1.85.57-3.06.17.48.56.74 1.17.74 1.81 0 1.15-.86 2.21-2.31 3.06z"/>
        <ellipse id="nectar3" cx="25.5" cy="27" fill="#FEEEC5" rx="6.5" ry="6"/>
      </g>
    </g>
    <g id="flower4">
      <g transform="rotate(-29 2439.136 -605.733)">
        <path id="leaves4" fill="#A83A55" d="M15.667 30.53c-1.417.3-2.998.47-4.667.47-6.075 0-11-2.24-11-5s4.925-5 11-5c2.49 0 4.788.376 6.632 1.01-1.285-1.084-2.57-2.49-3.728-4.142C10.42 12.89 9.43 7.573 11.69 5.988c2.263-1.583 6.92 1.168 10.406 6.144.35.5.674 1.003.973 1.506-.08-.9-.1-1.843-.07-2.812.21-6.072 2.62-10.916 5.38-10.82 2.76.097 4.82 5.097 4.61 11.168-.06 1.504-.24 2.93-.54 4.228.69-.762 1.46-1.514 2.32-2.232 4.65-3.905 9.86-5.356 11.64-3.24 1.77 2.115-.56 6.995-5.21 10.9-.53.44-1.06.85-1.59 1.227.42-.03.85-.05 1.29-.056 6.07-.1 11.04 2.05 11.09 4.81.05 2.76-4.84 5.09-10.91 5.19-1.85.04-3.59-.14-5.13-.48 1.08 1 2.15 2.22 3.13 3.62 3.48 4.98 4.47 10.3 2.21 11.88-2.24 1.57-6.83-1.11-10.31-6 0 .06-.01.11-.01.17-.21 6.07-2.62 10.92-5.38 10.82-2.76-.09-4.83-5.09-4.62-11.17.04-1.09.15-2.15.32-3.15-.86 1.08-1.91 2.15-3.11 3.16-4.66 3.91-9.87 5.36-11.64 3.24-1.78-2.11.56-6.99 5.21-10.9 1.28-1.07 2.6-1.96 3.88-2.64zm4.025-1.466c1.65-.28 2.993-.02 3.734.865.3.35.483.79.557 1.29.73-.81 1.55-1.25 2.4-1.22.458.01.895.16 1.307.43.195-.63.526-1.12 1-1.45.485-.34 1.08-.48 1.75-.45-.278-.43-.43-.89-.438-1.36-.014-.8.387-1.57 1.112-2.25-.64-.14-1.167-.43-1.54-.87-.518-.62-.686-1.47-.55-2.47-.452.26-.924.4-1.408.38-.762-.03-1.47-.43-2.094-1.12.026 1.42-.365 2.54-1.213 3.14-.79.54-1.85.57-3.06.17.48.56.74 1.17.74 1.81 0 1.15-.86 2.21-2.31 3.06z"/>
        <ellipse id="nectar4" cx="25.5" cy="27" fill="#FEEEC5" rx="6.5" ry="6"/>
      </g>
    </g>
    <g id="acorn">
      <g>
        <path id="acornbottom" fill="#AB6333" d="M1862.393 354.178c-10.025-1.183-14.154 33.025-6.245 39.102 7.908 6.077 39.43-5.608 37.146-15.356-1.304-5.563-22.582-22.765-30.9-23.746z"/>
        <path id="acorntop" fill="#AB4C09" d="M1858.384 353.004c1.23 3.608 11.54 4.433 19.162 10.27 8.23 6.303 13.863 17.51 16.546 17.823 2.677.312 5.513-8.39 1.766-18.462-.717-1.925-3.235-4.844-7.556-8.755-2.295-6.066-3.993-9.768-5.096-11.105-1.103-1.337-3.07-1.27-5.9.206-1.256 1.48-1.22 2.56.114 3.22 2 1.01 3.276-3.48 5.898-.2 1.75 2.19 2.488 4.85 2.218 7.98-1.386-2.69-5.323-4.48-11.81-5.36-9.73-1.33-16.667.51-15.342 4.39z"/>
      </g>
    </g>
    <g id="acorn">
      <g>
        <path id="acornbottom" fill="#AB6333" d="M1591.393 301.178c-10.025-1.183-14.154 33.025-6.245 39.102 7.908 6.077 39.43-5.608 37.146-15.356-1.304-5.563-22.582-22.765-30.9-23.746z"/>
        <path id="acorntop" fill="#AB4C09" d="M1587.384 300.004c1.23 3.608 11.54 4.433 19.162 10.27 8.23 6.303 13.863 17.51 16.546 17.823 2.677.312 5.513-8.39 1.766-18.462-.717-1.925-3.235-4.844-7.556-8.755-2.295-6.066-3.993-9.768-5.096-11.105-1.103-1.337-3.07-1.27-5.9.206-1.256 1.48-1.22 2.56.114 3.22 2 1.01 3.276-3.48 5.898-.2 1.75 2.19 2.488 4.85 2.218 7.98-1.386-2.69-5.323-4.48-11.81-5.36-9.73-1.33-16.667.51-15.342 4.39z"/>
      </g>
    </g>
    <g id="acorn">
      <g>
        <path id="acornbottom" fill="#AB6333" d="M1678.393 446.178c-10.025-1.183-14.154 33.025-6.245 39.102 7.908 6.077 39.43-5.608 37.146-15.356-1.304-5.563-22.582-22.765-30.9-23.746z"/>
        <path id="acorntop" fill="#AB4C09" d="M1674.384 445.004c1.23 3.608 11.54 4.433 19.162 10.27 8.23 6.303 13.863 17.51 16.546 17.823 2.677.312 5.513-8.39 1.766-18.462-.717-1.925-3.235-4.844-7.556-8.755-2.295-6.066-3.993-9.768-5.096-11.105-1.103-1.337-3.07-1.27-5.9.206-1.256 1.48-1.22 2.56.114 3.22 2 1.01 3.276-3.48 5.898-.2 1.75 2.19 2.488 4.85 2.218 7.98-1.386-2.69-5.323-4.48-11.81-5.36-9.73-1.33-16.667.51-15.342 4.39z"/>
      </g>
    </g>
    <g id="acorn">
      <g>
        <path id="acornbottom" fill="#AB6333" d="M3077.393 482.178c-10.025-1.183-14.154 33.025-6.245 39.102 7.908 6.077 39.43-5.608 37.146-15.356-1.304-5.563-22.582-22.765-30.9-23.746z"/>
        <path id="acorntop" fill="#AB4C09" d="M3073.384 481.004c1.23 3.608 11.54 4.433 19.162 10.27 8.23 6.303 13.863 17.51 16.546 17.823 2.677.312 5.513-8.39 1.766-18.462-.717-1.925-3.235-4.844-7.556-8.755-2.295-6.066-3.993-9.768-5.096-11.105-1.103-1.337-3.07-1.27-5.9.206-1.256 1.48-1.22 2.56.114 3.22 2 1.01 3.276-3.48 5.898-.2 1.75 2.19 2.488 4.85 2.218 7.98-1.386-2.69-5.323-4.48-11.81-5.36-9.73-1.33-16.667.51-15.342 4.39z"/>
      </g>
    </g>
    <g id="acorn">
      <g>
        <path id="acornbottom" fill="#AB6333" d="M3300.393 653.178c-10.025-1.183-14.154 33.025-6.245 39.102 7.908 6.077 39.43-5.608 37.146-15.356-1.304-5.563-22.582-22.765-30.9-23.746z"/>
        <path id="acorntop" fill="#AB4C09" d="M3296.384 652.004c1.23 3.608 11.54 4.433 19.162 10.27 8.23 6.303 13.863 17.51 16.546 17.823 2.677.312 5.513-8.39 1.766-18.462-.717-1.925-3.235-4.844-7.556-8.755-2.295-6.066-3.993-9.768-5.096-11.105-1.103-1.337-3.07-1.27-5.9.206-1.256 1.48-1.22 2.56.114 3.22 2 1.01 3.276-3.48 5.898-.2 1.75 2.19 2.488 4.85 2.218 7.98-1.386-2.69-5.323-4.48-11.81-5.36-9.73-1.33-16.667.51-15.342 4.39z"/>
      </g>
    </g>
    <g id="acorn">
      <g>
        <path id="acornbottom" fill="#AB6333" d="M3260.393 425.178c-10.025-1.183-14.154 33.025-6.245 39.102 7.908 6.077 39.43-5.608 37.146-15.356-1.304-5.563-22.582-22.765-30.9-23.746z"/>
        <path id="acorntop" fill="#AB4C09" d="M3256.384 424.004c1.23 3.608 11.54 4.433 19.162 10.27 8.23 6.303 13.863 17.51 16.546 17.823 2.677.312 5.513-8.39 1.766-18.462-.717-1.925-3.235-4.844-7.556-8.755-2.295-6.066-3.993-9.768-5.096-11.105-1.103-1.337-3.07-1.27-5.9.206-1.256 1.48-1.22 2.56.114 3.22 2 1.01 3.276-3.48 5.898-.2 1.75 2.19 2.488 4.85 2.218 7.98-1.386-2.69-5.323-4.48-11.81-5.36-9.73-1.33-16.667.51-15.342 4.39z"/>
      </g>
    </g>
</svg>
