<svg class="greenery" xmlns="http://www.w3.org/2000/svg" viewBox="1 0 4000 1362">
    <g id="greenery">
      <g id="tree1">
        <g transform="translate(1478 70)">
          <path id="Tree-Stump" fill="#AB6333" d="M220.598 325.112L188.985 882h106.65L252.56 325.112z"/>
          <ellipse id="Leaf1" cx="331.418" cy="282.434" fill="#249024" rx="162.582" ry="168.281"/>
          <ellipse id="Leaf2" cx="228.935" cy="327.02" fill="#86B62D" rx="130.274" ry="123.695"/>
          <ellipse id="Leaf3" cx="87.023" cy="267.341" fill="#5B9B12" rx="87.023" ry="91.08"/>
          <ellipse id="Leaf4" cx="276.703" cy="162.556" fill="#249024" rx="189.506" ry="162.556"/>
          <ellipse id="Leaf5" cx="324.991" cy="307.59" fill="#5B9B12" rx="96.056" ry="94.897"/>
          <ellipse id="Leaf6" cx="124.195" cy="390.863" fill="#249024" rx="64.79" ry="59.852"/>
          <ellipse id="Leaf7" cx="391.344" cy="233.338" fill="#A6D452" rx="74.864" ry="70.609"/>
          <ellipse id="Leaf8" cx="325.165" cy="391.036" fill="#A6D452" rx="31.266" ry="28.452"/>
        </g>
      </g>
      <g id="tree1">
        <g transform="translate(2978 253)">
          <path id="Tree-Stump" fill="#AB6333" d="M220.598 325.112L188.985 882h106.65L252.56 325.112z"/>
          <ellipse id="Leaf1" cx="331.418" cy="282.434" fill="#249024" rx="162.582" ry="168.281"/>
          <ellipse id="Leaf2" cx="228.935" cy="327.02" fill="#86B62D" rx="130.274" ry="123.695"/>
          <ellipse id="Leaf3" cx="87.023" cy="267.341" fill="#5B9B12" rx="87.023" ry="91.08"/>
          <ellipse id="Leaf4" cx="276.703" cy="162.556" fill="#249024" rx="189.506" ry="162.556"/>
          <ellipse id="Leaf5" cx="324.991" cy="307.59" fill="#5B9B12" rx="96.056" ry="94.897"/>
          <ellipse id="Leaf6" cx="124.195" cy="390.863" fill="#249024" rx="64.79" ry="59.852"/>
          <ellipse id="Leaf7" cx="391.344" cy="233.338" fill="#A6D452" rx="74.864" ry="70.609"/>
          <ellipse id="Leaf8" cx="325.165" cy="391.036" fill="#A6D452" rx="31.266" ry="28.452"/>
        </g>
      </g>
      <path id="grass" fill="#86B62D" d="M1 1156c603.826-149.48 1160.648-221.015 1670.465-214.605 764.725 9.615 693.194 132.165 1121.21 145.292 114.44 3.51 249.593 8.716 405.457 15.62 155.176 6.87 434.132 24.77 836.868 53.694v192H1v-192z"/>
      <g id="bush3" fill="#A6D452">
        <g>
          <path d="M1059.917 843.654c64.974-16.385 124.987.088 137.823 39.593 6.303 19.4.137 40.995-15.138 60.903 9.243 8.382 14.36 17.613 14.36 27.308 0 38.36-80.122 69.458-178.96 69.458-98.837 0-178.96-31.097-178.96-69.458 0-12.75 8.85-24.698 24.3-34.968 1.907-19.32 11.888-36.92 28.803-47.084 7.47-4.488 15.585-7.102 23.865-7.985-5.38-37.42 6.956-71.54 34.31-85.48 34.864-17.76 81.906 3.48 109.597 47.72z"/>
        </g>
      </g>
      <g id="bush4" fill="#5B9B12">
        <g>
          <path d="M1370.094 882.68C1390.21 893.892 1402 907.512 1402 922.2c0 38.292-80.14 69.333-179 69.333s-179-31.04-179-69.333c0-13.146 9.446-25.438 25.853-35.913 2.18-18.882 12.115-36.012 28.723-45.992 11.17-6.71 23.776-9.24 36.217-8.064 4.41-40.1 36.778-71.23 76.054-71.23 41.563 0 75.39 34.87 76.535 78.33 23.69-8.57 50.053-4.07 67.37 13.86 8.074 8.36 13.163 18.59 15.342 29.5z"/>
        </g>
      </g>
      <g id="bush2" fill="#249024">
        <g>
          <path d="M3750.458 968.855c66.02 11.46 114.145 50.917 109.803 92.227-2.13 20.287-16.54 37.507-38.6 49.48 5.04 11.418 5.96 21.932 2.02 30.79-15.6 35.043-101.45 30.863-191.74-9.338-90.29-40.2-150.84-101.2-135.24-136.243 5.19-11.64 18.13-18.96 36.42-22.06 9.6-16.87 25.88-28.89 45.47-31.29 8.65-1.06 17.13-.15 25.05 2.41 10.31-36.38 35.46-62.53 66.12-64.13 39.08-2.05 73.41 36.49 80.72 88.17z"/>
        </g>
      </g>
      <g id="bush1" fill="#5B9B12">
        <g>
          <path d="M3606.134 1063.13c19.285 12.588 30.097 26.998 29.072 41.65-2.67 38.2-84.782 63.574-183.4 56.678-98.618-6.896-176.4-43.452-173.728-81.65.917-13.115 11.198-24.718 28.296-34.023 3.49-18.683 14.597-35.08 31.86-43.876 11.61-5.92 24.363-7.56 36.692-5.52 7.196-39.7 41.658-68.49 80.837-65.75 41.462 2.89 72.776 40.03 70.886 83.47 24.23-6.91 50.21-.57 66.23 18.52 7.47 8.9 11.83 19.46 13.25 30.49z"/>
        </g>
      </g>
      <g id="flower1">
        <g transform="translate(1323 887)">
          <path id="leaves1" fill="#F76E54" d="M15.667 30.53c-1.417.3-2.998.47-4.667.47-6.075 0-11-2.24-11-5s4.925-5 11-5c2.49 0 4.788.376 6.632 1.01-1.285-1.084-2.57-2.49-3.728-4.142C10.42 12.89 9.43 7.573 11.69 5.988c2.263-1.583 6.92 1.168 10.406 6.144.35.5.674 1.003.973 1.506-.08-.9-.1-1.843-.07-2.812.21-6.072 2.62-10.916 5.38-10.82 2.76.097 4.82 5.097 4.61 11.168-.06 1.504-.24 2.93-.54 4.228.69-.762 1.46-1.514 2.32-2.232 4.65-3.905 9.86-5.356 11.64-3.24 1.77 2.115-.56 6.995-5.21 10.9-.53.44-1.06.85-1.59 1.227.42-.03.85-.05 1.29-.056 6.07-.1 11.04 2.05 11.09 4.81.05 2.76-4.84 5.09-10.91 5.19-1.85.04-3.59-.14-5.13-.48 1.08 1 2.15 2.22 3.13 3.62 3.48 4.98 4.47 10.3 2.21 11.88-2.24 1.57-6.83-1.11-10.31-6 0 .06-.01.11-.01.17-.21 6.07-2.62 10.92-5.38 10.82-2.76-.09-4.83-5.09-4.62-11.17.04-1.09.15-2.15.32-3.15-.86 1.08-1.91 2.15-3.11 3.16-4.66 3.91-9.87 5.36-11.64 3.24-1.78-2.11.56-6.99 5.21-10.9 1.28-1.07 2.6-1.96 3.88-2.64zm4.025-1.466c1.65-.28 2.993-.02 3.734.865.3.35.483.79.557 1.29.73-.81 1.55-1.25 2.4-1.22.458.01.895.16 1.307.43.195-.63.526-1.12 1-1.45.485-.34 1.08-.48 1.75-.45-.278-.43-.43-.89-.438-1.36-.014-.8.387-1.57 1.112-2.25-.64-.14-1.167-.43-1.54-.87-.518-.62-.686-1.47-.55-2.47-.452.26-.924.4-1.408.38-.762-.03-1.47-.43-2.094-1.12.026 1.42-.365 2.54-1.213 3.14-.79.54-1.85.57-3.06.17.48.56.74 1.17.74 1.81 0 1.15-.86 2.21-2.31 3.06z"/>
          <ellipse id="nectar1" cx="25.5" cy="27" fill="#FEEEC5" rx="6.5" ry="6"/>
        </g>
      </g>
      <g id="flower2">
        <g transform="rotate(-29 2217.885 -1554.648)">
          <path id="leaves2" fill="#6DE5EA" d="M15.667 30.53c-1.417.3-2.998.47-4.667.47-6.075 0-11-2.24-11-5s4.925-5 11-5c2.49 0 4.788.376 6.632 1.01-1.285-1.084-2.57-2.49-3.728-4.142C10.42 12.89 9.43 7.573 11.69 5.988c2.263-1.583 6.92 1.168 10.406 6.144.35.5.674 1.003.973 1.506-.08-.9-.1-1.843-.07-2.812.21-6.072 2.62-10.916 5.38-10.82 2.76.097 4.82 5.097 4.61 11.168-.06 1.504-.24 2.93-.54 4.228.69-.762 1.46-1.514 2.32-2.232 4.65-3.905 9.86-5.356 11.64-3.24 1.77 2.115-.56 6.995-5.21 10.9-.53.44-1.06.85-1.59 1.227.42-.03.85-.05 1.29-.056 6.07-.1 11.04 2.05 11.09 4.81.05 2.76-4.84 5.09-10.91 5.19-1.85.04-3.59-.14-5.13-.48 1.08 1 2.15 2.22 3.13 3.62 3.48 4.98 4.47 10.3 2.21 11.88-2.24 1.57-6.83-1.11-10.31-6 0 .06-.01.11-.01.17-.21 6.07-2.62 10.92-5.38 10.82-2.76-.09-4.83-5.09-4.62-11.17.04-1.09.15-2.15.32-3.15-.86 1.08-1.91 2.15-3.11 3.16-4.66 3.91-9.87 5.36-11.64 3.24-1.78-2.11.56-6.99 5.21-10.9 1.28-1.07 2.6-1.96 3.88-2.64zm4.025-1.466c1.65-.28 2.993-.02 3.734.865.3.35.483.79.557 1.29.73-.81 1.55-1.25 2.4-1.22.458.01.895.16 1.307.43.195-.63.526-1.12 1-1.45.485-.34 1.08-.48 1.75-.45-.278-.43-.43-.89-.438-1.36-.014-.8.387-1.57 1.112-2.25-.64-.14-1.167-.43-1.54-.87-.518-.62-.686-1.47-.55-2.47-.452.26-.924.4-1.408.38-.762-.03-1.47-.43-2.094-1.12.026 1.42-.365 2.54-1.213 3.14-.79.54-1.85.57-3.06.17.48.56.74 1.17.74 1.81 0 1.15-.86 2.21-2.31 3.06z"/>
          <ellipse id="nectar2" cx="25.5" cy="27" fill="#FEEEC5" rx="6.5" ry="6"/>
        </g>
      </g>
      <g id="flower3">
        <g transform="rotate(-29 3064.234 -3692.77)">
          <path id="leaves3" fill="#CD4963" d="M15.667 30.53c-1.417.3-2.998.47-4.667.47-6.075 0-11-2.24-11-5s4.925-5 11-5c2.49 0 4.788.376 6.632 1.01-1.285-1.084-2.57-2.49-3.728-4.142C10.42 12.89 9.43 7.573 11.69 5.988c2.263-1.583 6.92 1.168 10.406 6.144.35.5.674 1.003.973 1.506-.08-.9-.1-1.843-.07-2.812.21-6.072 2.62-10.916 5.38-10.82 2.76.097 4.82 5.097 4.61 11.168-.06 1.504-.24 2.93-.54 4.228.69-.762 1.46-1.514 2.32-2.232 4.65-3.905 9.86-5.356 11.64-3.24 1.77 2.115-.56 6.995-5.21 10.9-.53.44-1.06.85-1.59 1.227.42-.03.85-.05 1.29-.056 6.07-.1 11.04 2.05 11.09 4.81.05 2.76-4.84 5.09-10.91 5.19-1.85.04-3.59-.14-5.13-.48 1.08 1 2.15 2.22 3.13 3.62 3.48 4.98 4.47 10.3 2.21 11.88-2.24 1.57-6.83-1.11-10.31-6 0 .06-.01.11-.01.17-.21 6.07-2.62 10.92-5.38 10.82-2.76-.09-4.83-5.09-4.62-11.17.04-1.09.15-2.15.32-3.15-.86 1.08-1.91 2.15-3.11 3.16-4.66 3.91-9.87 5.36-11.64 3.24-1.78-2.11.56-6.99 5.21-10.9 1.28-1.07 2.6-1.96 3.88-2.64zm4.025-1.466c1.65-.28 2.993-.02 3.734.865.3.35.483.79.557 1.29.73-.81 1.55-1.25 2.4-1.22.458.01.895.16 1.307.43.195-.63.526-1.12 1-1.45.485-.34 1.08-.48 1.75-.45-.278-.43-.43-.89-.438-1.36-.014-.8.387-1.57 1.112-2.25-.64-.14-1.167-.43-1.54-.87-.518-.62-.686-1.47-.55-2.47-.452.26-.924.4-1.408.38-.762-.03-1.47-.43-2.094-1.12.026 1.42-.365 2.54-1.213 3.14-.79.54-1.85.57-3.06.17.48.56.74 1.17.74 1.81 0 1.15-.86 2.21-2.31 3.06z"/>
          <ellipse id="nectar3" cx="25.5" cy="27" fill="#FEEEC5" rx="6.5" ry="6"/>
        </g>
      </g>
      <g id="flower4">
        <g transform="rotate(-29 3782.633 -6638.105)">
          <path id="leaves4" fill="#A83A55" d="M15.667 30.53c-1.417.3-2.998.47-4.667.47-6.075 0-11-2.24-11-5s4.925-5 11-5c2.49 0 4.788.376 6.632 1.01-1.285-1.084-2.57-2.49-3.728-4.142C10.42 12.89 9.43 7.573 11.69 5.988c2.263-1.583 6.92 1.168 10.406 6.144.35.5.674 1.003.973 1.506-.08-.9-.1-1.843-.07-2.812.21-6.072 2.62-10.916 5.38-10.82 2.76.097 4.82 5.097 4.61 11.168-.06 1.504-.24 2.93-.54 4.228.69-.762 1.46-1.514 2.32-2.232 4.65-3.905 9.86-5.356 11.64-3.24 1.77 2.115-.56 6.995-5.21 10.9-.53.44-1.06.85-1.59 1.227.42-.03.85-.05 1.29-.056 6.07-.1 11.04 2.05 11.09 4.81.05 2.76-4.84 5.09-10.91 5.19-1.85.04-3.59-.14-5.13-.48 1.08 1 2.15 2.22 3.13 3.62 3.48 4.98 4.47 10.3 2.21 11.88-2.24 1.57-6.83-1.11-10.31-6 0 .06-.01.11-.01.17-.21 6.07-2.62 10.92-5.38 10.82-2.76-.09-4.83-5.09-4.62-11.17.04-1.09.15-2.15.32-3.15-.86 1.08-1.91 2.15-3.11 3.16-4.66 3.91-9.87 5.36-11.64 3.24-1.78-2.11.56-6.99 5.21-10.9 1.28-1.07 2.6-1.96 3.88-2.64zm4.025-1.466c1.65-.28 2.993-.02 3.734.865.3.35.483.79.557 1.29.73-.81 1.55-1.25 2.4-1.22.458.01.895.16 1.307.43.195-.63.526-1.12 1-1.45.485-.34 1.08-.48 1.75-.45-.278-.43-.43-.89-.438-1.36-.014-.8.387-1.57 1.112-2.25-.64-.14-1.167-.43-1.54-.87-.518-.62-.686-1.47-.55-2.47-.452.26-.924.4-1.408.38-.762-.03-1.47-.43-2.094-1.12.026 1.42-.365 2.54-1.213 3.14-.79.54-1.85.57-3.06.17.48.56.74 1.17.74 1.81 0 1.15-.86 2.21-2.31 3.06z"/>
          <ellipse id="nectar4" cx="25.5" cy="27" fill="#FEEEC5" rx="6.5" ry="6"/>
        </g>
      </g>
      <g id="flower1">
        <g transform="translate(3460 1016)">
          <path id="leaves1" fill="#F76E54" d="M15.667 30.53c-1.417.3-2.998.47-4.667.47-6.075 0-11-2.24-11-5s4.925-5 11-5c2.49 0 4.788.376 6.632 1.01-1.285-1.084-2.57-2.49-3.728-4.142C10.42 12.89 9.43 7.573 11.69 5.988c2.263-1.583 6.92 1.168 10.406 6.144.35.5.674 1.003.973 1.506-.08-.9-.1-1.843-.07-2.812.21-6.072 2.62-10.916 5.38-10.82 2.76.097 4.82 5.097 4.61 11.168-.06 1.504-.24 2.93-.54 4.228.69-.762 1.46-1.514 2.32-2.232 4.65-3.905 9.86-5.356 11.64-3.24 1.77 2.115-.56 6.995-5.21 10.9-.53.44-1.06.85-1.59 1.227.42-.03.85-.05 1.29-.056 6.07-.1 11.04 2.05 11.09 4.81.05 2.76-4.84 5.09-10.91 5.19-1.85.04-3.59-.14-5.13-.48 1.08 1 2.15 2.22 3.13 3.62 3.48 4.98 4.47 10.3 2.21 11.88-2.24 1.57-6.83-1.11-10.31-6 0 .06-.01.11-.01.17-.21 6.07-2.62 10.92-5.38 10.82-2.76-.09-4.83-5.09-4.62-11.17.04-1.09.15-2.15.32-3.15-.86 1.08-1.91 2.15-3.11 3.16-4.66 3.91-9.87 5.36-11.64 3.24-1.78-2.11.56-6.99 5.21-10.9 1.28-1.07 2.6-1.96 3.88-2.64zm4.025-1.466c1.65-.28 2.993-.02 3.734.865.3.35.483.79.557 1.29.73-.81 1.55-1.25 2.4-1.22.458.01.895.16 1.307.43.195-.63.526-1.12 1-1.45.485-.34 1.08-.48 1.75-.45-.278-.43-.43-.89-.438-1.36-.014-.8.387-1.57 1.112-2.25-.64-.14-1.167-.43-1.54-.87-.518-.62-.686-1.47-.55-2.47-.452.26-.924.4-1.408.38-.762-.03-1.47-.43-2.094-1.12.026 1.42-.365 2.54-1.213 3.14-.79.54-1.85.57-3.06.17.48.56.74 1.17.74 1.81 0 1.15-.86 2.21-2.31 3.06z"/>
          <ellipse id="nectar1" cx="25.5" cy="27" fill="#FEEEC5" rx="6.5" ry="6"/>
        </g>
      </g>
      <g id="flower2">
        <g transform="rotate(-29 3961.725 -6064.37)">
          <path id="leaves2" fill="#6DE5EA" d="M15.667 30.53c-1.417.3-2.998.47-4.667.47-6.075 0-11-2.24-11-5s4.925-5 11-5c2.49 0 4.788.376 6.632 1.01-1.285-1.084-2.57-2.49-3.728-4.142C10.42 12.89 9.43 7.573 11.69 5.988c2.263-1.583 6.92 1.168 10.406 6.144.35.5.674 1.003.973 1.506-.08-.9-.1-1.843-.07-2.812.21-6.072 2.62-10.916 5.38-10.82 2.76.097 4.82 5.097 4.61 11.168-.06 1.504-.24 2.93-.54 4.228.69-.762 1.46-1.514 2.32-2.232 4.65-3.905 9.86-5.356 11.64-3.24 1.77 2.115-.56 6.995-5.21 10.9-.53.44-1.06.85-1.59 1.227.42-.03.85-.05 1.29-.056 6.07-.1 11.04 2.05 11.09 4.81.05 2.76-4.84 5.09-10.91 5.19-1.85.04-3.59-.14-5.13-.48 1.08 1 2.15 2.22 3.13 3.62 3.48 4.98 4.47 10.3 2.21 11.88-2.24 1.57-6.83-1.11-10.31-6 0 .06-.01.11-.01.17-.21 6.07-2.62 10.92-5.38 10.82-2.76-.09-4.83-5.09-4.62-11.17.04-1.09.15-2.15.32-3.15-.86 1.08-1.91 2.15-3.11 3.16-4.66 3.91-9.87 5.36-11.64 3.24-1.78-2.11.56-6.99 5.21-10.9 1.28-1.07 2.6-1.96 3.88-2.64zm4.025-1.466c1.65-.28 2.993-.02 3.734.865.3.35.483.79.557 1.29.73-.81 1.55-1.25 2.4-1.22.458.01.895.16 1.307.43.195-.63.526-1.12 1-1.45.485-.34 1.08-.48 1.75-.45-.278-.43-.43-.89-.438-1.36-.014-.8.387-1.57 1.112-2.25-.64-.14-1.167-.43-1.54-.87-.518-.62-.686-1.47-.55-2.47-.452.26-.924.4-1.408.38-.762-.03-1.47-.43-2.094-1.12.026 1.42-.365 2.54-1.213 3.14-.79.54-1.85.57-3.06.17.48.56.74 1.17.74 1.81 0 1.15-.86 2.21-2.31 3.06z"/>
          <ellipse id="nectar2" cx="25.5" cy="27" fill="#FEEEC5" rx="6.5" ry="6"/>
        </g>
      </g>
      <g id="flower3">
        <g transform="rotate(-29 2412.166 -1641.978)">
          <path id="leaves3" fill="#CD4963" d="M15.667 30.53c-1.417.3-2.998.47-4.667.47-6.075 0-11-2.24-11-5s4.925-5 11-5c2.49 0 4.788.376 6.632 1.01-1.285-1.084-2.57-2.49-3.728-4.142C10.42 12.89 9.43 7.573 11.69 5.988c2.263-1.583 6.92 1.168 10.406 6.144.35.5.674 1.003.973 1.506-.08-.9-.1-1.843-.07-2.812.21-6.072 2.62-10.916 5.38-10.82 2.76.097 4.82 5.097 4.61 11.168-.06 1.504-.24 2.93-.54 4.228.69-.762 1.46-1.514 2.32-2.232 4.65-3.905 9.86-5.356 11.64-3.24 1.77 2.115-.56 6.995-5.21 10.9-.53.44-1.06.85-1.59 1.227.42-.03.85-.05 1.29-.056 6.07-.1 11.04 2.05 11.09 4.81.05 2.76-4.84 5.09-10.91 5.19-1.85.04-3.59-.14-5.13-.48 1.08 1 2.15 2.22 3.13 3.62 3.48 4.98 4.47 10.3 2.21 11.88-2.24 1.57-6.83-1.11-10.31-6 0 .06-.01.11-.01.17-.21 6.07-2.62 10.92-5.38 10.82-2.76-.09-4.83-5.09-4.62-11.17.04-1.09.15-2.15.32-3.15-.86 1.08-1.91 2.15-3.11 3.16-4.66 3.91-9.87 5.36-11.64 3.24-1.78-2.11.56-6.99 5.21-10.9 1.28-1.07 2.6-1.96 3.88-2.64zm4.025-1.466c1.65-.28 2.993-.02 3.734.865.3.35.483.79.557 1.29.73-.81 1.55-1.25 2.4-1.22.458.01.895.16 1.307.43.195-.63.526-1.12 1-1.45.485-.34 1.08-.48 1.75-.45-.278-.43-.43-.89-.438-1.36-.014-.8.387-1.57 1.112-2.25-.64-.14-1.167-.43-1.54-.87-.518-.62-.686-1.47-.55-2.47-.452.26-.924.4-1.408.38-.762-.03-1.47-.43-2.094-1.12.026 1.42-.365 2.54-1.213 3.14-.79.54-1.85.57-3.06.17.48.56.74 1.17.74 1.81 0 1.15-.86 2.21-2.31 3.06z"/>
          <ellipse id="nectar3" cx="25.5" cy="27" fill="#FEEEC5" rx="6.5" ry="6"/>
        </g>
      </g>
      <g id="flower1">
        <g transform="translate(68 1240)">
          <path id="leaves1" fill="#F76E54" d="M15.667 30.53c-1.417.3-2.998.47-4.667.47-6.075 0-11-2.24-11-5s4.925-5 11-5c2.49 0 4.788.376 6.632 1.01-1.285-1.084-2.57-2.49-3.728-4.142C10.42 12.89 9.43 7.573 11.69 5.988c2.263-1.583 6.92 1.168 10.406 6.144.35.5.674 1.003.973 1.506-.08-.9-.1-1.843-.07-2.812.21-6.072 2.62-10.916 5.38-10.82 2.76.097 4.82 5.097 4.61 11.168-.06 1.504-.24 2.93-.54 4.228.69-.762 1.46-1.514 2.32-2.232 4.65-3.905 9.86-5.356 11.64-3.24 1.77 2.115-.56 6.995-5.21 10.9-.53.44-1.06.85-1.59 1.227.42-.03.85-.05 1.29-.056 6.07-.1 11.04 2.05 11.09 4.81.05 2.76-4.84 5.09-10.91 5.19-1.85.04-3.59-.14-5.13-.48 1.08 1 2.15 2.22 3.13 3.62 3.48 4.98 4.47 10.3 2.21 11.88-2.24 1.57-6.83-1.11-10.31-6 0 .06-.01.11-.01.17-.21 6.07-2.62 10.92-5.38 10.82-2.76-.09-4.83-5.09-4.62-11.17.04-1.09.15-2.15.32-3.15-.86 1.08-1.91 2.15-3.11 3.16-4.66 3.91-9.87 5.36-11.64 3.24-1.78-2.11.56-6.99 5.21-10.9 1.28-1.07 2.6-1.96 3.88-2.64zm4.025-1.466c1.65-.28 2.993-.02 3.734.865.3.35.483.79.557 1.29.73-.81 1.55-1.25 2.4-1.22.458.01.895.16 1.307.43.195-.63.526-1.12 1-1.45.485-.34 1.08-.48 1.75-.45-.278-.43-.43-.89-.438-1.36-.014-.8.387-1.57 1.112-2.25-.64-.14-1.167-.43-1.54-.87-.518-.62-.686-1.47-.55-2.47-.452.26-.924.4-1.408.38-.762-.03-1.47-.43-2.094-1.12.026 1.42-.365 2.54-1.213 3.14-.79.54-1.85.57-3.06.17.48.56.74 1.17.74 1.81 0 1.15-.86 2.21-2.31 3.06z"/>
          <ellipse id="nectar1" cx="25.5" cy="27" fill="#FEEEC5" rx="6.5" ry="6"/>
        </g>
      </g>
      <g id="acorn">
        <g>
          <path id="acornbottom" fill="#AB6333" d="M1869.818 364.05c-17.187-2.027-24.266 56.65-10.707 67.076 13.56 10.425 67.61-9.62 63.69-26.342-2.23-9.543-38.71-39.05-52.98-40.733z"/>
          <path id="acorntop" fill="#AB4C09" d="M1862.682 361.953c2.127 6.175 19.96 7.582 33.144 17.57 14.235 10.784 23.97 29.965 28.612 30.498 4.632.54 9.543-14.36 3.067-31.6-1.238-3.29-5.594-8.29-13.066-14.98-3.97-10.38-6.91-16.72-8.81-19.01-1.91-2.28-5.31-2.17-10.21.36-2.18 2.53-2.12 4.37.19 5.52 3.46 1.72 5.67-5.97 10.2-.35 3.02 3.75 4.3 8.3 3.83 13.67-2.4-4.6-9.21-7.66-20.43-9.17-16.83-2.27-28.84.87-26.55 7.53z"/>
        </g>
      </g>
      <g id="acorn">
        <g>
          <path id="acornbottom" fill="#AB6333" d="M1597.496 314.624c-15.383 7.93 11.56 60.534 28.63 61.595 17.07 1.06 50.667-45.78 38.07-57.46-7.19-6.66-53.934-10.73-66.7-4.15z"/>
          <path id="acorntop" fill="#AB4C09" d="M1590.406 316.875c5.217 3.93 20.787-4.875 37.303-3.968 17.83.98 36.62 11.437 40.77 9.285 4.14-2.148-.12-17.247-15.13-27.917-2.87-2.04-9.28-3.744-19.21-5.113-9.1-6.392-15.07-10.003-17.94-10.834-2.86-.83-5.62 1.17-8.26 6.002-.39 3.317.69 4.805 3.24 4.463 3.82-.51 1.36-8.12 8.26-6 4.6 1.41 8.2 4.47 10.81 9.182-4.56-2.476-11.92-1.204-22.07 3.818-15.22 7.53-23.42 16.847-17.8 21.082z"/>
        </g>
      </g>
      <g id="acorn">
        <g>
          <path id="acornbottom" fill="#AB6333" d="M1684.598 461.21c-13.008 11.414 25.862 55.938 42.682 52.837 16.82-3.1 38.086-56.675 23.04-64.954-8.588-4.724-54.927 2.643-65.722 12.116z"/>
          <path id="acorntop" fill="#AB4C09" d="M1678.264 465.108c6.012 2.552 18.99-9.76 35.235-12.874 17.53-3.363 38.3 2.236 41.81-.856 3.49-3.085-4.3-16.705-21.44-23.427-3.28-1.28-9.91-1.39-19.88-.31-10.37-4-17.05-6.06-20.02-6.17-2.98-.11-5.17 2.5-6.57 7.82.42 3.31 1.83 4.5 4.22 3.55 3.58-1.42-.65-8.21 6.56-7.82 4.8.26 9.04 2.36 12.71 6.3-5.03-1.3-11.86 1.72-20.49 9.04-12.95 10.99-18.65 22.01-12.17 24.76z"/>
        </g>
      </g>
      <g id="acorn">
        <g>
          <path id="acornbottom" fill="#AB6333" d="M3083.525 495.284c-15.778 7.114 8.377 61.056 25.368 63.01 16.99 1.95 52.992-43.065 41.023-55.38-6.83-7.03-53.3-13.533-66.39-7.63z"/>
          <path id="acorntop" fill="#AB4C09" d="M3076.327 497.16c5.003 4.2 21.013-3.78 37.46-2.01 17.755 1.913 35.98 13.34 40.233 11.407 4.244-1.93.78-17.23-13.65-28.67-2.758-2.188-9.064-4.225-18.916-6.112-8.747-6.86-14.527-10.778-17.34-11.757-2.813-.98-5.668.875-8.564 5.56-.56 3.293.44 4.835 3.005 4.628 3.847-.31 1.786-8.037 8.564-5.56 4.51 1.65 7.95 4.895 10.32 9.736-4.43-2.712-11.84-1.826-22.24 2.657-15.6 6.72-24.27 15.59-18.88 20.12z"/>
        </g>
      </g>
      <g id="acorn">
        <g>
          <path id="acornbottom" fill="#AB6333" d="M3307.818 663.05c-17.187-2.027-24.266 56.65-10.707 67.076 13.56 10.425 67.61-9.62 63.69-26.342-2.23-9.543-38.71-39.05-52.98-40.733z"/>
          <path id="acorntop" fill="#AB4C09" d="M3300.682 660.953c2.127 6.175 19.96 7.582 33.144 17.57 14.235 10.784 23.97 29.965 28.612 30.498 4.632.54 9.543-14.36 3.067-31.6-1.238-3.29-5.594-8.29-13.066-14.98-3.97-10.38-6.91-16.72-8.81-19.01-1.91-2.28-5.31-2.17-10.21.36-2.18 2.53-2.12 4.37.19 5.52 3.46 1.72 5.67-5.97 10.2-.35 3.02 3.75 4.3 8.3 3.83 13.67-2.4-4.6-9.21-7.66-20.43-9.17-16.83-2.27-28.84.87-26.55 7.53z"/>
        </g>
      </g>
      <g id="acorn">
        <g>
          <path id="acornbottom" fill="#AB6333" d="M3267.13 441.824c-9.61 14.394 39.458 47.34 54.902 39.992 15.444-7.35 22.12-64.602 5.443-68.704-9.518-2.34-52.37 16.768-60.346 28.712z"/>
          <path id="acorntop" fill="#AB4C09" d="M3262.02 447.23c6.468.91 15.816-14.34 30.702-21.555 16.07-7.788 37.58-7.755 40.164-11.648 2.577-3.884-8.47-15.025-26.767-17.08-3.5-.393-9.93 1.22-19.29 4.84-11.05-1.18-18.03-1.442-20.94-.78-2.91.66-4.35 3.745-4.32 9.253 1.27 3.09 2.93 3.867 5 2.332 3.1-2.303-2.75-7.762 4.31-9.254 4.71-.995 9.34-.066 13.91 2.788-5.19.046-11.01 4.724-17.45 14.036-9.66 13.967-12.32 26.09-5.35 27.068z"/>
        </g>
      </g>
    </g>
</svg>
