<svg class="greenery" xmlns="http://www.w3.org/2000/svg" viewBox="1 0 4000 1333">
<g id="greenery">
  <g id="tree1">
    <g transform="translate(1478 70)">
      <path id="Tree-Stump" fill="#AB6333" d="M220.598 325.112L188.985 882h106.65L252.56 325.112z"/>
      <ellipse id="Leaf1" cx="331.418" cy="282.434" fill="#249024" rx="162.582" ry="168.281"/>
      <ellipse id="Leaf2" cx="228.935" cy="327.02" fill="#86B62D" rx="130.274" ry="123.695"/>
      <ellipse id="Leaf3" cx="87.023" cy="267.341" fill="#5B9B12" rx="87.023" ry="91.08"/>
      <ellipse id="Leaf4" cx="276.703" cy="162.556" fill="#249024" rx="189.506" ry="162.556"/>
      <ellipse id="Leaf5" cx="324.991" cy="307.59" fill="#5B9B12" rx="96.056" ry="94.897"/>
      <ellipse id="Leaf6" cx="124.195" cy="390.863" fill="#249024" rx="64.79" ry="59.852"/>
      <ellipse id="Leaf7" cx="391.344" cy="233.338" fill="#A6D452" rx="74.864" ry="70.609"/>
      <ellipse id="Leaf8" cx="325.165" cy="391.036" fill="#A6D452" rx="31.266" ry="28.452"/>
    </g>
  </g>
  <g id="tree1">
    <g transform="translate(2978 253)">
      <path id="Tree-Stump" fill="#AB6333" d="M220.598 325.112L188.985 882h106.65L252.56 325.112z"/>
      <ellipse id="Leaf1" cx="331.418" cy="282.434" fill="#249024" rx="162.582" ry="168.281"/>
      <ellipse id="Leaf2" cx="228.935" cy="327.02" fill="#86B62D" rx="130.274" ry="123.695"/>
      <ellipse id="Leaf3" cx="87.023" cy="267.341" fill="#5B9B12" rx="87.023" ry="91.08"/>
      <ellipse id="Leaf4" cx="276.703" cy="162.556" fill="#249024" rx="189.506" ry="162.556"/>
      <ellipse id="Leaf5" cx="324.991" cy="307.59" fill="#5B9B12" rx="96.056" ry="94.897"/>
      <ellipse id="Leaf6" cx="124.195" cy="390.863" fill="#249024" rx="64.79" ry="59.852"/>
      <ellipse id="Leaf7" cx="391.344" cy="233.338" fill="#A6D452" rx="74.864" ry="70.609"/>
      <ellipse id="Leaf8" cx="325.165" cy="391.036" fill="#A6D452" rx="31.266" ry="28.452"/>
    </g>
  </g>
  <path id="grass" fill="#86B62D" d="M1 1156c603.826-149.48 1160.648-221.015 1670.465-214.605 764.725 9.615 693.194 132.165 1121.21 145.292 114.44 3.51 249.593 8.716 405.457 15.62 155.176 6.87 434.132 24.77 836.868 53.694v192H1v-192z"/>
  <g id="bush3" fill="#A6D452">
    <g>
      <path d="M1059.917 843.654c64.974-16.385 124.987.088 137.823 39.593 6.303 19.4.137 40.995-15.138 60.903 9.243 8.382 14.36 17.613 14.36 27.308 0 38.36-80.122 69.458-178.96 69.458-98.837 0-178.96-31.097-178.96-69.458 0-12.75 8.85-24.698 24.3-34.968 1.907-19.32 11.888-36.92 28.803-47.084 7.47-4.488 15.585-7.102 23.865-7.985-5.38-37.42 6.956-71.54 34.31-85.48 34.864-17.76 81.906 3.48 109.597 47.72z"/>
    </g>
  </g>
  <g id="bush4" fill="#5B9B12">
    <g>
      <path d="M1370.094 882.68C1390.21 893.892 1402 907.512 1402 922.2c0 38.292-80.14 69.333-179 69.333s-179-31.04-179-69.333c0-13.146 9.446-25.438 25.853-35.913 2.18-18.882 12.115-36.012 28.723-45.992 11.17-6.71 23.776-9.24 36.217-8.064 4.41-40.1 36.778-71.23 76.054-71.23 41.563 0 75.39 34.87 76.535 78.33 23.69-8.57 50.053-4.07 67.37 13.86 8.074 8.36 13.163 18.59 15.342 29.5z"/>
    </g>
  </g>
  <g id="bush2" fill="#249024">
    <g>
      <path d="M2979.458 989.855c66.02 11.46 114.145 50.917 109.803 92.227-2.13 20.287-16.54 37.507-38.6 49.48 5.04 11.418 5.96 21.932 2.02 30.79-15.6 35.043-101.45 30.863-191.74-9.338-90.29-40.2-150.84-101.2-135.24-136.243 5.19-11.64 18.13-18.96 36.42-22.06 9.6-16.87 25.88-28.89 45.47-31.29 8.65-1.06 17.13-.15 25.05 2.41 10.31-36.38 35.46-62.53 66.12-64.13 39.08-2.05 73.41 36.49 80.72 88.17z"/>
    </g>
  </g>
  <g id="bush1" fill="#5B9B12">
    <g>
      <path d="M2835.134 1084.13c19.285 12.588 30.097 26.998 29.072 41.65-2.67 38.2-84.782 63.574-183.4 56.678-98.618-6.896-176.4-43.452-173.728-81.65.917-13.115 11.198-24.718 28.296-34.023 3.49-18.683 14.597-35.08 31.86-43.876 11.61-5.92 24.363-7.56 36.692-5.52 7.196-39.7 41.658-68.49 80.837-65.75 41.462 2.89 72.776 40.03 70.886 83.47 24.23-6.91 50.21-.57 66.23 18.52 7.47 8.9 11.83 19.46 13.25 30.49z"/>
    </g>
  </g>
  <g id="flower1">
    <g transform="translate(1323 887)">
      <path id="leaves1" fill="#F76E54" d="M15.667 30.53c-1.417.3-2.998.47-4.667.47-6.075 0-11-2.24-11-5s4.925-5 11-5c2.49 0 4.788.376 6.632 1.01-1.285-1.084-2.57-2.49-3.728-4.142C10.42 12.89 9.43 7.573 11.69 5.988c2.263-1.583 6.92 1.168 10.406 6.144.35.5.674 1.003.973 1.506-.08-.9-.1-1.843-.07-2.812.21-6.072 2.62-10.916 5.38-10.82 2.76.097 4.82 5.097 4.61 11.168-.06 1.504-.24 2.93-.54 4.228.69-.762 1.46-1.514 2.32-2.232 4.65-3.905 9.86-5.356 11.64-3.24 1.77 2.115-.56 6.995-5.21 10.9-.53.44-1.06.85-1.59 1.227.42-.03.85-.05 1.29-.056 6.07-.1 11.04 2.05 11.09 4.81.05 2.76-4.84 5.09-10.91 5.19-1.85.04-3.59-.14-5.13-.48 1.08 1 2.15 2.22 3.13 3.62 3.48 4.98 4.47 10.3 2.21 11.88-2.24 1.57-6.83-1.11-10.31-6 0 .06-.01.11-.01.17-.21 6.07-2.62 10.92-5.38 10.82-2.76-.09-4.83-5.09-4.62-11.17.04-1.09.15-2.15.32-3.15-.86 1.08-1.91 2.15-3.11 3.16-4.66 3.91-9.87 5.36-11.64 3.24-1.78-2.11.56-6.99 5.21-10.9 1.28-1.07 2.6-1.96 3.88-2.64zm4.025-1.466c1.65-.28 2.993-.02 3.734.865.3.35.483.79.557 1.29.73-.81 1.55-1.25 2.4-1.22.458.01.895.16 1.307.43.195-.63.526-1.12 1-1.45.485-.34 1.08-.48 1.75-.45-.278-.43-.43-.89-.438-1.36-.014-.8.387-1.57 1.112-2.25-.64-.14-1.167-.43-1.54-.87-.518-.62-.686-1.47-.55-2.47-.452.26-.924.4-1.408.38-.762-.03-1.47-.43-2.094-1.12.026 1.42-.365 2.54-1.213 3.14-.79.54-1.85.57-3.06.17.48.56.74 1.17.74 1.81 0 1.15-.86 2.21-2.31 3.06z"/>
      <ellipse id="nectar1" cx="25.5" cy="27" fill="#FEEEC5" rx="6.5" ry="6"/>
    </g>
  </g>
  <g id="flower2">
    <g transform="rotate(-29 2217.885 -1554.648)">
      <path id="leaves2" fill="#6DE5EA" d="M15.667 30.53c-1.417.3-2.998.47-4.667.47-6.075 0-11-2.24-11-5s4.925-5 11-5c2.49 0 4.788.376 6.632 1.01-1.285-1.084-2.57-2.49-3.728-4.142C10.42 12.89 9.43 7.573 11.69 5.988c2.263-1.583 6.92 1.168 10.406 6.144.35.5.674 1.003.973 1.506-.08-.9-.1-1.843-.07-2.812.21-6.072 2.62-10.916 5.38-10.82 2.76.097 4.82 5.097 4.61 11.168-.06 1.504-.24 2.93-.54 4.228.69-.762 1.46-1.514 2.32-2.232 4.65-3.905 9.86-5.356 11.64-3.24 1.77 2.115-.56 6.995-5.21 10.9-.53.44-1.06.85-1.59 1.227.42-.03.85-.05 1.29-.056 6.07-.1 11.04 2.05 11.09 4.81.05 2.76-4.84 5.09-10.91 5.19-1.85.04-3.59-.14-5.13-.48 1.08 1 2.15 2.22 3.13 3.62 3.48 4.98 4.47 10.3 2.21 11.88-2.24 1.57-6.83-1.11-10.31-6 0 .06-.01.11-.01.17-.21 6.07-2.62 10.92-5.38 10.82-2.76-.09-4.83-5.09-4.62-11.17.04-1.09.15-2.15.32-3.15-.86 1.08-1.91 2.15-3.11 3.16-4.66 3.91-9.87 5.36-11.64 3.24-1.78-2.11.56-6.99 5.21-10.9 1.28-1.07 2.6-1.96 3.88-2.64zm4.025-1.466c1.65-.28 2.993-.02 3.734.865.3.35.483.79.557 1.29.73-.81 1.55-1.25 2.4-1.22.458.01.895.16 1.307.43.195-.63.526-1.12 1-1.45.485-.34 1.08-.48 1.75-.45-.278-.43-.43-.89-.438-1.36-.014-.8.387-1.57 1.112-2.25-.64-.14-1.167-.43-1.54-.87-.518-.62-.686-1.47-.55-2.47-.452.26-.924.4-1.408.38-.762-.03-1.47-.43-2.094-1.12.026 1.42-.365 2.54-1.213 3.14-.79.54-1.85.57-3.06.17.48.56.74 1.17.74 1.81 0 1.15-.86 2.21-2.31 3.06z"/>
      <ellipse id="nectar2" cx="25.5" cy="27" fill="#FEEEC5" rx="6.5" ry="6"/>
    </g>
  </g>
  <g id="flower3">
    <g transform="rotate(-29 3064.234 -3692.77)">
      <path id="leaves3" fill="#CD4963" d="M15.667 30.53c-1.417.3-2.998.47-4.667.47-6.075 0-11-2.24-11-5s4.925-5 11-5c2.49 0 4.788.376 6.632 1.01-1.285-1.084-2.57-2.49-3.728-4.142C10.42 12.89 9.43 7.573 11.69 5.988c2.263-1.583 6.92 1.168 10.406 6.144.35.5.674 1.003.973 1.506-.08-.9-.1-1.843-.07-2.812.21-6.072 2.62-10.916 5.38-10.82 2.76.097 4.82 5.097 4.61 11.168-.06 1.504-.24 2.93-.54 4.228.69-.762 1.46-1.514 2.32-2.232 4.65-3.905 9.86-5.356 11.64-3.24 1.77 2.115-.56 6.995-5.21 10.9-.53.44-1.06.85-1.59 1.227.42-.03.85-.05 1.29-.056 6.07-.1 11.04 2.05 11.09 4.81.05 2.76-4.84 5.09-10.91 5.19-1.85.04-3.59-.14-5.13-.48 1.08 1 2.15 2.22 3.13 3.62 3.48 4.98 4.47 10.3 2.21 11.88-2.24 1.57-6.83-1.11-10.31-6 0 .06-.01.11-.01.17-.21 6.07-2.62 10.92-5.38 10.82-2.76-.09-4.83-5.09-4.62-11.17.04-1.09.15-2.15.32-3.15-.86 1.08-1.91 2.15-3.11 3.16-4.66 3.91-9.87 5.36-11.64 3.24-1.78-2.11.56-6.99 5.21-10.9 1.28-1.07 2.6-1.96 3.88-2.64zm4.025-1.466c1.65-.28 2.993-.02 3.734.865.3.35.483.79.557 1.29.73-.81 1.55-1.25 2.4-1.22.458.01.895.16 1.307.43.195-.63.526-1.12 1-1.45.485-.34 1.08-.48 1.75-.45-.278-.43-.43-.89-.438-1.36-.014-.8.387-1.57 1.112-2.25-.64-.14-1.167-.43-1.54-.87-.518-.62-.686-1.47-.55-2.47-.452.26-.924.4-1.408.38-.762-.03-1.47-.43-2.094-1.12.026 1.42-.365 2.54-1.213 3.14-.79.54-1.85.57-3.06.17.48.56.74 1.17.74 1.81 0 1.15-.86 2.21-2.31 3.06z"/>
      <ellipse id="nectar3" cx="25.5" cy="27" fill="#FEEEC5" rx="6.5" ry="6"/>
    </g>
  </g>
  <g id="flower4">
    <g transform="rotate(-29 3446.4 -4891.35)">
      <path id="leaves4" fill="#A83A55" d="M15.667 30.53c-1.417.3-2.998.47-4.667.47-6.075 0-11-2.24-11-5s4.925-5 11-5c2.49 0 4.788.376 6.632 1.01-1.285-1.084-2.57-2.49-3.728-4.142C10.42 12.89 9.43 7.573 11.69 5.988c2.263-1.583 6.92 1.168 10.406 6.144.35.5.674 1.003.973 1.506-.08-.9-.1-1.843-.07-2.812.21-6.072 2.62-10.916 5.38-10.82 2.76.097 4.82 5.097 4.61 11.168-.06 1.504-.24 2.93-.54 4.228.69-.762 1.46-1.514 2.32-2.232 4.65-3.905 9.86-5.356 11.64-3.24 1.77 2.115-.56 6.995-5.21 10.9-.53.44-1.06.85-1.59 1.227.42-.03.85-.05 1.29-.056 6.07-.1 11.04 2.05 11.09 4.81.05 2.76-4.84 5.09-10.91 5.19-1.85.04-3.59-.14-5.13-.48 1.08 1 2.15 2.22 3.13 3.62 3.48 4.98 4.47 10.3 2.21 11.88-2.24 1.57-6.83-1.11-10.31-6 0 .06-.01.11-.01.17-.21 6.07-2.62 10.92-5.38 10.82-2.76-.09-4.83-5.09-4.62-11.17.04-1.09.15-2.15.32-3.15-.86 1.08-1.91 2.15-3.11 3.16-4.66 3.91-9.87 5.36-11.64 3.24-1.78-2.11.56-6.99 5.21-10.9 1.28-1.07 2.6-1.96 3.88-2.64zm4.025-1.466c1.65-.28 2.993-.02 3.734.865.3.35.483.79.557 1.29.73-.81 1.55-1.25 2.4-1.22.458.01.895.16 1.307.43.195-.63.526-1.12 1-1.45.485-.34 1.08-.48 1.75-.45-.278-.43-.43-.89-.438-1.36-.014-.8.387-1.57 1.112-2.25-.64-.14-1.167-.43-1.54-.87-.518-.62-.686-1.47-.55-2.47-.452.26-.924.4-1.408.38-.762-.03-1.47-.43-2.094-1.12.026 1.42-.365 2.54-1.213 3.14-.79.54-1.85.57-3.06.17.48.56.74 1.17.74 1.81 0 1.15-.86 2.21-2.31 3.06z"/>
      <ellipse id="nectar4" cx="25.5" cy="27" fill="#FEEEC5" rx="6.5" ry="6"/>
    </g>
  </g>
  <g id="flower1">
    <g transform="translate(2571 1072)">
      <path id="leaves1" fill="#F76E54" d="M15.667 30.53c-1.417.3-2.998.47-4.667.47-6.075 0-11-2.24-11-5s4.925-5 11-5c2.49 0 4.788.376 6.632 1.01-1.285-1.084-2.57-2.49-3.728-4.142C10.42 12.89 9.43 7.573 11.69 5.988c2.263-1.583 6.92 1.168 10.406 6.144.35.5.674 1.003.973 1.506-.08-.9-.1-1.843-.07-2.812.21-6.072 2.62-10.916 5.38-10.82 2.76.097 4.82 5.097 4.61 11.168-.06 1.504-.24 2.93-.54 4.228.69-.762 1.46-1.514 2.32-2.232 4.65-3.905 9.86-5.356 11.64-3.24 1.77 2.115-.56 6.995-5.21 10.9-.53.44-1.06.85-1.59 1.227.42-.03.85-.05 1.29-.056 6.07-.1 11.04 2.05 11.09 4.81.05 2.76-4.84 5.09-10.91 5.19-1.85.04-3.59-.14-5.13-.48 1.08 1 2.15 2.22 3.13 3.62 3.48 4.98 4.47 10.3 2.21 11.88-2.24 1.57-6.83-1.11-10.31-6 0 .06-.01.11-.01.17-.21 6.07-2.62 10.92-5.38 10.82-2.76-.09-4.83-5.09-4.62-11.17.04-1.09.15-2.15.32-3.15-.86 1.08-1.91 2.15-3.11 3.16-4.66 3.91-9.87 5.36-11.64 3.24-1.78-2.11.56-6.99 5.21-10.9 1.28-1.07 2.6-1.96 3.88-2.64zm4.025-1.466c1.65-.28 2.993-.02 3.734.865.3.35.483.79.557 1.29.73-.81 1.55-1.25 2.4-1.22.458.01.895.16 1.307.43.195-.63.526-1.12 1-1.45.485-.34 1.08-.48 1.75-.45-.278-.43-.43-.89-.438-1.36-.014-.8.387-1.57 1.112-2.25-.64-.14-1.167-.43-1.54-.87-.518-.62-.686-1.47-.55-2.47-.452.26-.924.4-1.408.38-.762-.03-1.47-.43-2.094-1.12.026 1.42-.365 2.54-1.213 3.14-.79.54-1.85.57-3.06.17.48.56.74 1.17.74 1.81 0 1.15-.86 2.21-2.31 3.06z"/>
      <ellipse id="nectar1" cx="25.5" cy="27" fill="#FEEEC5" rx="6.5" ry="6"/>
    </g>
  </g>
  <g id="flower2">
    <g transform="rotate(-29 3961.725 -6064.37)">
      <path id="leaves2" fill="#6DE5EA" d="M15.667 30.53c-1.417.3-2.998.47-4.667.47-6.075 0-11-2.24-11-5s4.925-5 11-5c2.49 0 4.788.376 6.632 1.01-1.285-1.084-2.57-2.49-3.728-4.142C10.42 12.89 9.43 7.573 11.69 5.988c2.263-1.583 6.92 1.168 10.406 6.144.35.5.674 1.003.973 1.506-.08-.9-.1-1.843-.07-2.812.21-6.072 2.62-10.916 5.38-10.82 2.76.097 4.82 5.097 4.61 11.168-.06 1.504-.24 2.93-.54 4.228.69-.762 1.46-1.514 2.32-2.232 4.65-3.905 9.86-5.356 11.64-3.24 1.77 2.115-.56 6.995-5.21 10.9-.53.44-1.06.85-1.59 1.227.42-.03.85-.05 1.29-.056 6.07-.1 11.04 2.05 11.09 4.81.05 2.76-4.84 5.09-10.91 5.19-1.85.04-3.59-.14-5.13-.48 1.08 1 2.15 2.22 3.13 3.62 3.48 4.98 4.47 10.3 2.21 11.88-2.24 1.57-6.83-1.11-10.31-6 0 .06-.01.11-.01.17-.21 6.07-2.62 10.92-5.38 10.82-2.76-.09-4.83-5.09-4.62-11.17.04-1.09.15-2.15.32-3.15-.86 1.08-1.91 2.15-3.11 3.16-4.66 3.91-9.87 5.36-11.64 3.24-1.78-2.11.56-6.99 5.21-10.9 1.28-1.07 2.6-1.96 3.88-2.64zm4.025-1.466c1.65-.28 2.993-.02 3.734.865.3.35.483.79.557 1.29.73-.81 1.55-1.25 2.4-1.22.458.01.895.16 1.307.43.195-.63.526-1.12 1-1.45.485-.34 1.08-.48 1.75-.45-.278-.43-.43-.89-.438-1.36-.014-.8.387-1.57 1.112-2.25-.64-.14-1.167-.43-1.54-.87-.518-.62-.686-1.47-.55-2.47-.452.26-.924.4-1.408.38-.762-.03-1.47-.43-2.094-1.12.026 1.42-.365 2.54-1.213 3.14-.79.54-1.85.57-3.06.17.48.56.74 1.17.74 1.81 0 1.15-.86 2.21-2.31 3.06z"/>
      <ellipse id="nectar2" cx="25.5" cy="27" fill="#FEEEC5" rx="6.5" ry="6"/>
    </g>
  </g>
  <g id="flower3">
    <g transform="rotate(-29 2412.166 -1641.978)">
      <path id="leaves3" fill="#CD4963" d="M15.667 30.53c-1.417.3-2.998.47-4.667.47-6.075 0-11-2.24-11-5s4.925-5 11-5c2.49 0 4.788.376 6.632 1.01-1.285-1.084-2.57-2.49-3.728-4.142C10.42 12.89 9.43 7.573 11.69 5.988c2.263-1.583 6.92 1.168 10.406 6.144.35.5.674 1.003.973 1.506-.08-.9-.1-1.843-.07-2.812.21-6.072 2.62-10.916 5.38-10.82 2.76.097 4.82 5.097 4.61 11.168-.06 1.504-.24 2.93-.54 4.228.69-.762 1.46-1.514 2.32-2.232 4.65-3.905 9.86-5.356 11.64-3.24 1.77 2.115-.56 6.995-5.21 10.9-.53.44-1.06.85-1.59 1.227.42-.03.85-.05 1.29-.056 6.07-.1 11.04 2.05 11.09 4.81.05 2.76-4.84 5.09-10.91 5.19-1.85.04-3.59-.14-5.13-.48 1.08 1 2.15 2.22 3.13 3.62 3.48 4.98 4.47 10.3 2.21 11.88-2.24 1.57-6.83-1.11-10.31-6 0 .06-.01.11-.01.17-.21 6.07-2.62 10.92-5.38 10.82-2.76-.09-4.83-5.09-4.62-11.17.04-1.09.15-2.15.32-3.15-.86 1.08-1.91 2.15-3.11 3.16-4.66 3.91-9.87 5.36-11.64 3.24-1.78-2.11.56-6.99 5.21-10.9 1.28-1.07 2.6-1.96 3.88-2.64zm4.025-1.466c1.65-.28 2.993-.02 3.734.865.3.35.483.79.557 1.29.73-.81 1.55-1.25 2.4-1.22.458.01.895.16 1.307.43.195-.63.526-1.12 1-1.45.485-.34 1.08-.48 1.75-.45-.278-.43-.43-.89-.438-1.36-.014-.8.387-1.57 1.112-2.25-.64-.14-1.167-.43-1.54-.87-.518-.62-.686-1.47-.55-2.47-.452.26-.924.4-1.408.38-.762-.03-1.47-.43-2.094-1.12.026 1.42-.365 2.54-1.213 3.14-.79.54-1.85.57-3.06.17.48.56.74 1.17.74 1.81 0 1.15-.86 2.21-2.31 3.06z"/>
      <ellipse id="nectar3" cx="25.5" cy="27" fill="#FEEEC5" rx="6.5" ry="6"/>
    </g>
  </g>
  <g id="flower1">
    <g transform="translate(68 1240)">
      <path id="leaves1" fill="#F76E54" d="M15.667 30.53c-1.417.3-2.998.47-4.667.47-6.075 0-11-2.24-11-5s4.925-5 11-5c2.49 0 4.788.376 6.632 1.01-1.285-1.084-2.57-2.49-3.728-4.142C10.42 12.89 9.43 7.573 11.69 5.988c2.263-1.583 6.92 1.168 10.406 6.144.35.5.674 1.003.973 1.506-.08-.9-.1-1.843-.07-2.812.21-6.072 2.62-10.916 5.38-10.82 2.76.097 4.82 5.097 4.61 11.168-.06 1.504-.24 2.93-.54 4.228.69-.762 1.46-1.514 2.32-2.232 4.65-3.905 9.86-5.356 11.64-3.24 1.77 2.115-.56 6.995-5.21 10.9-.53.44-1.06.85-1.59 1.227.42-.03.85-.05 1.29-.056 6.07-.1 11.04 2.05 11.09 4.81.05 2.76-4.84 5.09-10.91 5.19-1.85.04-3.59-.14-5.13-.48 1.08 1 2.15 2.22 3.13 3.62 3.48 4.98 4.47 10.3 2.21 11.88-2.24 1.57-6.83-1.11-10.31-6 0 .06-.01.11-.01.17-.21 6.07-2.62 10.92-5.38 10.82-2.76-.09-4.83-5.09-4.62-11.17.04-1.09.15-2.15.32-3.15-.86 1.08-1.91 2.15-3.11 3.16-4.66 3.91-9.87 5.36-11.64 3.24-1.78-2.11.56-6.99 5.21-10.9 1.28-1.07 2.6-1.96 3.88-2.64zm4.025-1.466c1.65-.28 2.993-.02 3.734.865.3.35.483.79.557 1.29.73-.81 1.55-1.25 2.4-1.22.458.01.895.16 1.307.43.195-.63.526-1.12 1-1.45.485-.34 1.08-.48 1.75-.45-.278-.43-.43-.89-.438-1.36-.014-.8.387-1.57 1.112-2.25-.64-.14-1.167-.43-1.54-.87-.518-.62-.686-1.47-.55-2.47-.452.26-.924.4-1.408.38-.762-.03-1.47-.43-2.094-1.12.026 1.42-.365 2.54-1.213 3.14-.79.54-1.85.57-3.06.17.48.56.74 1.17.74 1.81 0 1.15-.86 2.21-2.31 3.06z"/>
      <ellipse id="nectar1" cx="25.5" cy="27" fill="#FEEEC5" rx="6.5" ry="6"/>
    </g>
  </g>
  <g id="acorn">
    <g>
      <path id="acornbottom" fill="#AB6333" d="M1862.393 354.178c-10.025-1.183-14.154 33.025-6.245 39.102 7.908 6.077 39.43-5.608 37.146-15.356-1.304-5.563-22.582-22.765-30.9-23.746z"/>
      <path id="acorntop" fill="#AB4C09" d="M1858.384 353.004c1.23 3.608 11.54 4.433 19.162 10.27 8.23 6.303 13.863 17.51 16.546 17.823 2.677.312 5.513-8.39 1.766-18.462-.717-1.925-3.235-4.844-7.556-8.755-2.295-6.066-3.993-9.768-5.096-11.105-1.103-1.337-3.07-1.27-5.9.206-1.256 1.48-1.22 2.56.114 3.22 2 1.01 3.276-3.48 5.898-.2 1.75 2.19 2.488 4.85 2.218 7.98-1.386-2.69-5.323-4.48-11.81-5.36-9.73-1.33-16.667.51-15.342 4.39z"/>
    </g>
  </g>
  <g id="acorn">
    <g>
      <path id="acornbottom" fill="#AB6333" d="M1585.82 310.59c-8.974 4.626 6.732 35.294 16.687 35.91 9.955.616 29.553-26.698 22.208-33.502-4.19-3.884-31.45-6.246-38.896-2.407z"/>
      <path id="acorntop" fill="#AB4C09" d="M1581.84 311.86c3.037 2.302 12.044-2.778 21.63-2.2 10.347.62 21.282 6.762 23.68 5.522 2.395-1.24-.12-10.04-8.858-16.293-1.67-1.2-5.39-2.21-11.16-3.04-5.294-3.75-8.773-5.87-10.435-6.36-1.662-.5-3.254.66-4.775 3.47-.216 1.93.416 2.8 1.894 2.6 2.22-.29.767-4.72 4.775-3.47 2.68.83 4.78 2.63 6.31 5.38-2.65-1.46-6.91-.74-12.79 2.15-8.81 4.34-13.53 9.74-10.26 12.22z"/>
    </g>
  </g>
  <g id="acorn">
    <g>
      <path id="acornbottom" fill="#AB6333" d="M1672.292 460.12c-7.587 6.66 15.072 32.616 24.88 30.806 9.808-1.81 22.217-33.055 13.444-37.88-5.007-2.754-32.028 1.55-38.324 7.074z"/>
      <path id="acorntop" fill="#AB4C09" d="M1668.737 462.313c3.505 1.5 11.016-5.608 20.455-7.367 10.19-1.9 22.288 1.414 24.316-.37 2.023-1.78-2.547-9.712-12.538-13.666-1.91-.756-5.765-.837-11.562-.243-6.044-2.355-9.932-3.57-11.663-3.644-1.732-.075-2.997 1.432-3.794 4.52.26 1.925 1.08 2.616 2.47 2.073 2.09-.815-.4-4.767 3.8-4.522 2.8.164 5.27 1.395 7.42 3.693-2.92-.77-6.89.96-11.89 5.187-7.49 6.342-10.77 12.724-7 14.34z"/>
    </g>
  </g>
  <g id="acorn">
    <g>
      <path id="acornbottom" fill="#AB6333" d="M3072.075 490.645c-9.203 4.15 4.877 35.598 14.786 36.734 9.91 1.13 30.91-25.12 23.94-32.3-3.98-4.1-31.08-7.89-38.71-4.44z"/>
      <path id="acorntop" fill="#AB4C09" d="M3068.034 491.703c2.913 2.46 12.173-2.142 21.715-1.065 10.3 1.163 20.9 7.87 23.36 6.755 2.45-1.11.4-10.032-8-16.734-1.61-1.29-5.27-2.49-10.99-3.62-5.1-4.02-8.46-6.32-10.09-6.9-1.64-.58-3.29.49-4.95 3.21-.32 1.91.27 2.81 1.75 2.7 2.23-.18 1.01-4.68 4.95-3.22 2.62.97 4.63 2.87 6.01 5.7-2.58-1.59-6.87-1.1-12.89 1.48-9.03 3.87-14.03 9.02-10.89 11.66z"/>
    </g>
  </g>
  <g id="acorn">
    <g>
      <path id="acornbottom" fill="#AB6333" d="M3300.393 653.178c-10.025-1.183-14.154 33.025-6.245 39.102 7.908 6.077 39.43-5.608 37.146-15.356-1.304-5.563-22.582-22.765-30.9-23.746z"/>
      <path id="acorntop" fill="#AB4C09" d="M3296.384 652.004c1.23 3.608 11.54 4.433 19.162 10.27 8.23 6.303 13.863 17.51 16.546 17.823 2.677.312 5.513-8.39 1.766-18.462-.717-1.925-3.235-4.844-7.556-8.755-2.295-6.066-3.993-9.768-5.096-11.105-1.103-1.337-3.07-1.27-5.9.206-1.256 1.48-1.22 2.56.114 3.22 2 1.01 3.276-3.48 5.898-.2 1.75 2.19 2.488 4.85 2.218 7.98-1.386-2.69-5.323-4.48-11.81-5.36-9.73-1.33-16.667.51-15.342 4.39z"/>
    </g>
  </g>
  <g id="acorn">
    <g>
      <path id="acornbottom" fill="#AB6333" d="M3254.96 443.958c-5.604 8.395 23 27.604 32.006 23.316 9.005-4.287 12.904-37.678 3.18-40.068-5.547-1.364-30.534 9.785-35.185 16.752z"/>
      <path id="acorntop" fill="#AB4C09" d="M3252.095 446.997c3.773.54 9.188-8.27 17.85-12.41 9.353-4.473 21.895-4.404 23.392-6.652 1.493-2.244-4.974-8.72-15.648-9.955-2.05-.236-5.79.683-11.24 2.758-6.45-.71-10.52-.877-12.21-.502-1.69.376-2.52 2.16-2.5 5.35.74 1.792 1.72 2.246 2.92 1.362 1.8-1.327-1.62-4.502 2.49-5.35 2.74-.565 5.44-.016 8.12 1.648-3.03.014-6.41 2.71-10.15 8.087-5.6 8.067-7.12 15.08-3.06 15.664z"/>
    </g>
  </g>
</g>
</svg>
