<svg class="scene" viewBox="0 0 4002 1348">
  <g id="scene" fill="none" fillRule="evenodd">
    <g id="sky">
      <path id="skybg" fill="#A0E1FE" d="M0 0h4001v1189H0z"/>
      <g id="cloud1" fill="#FFF">
        <g>
          <path d="M285.753 583.526c28.363-1.045 54.364-6.615 75.43-15.352 4.657.32 9.44.486 14.317.486 47.773 0 86.5-15.954 86.5-35.635 0-14.192-20.14-26.447-49.29-32.178C403.47 465.347 345.784 438 276 438c-17.822 0-34.855 1.784-50.493 5.03-10.703-3.233-22.547-5.03-35.007-5.03-47.773 0-86.5 26.413-86.5 58.995 0 20.634 15.532 38.793 39.056 49.337-3.273 3.76-5.056 7.81-5.056 12.033 0 19.68 38.727 35.635 86.5 35.635 23.93 0 45.593-4.004 61.253-10.474z"/>
        </g>
      </g>
      <g id="cloud2" fill="#FFF">
        <g>
          <path d="M616.73 530.666C638.272 517.9 668.074 510 701 510c65.722 0 119 31.476 119 70.304 0 2.873-.292 5.706-.86 8.49 32.436 8.868 53.86 24.168 53.86 41.556 0 27.42-53.278 49.65-119 49.65-58.138 0-106.538-17.395-116.934-40.39-9.53-3.594-18.136-7.967-25.56-12.967-15.776 6.928-38.17 11.254-63.006 11.254-47.773 0-86.5-16.005-86.5-35.747 0-16.83 28.14-30.942 66.034-34.742-.023-.334-.034-.67-.034-1.006 0-19.743 38.727-35.748 86.5-35.748.745 0 1.488.004 2.23.012z"/>
        </g>
      </g>
      <g id="cloud3" fill="#FFF">
        <g>
          <path d="M1031.473 479.518c-.313-2.076-.473-4.18-.473-6.303 0-38.78 53.278-70.215 119-70.215 65.722 0 119 31.436 119 70.215 0 2.87-.292 5.7-.86 8.48 32.436 8.856 53.86 24.137 53.86 41.503 0 27.386-53.278 49.587-119 49.587-2.12 0-4.226-.023-6.318-.07-12.85 13.07-43.91 22.285-80.182 22.285-47.773 0-86.5-15.985-86.5-35.702 0-7.358 5.392-14.196 14.635-19.878-27.71-5.95-46.635-17.91-46.635-31.693 0-11.47 13.105-21.677 33.473-28.21z"/>
        </g>
      </g>
      <g id="cloud4" fill="#FFF">
        <g>
          <path d="M2058.007 719.53c-.005-.18-.007-.358-.007-.537 0-26.506 53.278-47.993 119-47.993 65.722 0 119 21.487 119 47.993 0 13.14-13.094 25.047-34.307 33.714 21.213 8.667 34.307 20.573 34.307 33.714 0 26.51-53.278 48-119 48-15.026 0-29.4-1.12-42.638-3.17-12.86 3.03-27.853 4.76-43.862 4.76-47.773 0-86.5-15.45-86.5-34.5 0-5.69 3.454-11.06 9.572-15.79-42.128-2.32-74.572-16.74-74.572-34.18 0-19.05 38.727-34.5 86.5-34.5 11.498 0 22.47.9 32.507 2.52z"/>
        </g>
      </g>
      <g id="cloud5" fill="#FFF">
        <g>
          <path d="M2547.182 457.1c-3.37 4.435-5.182 9.142-5.182 14.02 0 26.443 53.278 47.88 119 47.88 53.078 0 98.04-13.982 113.375-33.292 1.864.035 3.74.053 5.625.053 16.602 0 32.41-1.36 46.766-3.83 11.898 2.46 25.41 3.84 39.734 3.84 47.773 0 86.5-15.41 86.5-34.43 0-16.01-27.48-29.47-64.7-33.32-18.758-16.52-60.196-28.01-108.3-28.01-53.078 0-98.04 13.98-113.375 33.29-1.864-.03-3.74-.05-5.625-.05h-.05c-1.573-18.46-39.676-33.24-86.45-33.24-47.773 0-86.5 15.42-86.5 34.43 0 15.22 24.796 28.13 59.182 32.68z"/>
        </g>
      </g>
    </g>
    <g id="tree1">
      <g transform="translate(1445 70)">
        <path id="Tree-Stump" fill="#AB6333" d="M220.598 325.112L188.985 882h106.65L252.56 325.112z"/>
        <ellipse id="Leaf1" cx="331.418" cy="282.434" fill="#249024" rx="162.582" ry="168.281"/>
        <ellipse id="Leaf2" cx="228.935" cy="327.02" fill="#86B62D" rx="130.274" ry="123.695"/>
        <ellipse id="Leaf3" cx="87.023" cy="267.341" fill="#5B9B12" rx="87.023" ry="91.08"/>
        <ellipse id="Leaf4" cx="276.703" cy="162.556" fill="#249024" rx="189.506" ry="162.556"/>
        <ellipse id="Leaf5" cx="324.991" cy="307.59" fill="#5B9B12" rx="96.056" ry="94.897"/>
        <ellipse id="Leaf6" cx="124.195" cy="390.863" fill="#249024" rx="64.79" ry="59.852"/>
        <ellipse id="Leaf7" cx="391.344" cy="233.338" fill="#A6D452" rx="74.864" ry="70.609"/>
        <ellipse id="Leaf8" cx="325.165" cy="391.036" fill="#A6D452" rx="31.266" ry="28.452"/>
      </g>
    </g>
    <g id="tree1">
      <g transform="translate(2945 253)">
        <path id="Tree-Stump" fill="#AB6333" d="M220.598 325.112L188.985 882h106.65L252.56 325.112z"/>
        <ellipse id="Leaf1" cx="331.418" cy="282.434" fill="#249024" rx="162.582" ry="168.281"/>
        <ellipse id="Leaf2" cx="228.935" cy="327.02" fill="#86B62D" rx="130.274" ry="123.695"/>
        <ellipse id="Leaf3" cx="87.023" cy="267.341" fill="#5B9B12" rx="87.023" ry="91.08"/>
        <ellipse id="Leaf4" cx="276.703" cy="162.556" fill="#249024" rx="189.506" ry="162.556"/>
        <ellipse id="Leaf5" cx="324.991" cy="307.59" fill="#5B9B12" rx="96.056" ry="94.897"/>
        <ellipse id="Leaf6" cx="124.195" cy="390.863" fill="#249024" rx="64.79" ry="59.852"/>
        <ellipse id="Leaf7" cx="391.344" cy="233.338" fill="#A6D452" rx="74.864" ry="70.609"/>
        <ellipse id="Leaf8" cx="325.165" cy="391.036" fill="#A6D452" rx="31.266" ry="28.452"/>
      </g>
    </g>
    <path id="grass" fill="#86B62D" d="M0 1156.05c599.036-149.95 1151.44-221.717 1657.213-215.307 758.66 9.614 687.695 132.164 1112.317 145.292 283.08 8.752 693.904 34.757 1232.47 78.016v183.45H0v-191.45z"/>
    <g id="bush3" fill="#A6D452">
      <g>
        <path d="M1026.917 843.654c64.974-16.385 124.987.088 137.823 39.593 6.303 19.4.137 40.995-15.138 60.903 9.243 8.382 14.36 17.613 14.36 27.308 0 38.36-80.122 69.458-178.96 69.458-98.837 0-178.96-31.097-178.96-69.458 0-12.75 8.85-24.698 24.3-34.968 1.907-19.32 11.888-36.92 28.803-47.084 7.47-4.488 15.585-7.102 23.865-7.985-5.38-37.42 6.956-71.54 34.31-85.48 34.864-17.76 81.906 3.48 109.597 47.72z"/>
      </g>
    </g>
    <g id="bush4" fill="#5B9B12">
      <g>
        <path d="M1337.094 882.68C1357.21 893.892 1369 907.512 1369 922.2c0 38.292-80.14 69.333-179 69.333s-179-31.04-179-69.333c0-13.146 9.446-25.438 25.853-35.913 2.18-18.882 12.115-36.012 28.723-45.992 11.17-6.71 23.776-9.24 36.217-8.064 4.41-40.1 36.778-71.23 76.054-71.23 41.563 0 75.39 34.87 76.535 78.33 23.69-8.57 50.053-4.07 67.37 13.86 8.074 8.36 13.163 18.59 15.342 29.5z"/>
      </g>
    </g>
    <g id="bush2" fill="#249024">
      <g>
        <path d="M2946.458 989.855c66.02 11.46 114.145 50.917 109.803 92.227-2.13 20.287-16.54 37.507-38.6 49.48 5.04 11.418 5.96 21.932 2.02 30.79-15.6 35.043-101.45 30.863-191.74-9.338-90.29-40.2-150.84-101.2-135.24-136.243 5.19-11.64 18.13-18.96 36.42-22.06 9.6-16.87 25.88-28.89 45.47-31.29 8.65-1.06 17.13-.15 25.05 2.41 10.31-36.38 35.46-62.53 66.12-64.13 39.08-2.05 73.41 36.49 80.72 88.17z"/>
      </g>
    </g>
    <g id="bush1" fill="#5B9B12">
      <g>
        <path d="M2802.134 1084.13c19.285 12.588 30.097 26.998 29.072 41.65-2.67 38.2-84.782 63.574-183.4 56.678-98.618-6.896-176.4-43.452-173.728-81.65.917-13.115 11.198-24.718 28.296-34.023 3.49-18.683 14.597-35.08 31.86-43.876 11.61-5.92 24.363-7.56 36.692-5.52 7.196-39.7 41.658-68.49 80.837-65.75 41.462 2.89 72.776 40.03 70.886 83.47 24.23-6.91 50.21-.57 66.23 18.52 7.47 8.9 11.83 19.46 13.25 30.49z"/>
      </g>
    </g>
    <g id="flower1">
      <g transform="translate(1290 887)">
        <path id="leaves1" fill="#F76E54" d="M15.667 30.53c-1.417.3-2.998.47-4.667.47-6.075 0-11-2.24-11-5s4.925-5 11-5c2.49 0 4.788.376 6.632 1.01-1.285-1.084-2.57-2.49-3.728-4.142C10.42 12.89 9.43 7.573 11.69 5.988c2.263-1.583 6.92 1.168 10.406 6.144.35.5.674 1.003.973 1.506-.08-.9-.1-1.843-.07-2.812.21-6.072 2.62-10.916 5.38-10.82 2.76.097 4.82 5.097 4.61 11.168-.06 1.504-.24 2.93-.54 4.228.69-.762 1.46-1.514 2.32-2.232 4.65-3.905 9.86-5.356 11.64-3.24 1.77 2.115-.56 6.995-5.21 10.9-.53.44-1.06.85-1.59 1.227.42-.03.85-.05 1.29-.056 6.07-.1 11.04 2.05 11.09 4.81.05 2.76-4.84 5.09-10.91 5.19-1.85.04-3.59-.14-5.13-.48 1.08 1 2.15 2.22 3.13 3.62 3.48 4.98 4.47 10.3 2.21 11.88-2.24 1.57-6.83-1.11-10.31-6 0 .06-.01.11-.01.17-.21 6.07-2.62 10.92-5.38 10.82-2.76-.09-4.83-5.09-4.62-11.17.04-1.09.15-2.15.32-3.15-.86 1.08-1.91 2.15-3.11 3.16-4.66 3.91-9.87 5.36-11.64 3.24-1.78-2.11.56-6.99 5.21-10.9 1.28-1.07 2.6-1.96 3.88-2.64zm4.025-1.466c1.65-.28 2.993-.02 3.734.865.3.35.483.79.557 1.29.73-.81 1.55-1.25 2.4-1.22.458.01.895.16 1.307.43.195-.63.526-1.12 1-1.45.485-.34 1.08-.48 1.75-.45-.278-.43-.43-.89-.438-1.36-.014-.8.387-1.57 1.112-2.25-.64-.14-1.167-.43-1.54-.87-.518-.62-.686-1.47-.55-2.47-.452.26-.924.4-1.408.38-.762-.03-1.47-.43-2.094-1.12.026 1.42-.365 2.54-1.213 3.14-.79.54-1.85.57-3.06.17.48.56.74 1.17.74 1.81 0 1.15-.86 2.21-2.31 3.06z"/>
        <ellipse id="nectar1" cx="25.5" cy="27" fill="#FEEEC5" rx="6.5" ry="6"/>
      </g>
    </g>
    <g id="flower2">
      <g transform="rotate(-29 2201.385 -1490.847)">
        <path id="leaves2" fill="#6DE5EA" d="M15.667 30.53c-1.417.3-2.998.47-4.667.47-6.075 0-11-2.24-11-5s4.925-5 11-5c2.49 0 4.788.376 6.632 1.01-1.285-1.084-2.57-2.49-3.728-4.142C10.42 12.89 9.43 7.573 11.69 5.988c2.263-1.583 6.92 1.168 10.406 6.144.35.5.674 1.003.973 1.506-.08-.9-.1-1.843-.07-2.812.21-6.072 2.62-10.916 5.38-10.82 2.76.097 4.82 5.097 4.61 11.168-.06 1.504-.24 2.93-.54 4.228.69-.762 1.46-1.514 2.32-2.232 4.65-3.905 9.86-5.356 11.64-3.24 1.77 2.115-.56 6.995-5.21 10.9-.53.44-1.06.85-1.59 1.227.42-.03.85-.05 1.29-.056 6.07-.1 11.04 2.05 11.09 4.81.05 2.76-4.84 5.09-10.91 5.19-1.85.04-3.59-.14-5.13-.48 1.08 1 2.15 2.22 3.13 3.62 3.48 4.98 4.47 10.3 2.21 11.88-2.24 1.57-6.83-1.11-10.31-6 0 .06-.01.11-.01.17-.21 6.07-2.62 10.92-5.38 10.82-2.76-.09-4.83-5.09-4.62-11.17.04-1.09.15-2.15.32-3.15-.86 1.08-1.91 2.15-3.11 3.16-4.66 3.91-9.87 5.36-11.64 3.24-1.78-2.11.56-6.99 5.21-10.9 1.28-1.07 2.6-1.96 3.88-2.64zm4.025-1.466c1.65-.28 2.993-.02 3.734.865.3.35.483.79.557 1.29.73-.81 1.55-1.25 2.4-1.22.458.01.895.16 1.307.43.195-.63.526-1.12 1-1.45.485-.34 1.08-.48 1.75-.45-.278-.43-.43-.89-.438-1.36-.014-.8.387-1.57 1.112-2.25-.64-.14-1.167-.43-1.54-.87-.518-.62-.686-1.47-.55-2.47-.452.26-.924.4-1.408.38-.762-.03-1.47-.43-2.094-1.12.026 1.42-.365 2.54-1.213 3.14-.79.54-1.85.57-3.06.17.48.56.74 1.17.74 1.81 0 1.15-.86 2.21-2.31 3.06z"/>
        <ellipse id="nectar2" cx="25.5" cy="27" fill="#FEEEC5" rx="6.5" ry="6"/>
      </g>
    </g>
    <g id="flower3">
      <g transform="rotate(-29 3047.734 -3628.97)">
        <path id="leaves3" fill="#CD4963" d="M15.667 30.53c-1.417.3-2.998.47-4.667.47-6.075 0-11-2.24-11-5s4.925-5 11-5c2.49 0 4.788.376 6.632 1.01-1.285-1.084-2.57-2.49-3.728-4.142C10.42 12.89 9.43 7.573 11.69 5.988c2.263-1.583 6.92 1.168 10.406 6.144.35.5.674 1.003.973 1.506-.08-.9-.1-1.843-.07-2.812.21-6.072 2.62-10.916 5.38-10.82 2.76.097 4.82 5.097 4.61 11.168-.06 1.504-.24 2.93-.54 4.228.69-.762 1.46-1.514 2.32-2.232 4.65-3.905 9.86-5.356 11.64-3.24 1.77 2.115-.56 6.995-5.21 10.9-.53.44-1.06.85-1.59 1.227.42-.03.85-.05 1.29-.056 6.07-.1 11.04 2.05 11.09 4.81.05 2.76-4.84 5.09-10.91 5.19-1.85.04-3.59-.14-5.13-.48 1.08 1 2.15 2.22 3.13 3.62 3.48 4.98 4.47 10.3 2.21 11.88-2.24 1.57-6.83-1.11-10.31-6 0 .06-.01.11-.01.17-.21 6.07-2.62 10.92-5.38 10.82-2.76-.09-4.83-5.09-4.62-11.17.04-1.09.15-2.15.32-3.15-.86 1.08-1.91 2.15-3.11 3.16-4.66 3.91-9.87 5.36-11.64 3.24-1.78-2.11.56-6.99 5.21-10.9 1.28-1.07 2.6-1.96 3.88-2.64zm4.025-1.466c1.65-.28 2.993-.02 3.734.865.3.35.483.79.557 1.29.73-.81 1.55-1.25 2.4-1.22.458.01.895.16 1.307.43.195-.63.526-1.12 1-1.45.485-.34 1.08-.48 1.75-.45-.278-.43-.43-.89-.438-1.36-.014-.8.387-1.57 1.112-2.25-.64-.14-1.167-.43-1.54-.87-.518-.62-.686-1.47-.55-2.47-.452.26-.924.4-1.408.38-.762-.03-1.47-.43-2.094-1.12.026 1.42-.365 2.54-1.213 3.14-.79.54-1.85.57-3.06.17.48.56.74 1.17.74 1.81 0 1.15-.86 2.21-2.31 3.06z"/>
        <ellipse id="nectar3" cx="25.5" cy="27" fill="#FEEEC5" rx="6.5" ry="6"/>
      </g>
    </g>
    <g id="flower4">
      <g transform="rotate(-29 3429.9 -4827.55)">
        <path id="leaves4" fill="#A83A55" d="M15.667 30.53c-1.417.3-2.998.47-4.667.47-6.075 0-11-2.24-11-5s4.925-5 11-5c2.49 0 4.788.376 6.632 1.01-1.285-1.084-2.57-2.49-3.728-4.142C10.42 12.89 9.43 7.573 11.69 5.988c2.263-1.583 6.92 1.168 10.406 6.144.35.5.674 1.003.973 1.506-.08-.9-.1-1.843-.07-2.812.21-6.072 2.62-10.916 5.38-10.82 2.76.097 4.82 5.097 4.61 11.168-.06 1.504-.24 2.93-.54 4.228.69-.762 1.46-1.514 2.32-2.232 4.65-3.905 9.86-5.356 11.64-3.24 1.77 2.115-.56 6.995-5.21 10.9-.53.44-1.06.85-1.59 1.227.42-.03.85-.05 1.29-.056 6.07-.1 11.04 2.05 11.09 4.81.05 2.76-4.84 5.09-10.91 5.19-1.85.04-3.59-.14-5.13-.48 1.08 1 2.15 2.22 3.13 3.62 3.48 4.98 4.47 10.3 2.21 11.88-2.24 1.57-6.83-1.11-10.31-6 0 .06-.01.11-.01.17-.21 6.07-2.62 10.92-5.38 10.82-2.76-.09-4.83-5.09-4.62-11.17.04-1.09.15-2.15.32-3.15-.86 1.08-1.91 2.15-3.11 3.16-4.66 3.91-9.87 5.36-11.64 3.24-1.78-2.11.56-6.99 5.21-10.9 1.28-1.07 2.6-1.96 3.88-2.64zm4.025-1.466c1.65-.28 2.993-.02 3.734.865.3.35.483.79.557 1.29.73-.81 1.55-1.25 2.4-1.22.458.01.895.16 1.307.43.195-.63.526-1.12 1-1.45.485-.34 1.08-.48 1.75-.45-.278-.43-.43-.89-.438-1.36-.014-.8.387-1.57 1.112-2.25-.64-.14-1.167-.43-1.54-.87-.518-.62-.686-1.47-.55-2.47-.452.26-.924.4-1.408.38-.762-.03-1.47-.43-2.094-1.12.026 1.42-.365 2.54-1.213 3.14-.79.54-1.85.57-3.06.17.48.56.74 1.17.74 1.81 0 1.15-.86 2.21-2.31 3.06z"/>
        <ellipse id="nectar4" cx="25.5" cy="27" fill="#FEEEC5" rx="6.5" ry="6"/>
      </g>
    </g>
    <g id="flower1">
      <g transform="translate(2538 1072)">
        <path id="leaves1" fill="#F76E54" d="M15.667 30.53c-1.417.3-2.998.47-4.667.47-6.075 0-11-2.24-11-5s4.925-5 11-5c2.49 0 4.788.376 6.632 1.01-1.285-1.084-2.57-2.49-3.728-4.142C10.42 12.89 9.43 7.573 11.69 5.988c2.263-1.583 6.92 1.168 10.406 6.144.35.5.674 1.003.973 1.506-.08-.9-.1-1.843-.07-2.812.21-6.072 2.62-10.916 5.38-10.82 2.76.097 4.82 5.097 4.61 11.168-.06 1.504-.24 2.93-.54 4.228.69-.762 1.46-1.514 2.32-2.232 4.65-3.905 9.86-5.356 11.64-3.24 1.77 2.115-.56 6.995-5.21 10.9-.53.44-1.06.85-1.59 1.227.42-.03.85-.05 1.29-.056 6.07-.1 11.04 2.05 11.09 4.81.05 2.76-4.84 5.09-10.91 5.19-1.85.04-3.59-.14-5.13-.48 1.08 1 2.15 2.22 3.13 3.62 3.48 4.98 4.47 10.3 2.21 11.88-2.24 1.57-6.83-1.11-10.31-6 0 .06-.01.11-.01.17-.21 6.07-2.62 10.92-5.38 10.82-2.76-.09-4.83-5.09-4.62-11.17.04-1.09.15-2.15.32-3.15-.86 1.08-1.91 2.15-3.11 3.16-4.66 3.91-9.87 5.36-11.64 3.24-1.78-2.11.56-6.99 5.21-10.9 1.28-1.07 2.6-1.96 3.88-2.64zm4.025-1.466c1.65-.28 2.993-.02 3.734.865.3.35.483.79.557 1.29.73-.81 1.55-1.25 2.4-1.22.458.01.895.16 1.307.43.195-.63.526-1.12 1-1.45.485-.34 1.08-.48 1.75-.45-.278-.43-.43-.89-.438-1.36-.014-.8.387-1.57 1.112-2.25-.64-.14-1.167-.43-1.54-.87-.518-.62-.686-1.47-.55-2.47-.452.26-.924.4-1.408.38-.762-.03-1.47-.43-2.094-1.12.026 1.42-.365 2.54-1.213 3.14-.79.54-1.85.57-3.06.17.48.56.74 1.17.74 1.81 0 1.15-.86 2.21-2.31 3.06z"/>
        <ellipse id="nectar1" cx="25.5" cy="27" fill="#FEEEC5" rx="6.5" ry="6"/>
      </g>
    </g>
    <g id="flower2">
      <g transform="rotate(-29 3945.225 -6000.57)">
        <path id="leaves2" fill="#6DE5EA" d="M15.667 30.53c-1.417.3-2.998.47-4.667.47-6.075 0-11-2.24-11-5s4.925-5 11-5c2.49 0 4.788.376 6.632 1.01-1.285-1.084-2.57-2.49-3.728-4.142C10.42 12.89 9.43 7.573 11.69 5.988c2.263-1.583 6.92 1.168 10.406 6.144.35.5.674 1.003.973 1.506-.08-.9-.1-1.843-.07-2.812.21-6.072 2.62-10.916 5.38-10.82 2.76.097 4.82 5.097 4.61 11.168-.06 1.504-.24 2.93-.54 4.228.69-.762 1.46-1.514 2.32-2.232 4.65-3.905 9.86-5.356 11.64-3.24 1.77 2.115-.56 6.995-5.21 10.9-.53.44-1.06.85-1.59 1.227.42-.03.85-.05 1.29-.056 6.07-.1 11.04 2.05 11.09 4.81.05 2.76-4.84 5.09-10.91 5.19-1.85.04-3.59-.14-5.13-.48 1.08 1 2.15 2.22 3.13 3.62 3.48 4.98 4.47 10.3 2.21 11.88-2.24 1.57-6.83-1.11-10.31-6 0 .06-.01.11-.01.17-.21 6.07-2.62 10.92-5.38 10.82-2.76-.09-4.83-5.09-4.62-11.17.04-1.09.15-2.15.32-3.15-.86 1.08-1.91 2.15-3.11 3.16-4.66 3.91-9.87 5.36-11.64 3.24-1.78-2.11.56-6.99 5.21-10.9 1.28-1.07 2.6-1.96 3.88-2.64zm4.025-1.466c1.65-.28 2.993-.02 3.734.865.3.35.483.79.557 1.29.73-.81 1.55-1.25 2.4-1.22.458.01.895.16 1.307.43.195-.63.526-1.12 1-1.45.485-.34 1.08-.48 1.75-.45-.278-.43-.43-.89-.438-1.36-.014-.8.387-1.57 1.112-2.25-.64-.14-1.167-.43-1.54-.87-.518-.62-.686-1.47-.55-2.47-.452.26-.924.4-1.408.38-.762-.03-1.47-.43-2.094-1.12.026 1.42-.365 2.54-1.213 3.14-.79.54-1.85.57-3.06.17.48.56.74 1.17.74 1.81 0 1.15-.86 2.21-2.31 3.06z"/>
        <ellipse id="nectar2" cx="25.5" cy="27" fill="#FEEEC5" rx="6.5" ry="6"/>
      </g>
    </g>
    <g id="flower3">
      <g transform="rotate(-29 2395.666 -1578.177)">
        <path id="leaves3" fill="#CD4963" d="M15.667 30.53c-1.417.3-2.998.47-4.667.47-6.075 0-11-2.24-11-5s4.925-5 11-5c2.49 0 4.788.376 6.632 1.01-1.285-1.084-2.57-2.49-3.728-4.142C10.42 12.89 9.43 7.573 11.69 5.988c2.263-1.583 6.92 1.168 10.406 6.144.35.5.674 1.003.973 1.506-.08-.9-.1-1.843-.07-2.812.21-6.072 2.62-10.916 5.38-10.82 2.76.097 4.82 5.097 4.61 11.168-.06 1.504-.24 2.93-.54 4.228.69-.762 1.46-1.514 2.32-2.232 4.65-3.905 9.86-5.356 11.64-3.24 1.77 2.115-.56 6.995-5.21 10.9-.53.44-1.06.85-1.59 1.227.42-.03.85-.05 1.29-.056 6.07-.1 11.04 2.05 11.09 4.81.05 2.76-4.84 5.09-10.91 5.19-1.85.04-3.59-.14-5.13-.48 1.08 1 2.15 2.22 3.13 3.62 3.48 4.98 4.47 10.3 2.21 11.88-2.24 1.57-6.83-1.11-10.31-6 0 .06-.01.11-.01.17-.21 6.07-2.62 10.92-5.38 10.82-2.76-.09-4.83-5.09-4.62-11.17.04-1.09.15-2.15.32-3.15-.86 1.08-1.91 2.15-3.11 3.16-4.66 3.91-9.87 5.36-11.64 3.24-1.78-2.11.56-6.99 5.21-10.9 1.28-1.07 2.6-1.96 3.88-2.64zm4.025-1.466c1.65-.28 2.993-.02 3.734.865.3.35.483.79.557 1.29.73-.81 1.55-1.25 2.4-1.22.458.01.895.16 1.307.43.195-.63.526-1.12 1-1.45.485-.34 1.08-.48 1.75-.45-.278-.43-.43-.89-.438-1.36-.014-.8.387-1.57 1.112-2.25-.64-.14-1.167-.43-1.54-.87-.518-.62-.686-1.47-.55-2.47-.452.26-.924.4-1.408.38-.762-.03-1.47-.43-2.094-1.12.026 1.42-.365 2.54-1.213 3.14-.79.54-1.85.57-3.06.17.48.56.74 1.17.74 1.81 0 1.15-.86 2.21-2.31 3.06z"/>
        <ellipse id="nectar3" cx="25.5" cy="27" fill="#FEEEC5" rx="6.5" ry="6"/>
      </g>
    </g>
    <g id="flower1">
      <g transform="translate(78 1164)">
        <path id="leaves1" fill="#F76E54" d="M15.667 30.53c-1.417.3-2.998.47-4.667.47-6.075 0-11-2.24-11-5s4.925-5 11-5c2.49 0 4.788.376 6.632 1.01-1.285-1.084-2.57-2.49-3.728-4.142C10.42 12.89 9.43 7.573 11.69 5.988c2.263-1.583 6.92 1.168 10.406 6.144.35.5.674 1.003.973 1.506-.08-.9-.1-1.843-.07-2.812.21-6.072 2.62-10.916 5.38-10.82 2.76.097 4.82 5.097 4.61 11.168-.06 1.504-.24 2.93-.54 4.228.69-.762 1.46-1.514 2.32-2.232 4.65-3.905 9.86-5.356 11.64-3.24 1.77 2.115-.56 6.995-5.21 10.9-.53.44-1.06.85-1.59 1.227.42-.03.85-.05 1.29-.056 6.07-.1 11.04 2.05 11.09 4.81.05 2.76-4.84 5.09-10.91 5.19-1.85.04-3.59-.14-5.13-.48 1.08 1 2.15 2.22 3.13 3.62 3.48 4.98 4.47 10.3 2.21 11.88-2.24 1.57-6.83-1.11-10.31-6 0 .06-.01.11-.01.17-.21 6.07-2.62 10.92-5.38 10.82-2.76-.09-4.83-5.09-4.62-11.17.04-1.09.15-2.15.32-3.15-.86 1.08-1.91 2.15-3.11 3.16-4.66 3.91-9.87 5.36-11.64 3.24-1.78-2.11.56-6.99 5.21-10.9 1.28-1.07 2.6-1.96 3.88-2.64zm4.025-1.466c1.65-.28 2.993-.02 3.734.865.3.35.483.79.557 1.29.73-.81 1.55-1.25 2.4-1.22.458.01.895.16 1.307.43.195-.63.526-1.12 1-1.45.485-.34 1.08-.48 1.75-.45-.278-.43-.43-.89-.438-1.36-.014-.8.387-1.57 1.112-2.25-.64-.14-1.167-.43-1.54-.87-.518-.62-.686-1.47-.55-2.47-.452.26-.924.4-1.408.38-.762-.03-1.47-.43-2.094-1.12.026 1.42-.365 2.54-1.213 3.14-.79.54-1.85.57-3.06.17.48.56.74 1.17.74 1.81 0 1.15-.86 2.21-2.31 3.06z"/>
        <ellipse id="nectar1" cx="25.5" cy="27" fill="#FEEEC5" rx="6.5" ry="6"/>
      </g>
    </g>
    <g id="flower2">
      <g transform="rotate(-29 2408.223 -655.605)">
        <path id="leaves2" fill="#6DE5EA" d="M15.667 30.53c-1.417.3-2.998.47-4.667.47-6.075 0-11-2.24-11-5s4.925-5 11-5c2.49 0 4.788.376 6.632 1.01-1.285-1.084-2.57-2.49-3.728-4.142C10.42 12.89 9.43 7.573 11.69 5.988c2.263-1.583 6.92 1.168 10.406 6.144.35.5.674 1.003.973 1.506-.08-.9-.1-1.843-.07-2.812.21-6.072 2.62-10.916 5.38-10.82 2.76.097 4.82 5.097 4.61 11.168-.06 1.504-.24 2.93-.54 4.228.69-.762 1.46-1.514 2.32-2.232 4.65-3.905 9.86-5.356 11.64-3.24 1.77 2.115-.56 6.995-5.21 10.9-.53.44-1.06.85-1.59 1.227.42-.03.85-.05 1.29-.056 6.07-.1 11.04 2.05 11.09 4.81.05 2.76-4.84 5.09-10.91 5.19-1.85.04-3.59-.14-5.13-.48 1.08 1 2.15 2.22 3.13 3.62 3.48 4.98 4.47 10.3 2.21 11.88-2.24 1.57-6.83-1.11-10.31-6 0 .06-.01.11-.01.17-.21 6.07-2.62 10.92-5.38 10.82-2.76-.09-4.83-5.09-4.62-11.17.04-1.09.15-2.15.32-3.15-.86 1.08-1.91 2.15-3.11 3.16-4.66 3.91-9.87 5.36-11.64 3.24-1.78-2.11.56-6.99 5.21-10.9 1.28-1.07 2.6-1.96 3.88-2.64zm4.025-1.466c1.65-.28 2.993-.02 3.734.865.3.35.483.79.557 1.29.73-.81 1.55-1.25 2.4-1.22.458.01.895.16 1.307.43.195-.63.526-1.12 1-1.45.485-.34 1.08-.48 1.75-.45-.278-.43-.43-.89-.438-1.36-.014-.8.387-1.57 1.112-2.25-.64-.14-1.167-.43-1.54-.87-.518-.62-.686-1.47-.55-2.47-.452.26-.924.4-1.408.38-.762-.03-1.47-.43-2.094-1.12.026 1.42-.365 2.54-1.213 3.14-.79.54-1.85.57-3.06.17.48.56.74 1.17.74 1.81 0 1.15-.86 2.21-2.31 3.06z"/>
        <ellipse id="nectar2" cx="25.5" cy="27" fill="#FEEEC5" rx="6.5" ry="6"/>
      </g>
    </g>
    <g id="flower3">
      <g transform="rotate(-29 2316.568 -602.366)">
        <path id="leaves3" fill="#CD4963" d="M15.667 30.53c-1.417.3-2.998.47-4.667.47-6.075 0-11-2.24-11-5s4.925-5 11-5c2.49 0 4.788.376 6.632 1.01-1.285-1.084-2.57-2.49-3.728-4.142C10.42 12.89 9.43 7.573 11.69 5.988c2.263-1.583 6.92 1.168 10.406 6.144.35.5.674 1.003.973 1.506-.08-.9-.1-1.843-.07-2.812.21-6.072 2.62-10.916 5.38-10.82 2.76.097 4.82 5.097 4.61 11.168-.06 1.504-.24 2.93-.54 4.228.69-.762 1.46-1.514 2.32-2.232 4.65-3.905 9.86-5.356 11.64-3.24 1.77 2.115-.56 6.995-5.21 10.9-.53.44-1.06.85-1.59 1.227.42-.03.85-.05 1.29-.056 6.07-.1 11.04 2.05 11.09 4.81.05 2.76-4.84 5.09-10.91 5.19-1.85.04-3.59-.14-5.13-.48 1.08 1 2.15 2.22 3.13 3.62 3.48 4.98 4.47 10.3 2.21 11.88-2.24 1.57-6.83-1.11-10.31-6 0 .06-.01.11-.01.17-.21 6.07-2.62 10.92-5.38 10.82-2.76-.09-4.83-5.09-4.62-11.17.04-1.09.15-2.15.32-3.15-.86 1.08-1.91 2.15-3.11 3.16-4.66 3.91-9.87 5.36-11.64 3.24-1.78-2.11.56-6.99 5.21-10.9 1.28-1.07 2.6-1.96 3.88-2.64zm4.025-1.466c1.65-.28 2.993-.02 3.734.865.3.35.483.79.557 1.29.73-.81 1.55-1.25 2.4-1.22.458.01.895.16 1.307.43.195-.63.526-1.12 1-1.45.485-.34 1.08-.48 1.75-.45-.278-.43-.43-.89-.438-1.36-.014-.8.387-1.57 1.112-2.25-.64-.14-1.167-.43-1.54-.87-.518-.62-.686-1.47-.55-2.47-.452.26-.924.4-1.408.38-.762-.03-1.47-.43-2.094-1.12.026 1.42-.365 2.54-1.213 3.14-.79.54-1.85.57-3.06.17.48.56.74 1.17.74 1.81 0 1.15-.86 2.21-2.31 3.06z"/>
        <ellipse id="nectar3" cx="25.5" cy="27" fill="#FEEEC5" rx="6.5" ry="6"/>
      </g>
    </g>
    <g id="flower4">
      <g transform="rotate(-29 2422.636 -541.932)">
        <path id="leaves4" fill="#A83A55" d="M15.667 30.53c-1.417.3-2.998.47-4.667.47-6.075 0-11-2.24-11-5s4.925-5 11-5c2.49 0 4.788.376 6.632 1.01-1.285-1.084-2.57-2.49-3.728-4.142C10.42 12.89 9.43 7.573 11.69 5.988c2.263-1.583 6.92 1.168 10.406 6.144.35.5.674 1.003.973 1.506-.08-.9-.1-1.843-.07-2.812.21-6.072 2.62-10.916 5.38-10.82 2.76.097 4.82 5.097 4.61 11.168-.06 1.504-.24 2.93-.54 4.228.69-.762 1.46-1.514 2.32-2.232 4.65-3.905 9.86-5.356 11.64-3.24 1.77 2.115-.56 6.995-5.21 10.9-.53.44-1.06.85-1.59 1.227.42-.03.85-.05 1.29-.056 6.07-.1 11.04 2.05 11.09 4.81.05 2.76-4.84 5.09-10.91 5.19-1.85.04-3.59-.14-5.13-.48 1.08 1 2.15 2.22 3.13 3.62 3.48 4.98 4.47 10.3 2.21 11.88-2.24 1.57-6.83-1.11-10.31-6 0 .06-.01.11-.01.17-.21 6.07-2.62 10.92-5.38 10.82-2.76-.09-4.83-5.09-4.62-11.17.04-1.09.15-2.15.32-3.15-.86 1.08-1.91 2.15-3.11 3.16-4.66 3.91-9.87 5.36-11.64 3.24-1.78-2.11.56-6.99 5.21-10.9 1.28-1.07 2.6-1.96 3.88-2.64zm4.025-1.466c1.65-.28 2.993-.02 3.734.865.3.35.483.79.557 1.29.73-.81 1.55-1.25 2.4-1.22.458.01.895.16 1.307.43.195-.63.526-1.12 1-1.45.485-.34 1.08-.48 1.75-.45-.278-.43-.43-.89-.438-1.36-.014-.8.387-1.57 1.112-2.25-.64-.14-1.167-.43-1.54-.87-.518-.62-.686-1.47-.55-2.47-.452.26-.924.4-1.408.38-.762-.03-1.47-.43-2.094-1.12.026 1.42-.365 2.54-1.213 3.14-.79.54-1.85.57-3.06.17.48.56.74 1.17.74 1.81 0 1.15-.86 2.21-2.31 3.06z"/>
        <ellipse id="nectar4" cx="25.5" cy="27" fill="#FEEEC5" rx="6.5" ry="6"/>
      </g>
    </g>
    
    <g id="acorn">
      <g>
        <path id="acornbottom" fill="#AB6333" d="M2384.393 984.178c-10.025-1.183-14.154 33.025-6.245 39.102 7.908 6.077 39.43-5.608 37.146-15.356-1.304-5.563-22.582-22.765-30.9-23.746z"/>
        <path id="acorntop" fill="#AB4C09" d="M2380.384 983.004c1.23 3.608 11.54 4.433 19.162 10.27 8.23 6.303 13.863 17.51 16.546 17.823 2.677.312 5.513-8.39 1.766-18.462-.717-1.925-3.235-4.844-7.556-8.755-2.295-6.066-3.993-9.768-5.096-11.105-1.103-1.337-3.07-1.27-5.9.206-1.256 1.48-1.22 2.56.114 3.22 2 1.01 3.276-3.48 5.898-.2 1.75 2.19 2.488 4.85 2.218 7.98-1.386-2.69-5.323-4.48-11.81-5.36-9.73-1.33-16.667.51-15.342 4.39z"/>
      </g>
    </g>
  </g>
</svg>