<svg xmlns="http://www.w3.org/2000/svg" viewBox="1 0 4001 1348">
    <g id="sky">
      <path id="skybg" fill="#A0E1FE" d="M0 0h4034v1189H0z"/>
      <g id="cloud1" fill="#FFF">
        <g>
          <path d="M288.276 583.526c28.6-1.045 54.82-6.615 76.062-15.352 4.696.32 9.52.486 14.437.486 48.173 0 87.225-15.954 87.225-35.635 0-14.192-20.31-26.447-49.704-32.178C406.982 465.347 348.812 438 278.44 438c-17.97 0-35.146 1.784-50.915 5.03-10.792-3.233-22.736-5.03-35.3-5.03C144.052 438 105 464.413 105 496.995c0 20.634 15.662 38.793 39.383 49.337-3.3 3.76-5.098 7.81-5.098 12.033 0 19.68 39.052 35.635 87.225 35.635 24.132 0 45.975-4.004 61.766-10.474z"/>
        </g>
      </g>
      <g id="cloud2" fill="#FFF">
        <g>
          <path d="M622.235 530.666C643.99 517.9 674.08 510 707.325 510c66.363 0 120.16 31.476 120.16 70.304 0 2.873-.295 5.706-.868 8.49C859.367 597.662 881 612.962 881 630.35c0 27.42-53.797 49.65-120.158 49.65-58.704 0-107.576-17.395-118.073-40.39-9.63-3.594-18.32-7.967-25.81-12.967-15.93 6.928-38.54 11.254-63.62 11.254-48.24 0-87.34-16.005-87.34-35.747 0-16.83 28.41-30.942 66.67-34.742-.02-.334-.04-.67-.04-1.006 0-19.743 39.1-35.748 87.34-35.748.75 0 1.5.004 2.25.012z"/>
        </g>
      </g>
      <g id="cloud3" fill="#FFF">
        <g>
          <path d="M1039.68 479.518c-.315-2.076-.476-4.18-.476-6.303 0-38.78 53.607-70.215 119.734-70.215 66.128 0 119.735 31.436 119.735 70.215 0 2.87-.294 5.7-.864 8.48 32.63 8.856 54.19 24.137 54.19 41.503 0 27.386-53.61 49.587-119.74 49.587-2.13 0-4.25-.023-6.36-.07-12.93 13.07-44.18 22.285-80.68 22.285-48.07 0-87.03-15.985-87.03-35.702 0-7.358 5.42-14.196 14.72-19.878-27.88-5.95-46.93-17.91-46.93-31.693 0-11.47 13.18-21.677 33.68-28.21z"/>
        </g>
      </g>
      <g id="cloud4" fill="#FFF">
        <g>
          <path d="M2074.674 719.53c-.005-.18-.007-.358-.007-.537 0-26.506 53.576-47.993 119.666-47.993S2314 692.487 2314 718.993c0 13.14-13.168 25.047-34.5 33.714 21.332 8.667 34.5 20.573 34.5 33.714 0 26.51-53.577 48-119.667 48-15.11 0-29.565-1.12-42.876-3.17-12.933 3.03-28.01 4.76-44.108 4.76-48.05 0-86.99-15.45-86.99-34.5 0-5.69 3.47-11.06 9.62-15.79-42.37-2.32-74.99-16.74-74.99-34.18 0-19.05 38.94-34.5 86.98-34.5 11.56 0 22.59.9 32.69 2.52z"/>
        </g>
      </g>
      <g id="cloud5" fill="#FFF">
        <g>
          <path d="M2567.69 457.1c-3.397 4.435-5.225 9.142-5.225 14.02 0 26.443 53.736 47.88 120.023 47.88 53.535 0 98.884-13.982 114.35-33.292 1.88.035 3.772.053 5.674.053 16.745 0 32.69-1.36 47.168-3.83 12 2.46 25.628 3.84 40.076 3.84 48.183 0 87.244-15.41 87.244-34.43 0-16.01-27.716-29.47-65.255-33.32-18.92-16.52-60.715-28.01-109.233-28.01-53.535 0-98.884 13.98-114.35 33.29-1.88-.03-3.772-.05-5.674-.05h-.05c-1.586-18.46-40.017-33.24-87.194-33.24-48.183 0-87.244 15.42-87.244 34.43 0 15.22 25.01 28.13 59.69 32.68z"/>
        </g>
      </g>
    </g>
</svg>
